<svg width="513" height="92" viewBox="0 0 513 92" fill="none" xmlns="http://www.w3.org/2000/svg">
<path d="M8.226 59.126C8.746 58.19 9.5 57.15 10.488 56.006C11.528 54.81 12.698 53.64 13.998 52.496C15.35 51.3 16.728 50.26 18.132 49.376H21.408C20.992 50.26 20.654 51.352 20.394 52.652C20.186 53.952 20.03 55.746 19.926 58.034C19.874 60.322 19.822 63.442 19.77 67.394C19.77 71.346 19.77 76.442 19.77 82.682L25.23 84.164L22.812 88.844C21.876 88.948 20.81 89.078 19.614 89.234C18.418 89.39 17.248 89.52 16.104 89.624C15.012 89.78 14.05 89.858 13.218 89.858C12.386 89.91 11.84 89.91 11.58 89.858C11.008 89.702 10.462 89.39 9.942 88.922C9.474 88.454 9.058 87.96 8.694 87.44C8.382 86.868 8.174 86.452 8.07 86.192C8.174 84.216 8.382 82.292 8.694 80.42C9.006 78.548 9.162 76.442 9.162 74.102C9.162 72.23 9.032 70.488 8.772 68.876C8.564 67.212 8.382 65.6 8.226 64.04C8.122 62.428 8.122 60.79 8.226 59.126ZM23.904 65.444L35.916 64.898V70.748L23.904 70.124V65.444ZM27.18 49.142V79.718C27.18 80.03 26.998 80.602 26.634 81.434C26.27 82.214 25.802 83.124 25.23 84.164H22.968V49.142H27.18ZM6.198 47.27L6.822 39.08C10.098 39.34 13.478 39.652 16.962 40.016C20.498 40.328 23.904 40.692 27.18 41.108C30.456 41.472 33.342 41.81 35.838 42.122C38.386 42.434 40.258 42.72 41.454 42.98C41.61 43.032 41.896 43.292 42.312 43.76C42.78 44.176 43.274 44.696 43.794 45.32C44.366 45.944 44.834 46.542 45.198 47.114C45.614 47.634 45.822 47.998 45.822 48.206V82.526L49.956 84.164V88.844C48.968 88.948 47.85 89.078 46.602 89.234C45.354 89.39 44.106 89.52 42.858 89.624C41.61 89.78 40.518 89.884 39.582 89.936C38.646 89.988 38.048 89.962 37.788 89.858C37.268 89.702 36.748 89.39 36.228 88.922C35.708 88.402 35.266 87.882 34.902 87.362C34.59 86.842 34.382 86.452 34.278 86.192V51.872L20.16 49.844L17.274 50L17.118 49.532L6.198 47.27ZM60.0923 89.858C59.8843 89.858 59.4943 89.65 58.9223 89.234C58.3503 88.818 57.8043 88.35 57.2843 87.83C56.7643 87.31 56.5043 86.946 56.5043 86.738V59.672L53.3843 58.502V53.978C53.3843 53.978 53.8783 53.9 54.8663 53.744C55.8543 53.536 57.0243 53.354 58.3763 53.198C59.7803 52.99 61.0543 52.808 62.1983 52.652C63.3943 52.444 64.1223 52.34 64.3823 52.34C64.5383 52.34 64.8503 52.574 65.3183 53.042C65.7863 53.458 66.2283 53.926 66.6443 54.446C67.0603 54.966 67.2683 55.304 67.2683 55.46V57.488C67.8923 57.02 68.6203 56.5 69.4523 55.928C70.2843 55.304 71.0643 54.732 71.7923 54.212C72.5203 53.692 73.1443 53.25 73.6643 52.886C74.2363 52.522 74.6003 52.34 74.7563 52.34C77.2523 52.34 79.4103 52.704 81.2303 53.432C83.0503 54.16 84.4283 55.408 85.3643 57.176C86.3003 58.892 86.7683 61.258 86.7683 64.274V82.526L89.8883 83.774V88.22C89.8883 88.22 89.3943 88.298 88.4063 88.454C87.4183 88.61 86.2483 88.792 84.8963 89C83.5443 89.26 82.3223 89.468 81.2303 89.624C80.1383 89.78 79.4623 89.858 79.2023 89.858C78.9943 89.858 78.6043 89.65 78.0323 89.234C77.4603 88.818 76.9143 88.35 76.3943 87.83C75.8743 87.31 75.6143 86.946 75.6143 86.738V64.43C75.6143 63.078 75.4063 62.116 74.9903 61.544C74.6263 60.972 74.2103 60.634 73.7423 60.53C73.2743 60.374 72.8843 60.296 72.5723 60.296C72.4683 60.296 72.1303 60.4 71.5583 60.608C71.0383 60.816 70.4403 61.076 69.7643 61.388C69.0883 61.7 68.3863 62.012 67.6583 62.324V82.604L70.7783 83.774V88.22C70.7783 88.22 70.2843 88.324 69.2963 88.532C68.3603 88.688 67.2163 88.87 65.8643 89.078C64.5643 89.286 63.3423 89.468 62.1983 89.624C61.0543 89.78 60.3523 89.858 60.0923 89.858ZM103.061 89.858C102.645 89.858 102.073 89.598 101.345 89.078C100.669 88.558 99.9672 87.908 99.2392 87.128C98.5632 86.348 97.9912 85.568 97.5232 84.788C97.0552 83.956 96.8212 83.254 96.8212 82.682V59.126H91.2052V55.07L96.8212 52.886L103.763 44.618C104.283 44.566 104.907 44.696 105.635 45.008C106.415 45.268 107.195 45.528 107.975 45.788V53.354H115.775V59.36H107.975V79.406C107.975 80.602 108.105 81.434 108.365 81.902C108.677 82.318 109.119 82.526 109.691 82.526L116.633 82.916V88.376C115.489 88.532 114.189 88.714 112.733 88.922C111.329 89.078 109.951 89.208 108.599 89.312C107.247 89.468 106.051 89.598 105.011 89.702C104.023 89.806 103.373 89.858 103.061 89.858ZM137.616 89.858C131.792 89.858 127.294 88.506 124.122 85.802C120.95 83.046 119.364 78.73 119.364 72.854C119.364 70.566 119.546 68.304 119.91 66.068C120.326 63.832 120.794 62.142 121.314 60.998C121.834 60.374 122.744 59.594 124.044 58.658C125.344 57.67 126.748 56.708 128.256 55.772C129.816 54.836 131.246 54.03 132.546 53.354C133.898 52.678 134.86 52.34 135.432 52.34C141.36 52.34 145.832 53.822 148.848 56.786C151.864 59.698 153.372 63.858 153.372 69.266C153.372 71.866 153.164 74.258 152.748 76.442C152.332 78.626 151.89 80.316 151.422 81.512C150.902 82.136 150.018 82.916 148.77 83.852C147.522 84.736 146.144 85.646 144.636 86.582C143.128 87.518 141.724 88.298 140.424 88.922C139.124 89.546 138.188 89.858 137.616 89.858ZM137.694 84.164C137.85 84.112 138.162 84.008 138.63 83.852C139.098 83.644 139.54 83.436 139.956 83.228C140.372 83.02 140.58 82.916 140.58 82.916C140.788 81.72 140.996 80.134 141.204 78.158C141.412 76.182 141.516 73.608 141.516 70.436C141.516 68.252 141.308 66.224 140.892 64.352C140.528 62.48 139.878 60.972 138.942 59.828C138.006 58.632 136.732 58.034 135.12 58.034C134.808 58.034 134.496 58.06 134.184 58.112C133.872 58.112 133.534 58.19 133.17 58.346C132.65 58.554 132.182 59.854 131.766 62.246C131.402 64.638 131.22 67.784 131.22 71.684C131.22 75.064 131.532 77.664 132.156 79.484C132.832 81.252 133.664 82.474 134.652 83.15C135.692 83.826 136.706 84.164 137.694 84.164ZM163.686 89.858C163.478 89.858 163.088 89.65 162.516 89.234C161.944 88.818 161.398 88.35 160.878 87.83C160.358 87.31 160.098 86.946 160.098 86.738V59.672L156.978 58.502V53.978C156.978 53.978 157.472 53.9 158.46 53.744C159.448 53.536 160.618 53.354 161.97 53.198C163.374 52.99 164.648 52.808 165.792 52.652C166.988 52.444 167.716 52.34 167.976 52.34C168.132 52.34 168.444 52.574 168.912 53.042C169.38 53.458 169.822 53.926 170.238 54.446C170.654 54.966 170.862 55.304 170.862 55.46V57.488C171.486 57.02 172.214 56.5 173.046 55.928C173.878 55.304 174.658 54.732 175.386 54.212C176.114 53.692 176.738 53.25 177.258 52.886C177.83 52.522 178.194 52.34 178.35 52.34C180.846 52.34 183.004 52.704 184.824 53.432C186.644 54.16 188.022 55.408 188.958 57.176C189.894 58.892 190.362 61.258 190.362 64.274V82.526L193.482 83.774V88.22C193.482 88.22 192.988 88.298 192 88.454C191.012 88.61 189.842 88.792 188.49 89C187.138 89.26 185.916 89.468 184.824 89.624C183.732 89.78 183.056 89.858 182.796 89.858C182.588 89.858 182.198 89.65 181.626 89.234C181.054 88.818 180.508 88.35 179.988 87.83C179.468 87.31 179.208 86.946 179.208 86.738V64.43C179.208 63.078 179 62.116 178.584 61.544C178.22 60.972 177.804 60.634 177.336 60.53C176.868 60.374 176.478 60.296 176.166 60.296C176.062 60.296 175.724 60.4 175.152 60.608C174.632 60.816 174.034 61.076 173.358 61.388C172.682 61.7 171.98 62.012 171.252 62.324V82.604L174.372 83.774V88.22C174.372 88.22 173.878 88.324 172.89 88.532C171.954 88.688 170.81 88.87 169.458 89.078C168.158 89.286 166.936 89.468 165.792 89.624C164.648 89.78 163.946 89.858 163.686 89.858ZM203.223 89.858C203.067 89.858 202.677 89.624 202.053 89.156C201.429 88.74 200.831 88.272 200.259 87.752C199.739 87.232 199.479 86.868 199.479 86.66V59.516L196.359 58.502V53.978C196.359 53.978 196.853 53.9 197.841 53.744C198.881 53.588 200.103 53.406 201.507 53.198C202.911 52.99 204.185 52.808 205.329 52.652C206.525 52.444 207.253 52.34 207.513 52.34C207.721 52.34 208.059 52.574 208.527 53.042C209.047 53.458 209.515 53.952 209.931 54.524C210.399 55.044 210.633 55.408 210.633 55.616V82.76L213.753 83.774V88.22C213.753 88.22 213.285 88.324 212.349 88.532C211.413 88.688 210.269 88.87 208.917 89.078C207.617 89.286 206.421 89.468 205.329 89.624C204.237 89.78 203.535 89.858 203.223 89.858ZM198.699 39.548C198.699 39.444 199.011 39.106 199.635 38.534C200.311 37.962 201.065 37.338 201.897 36.662C202.781 35.934 203.561 35.31 204.237 34.79C204.913 34.27 205.329 34.01 205.485 34.01C205.797 34.01 206.291 34.322 206.967 34.946C207.695 35.518 208.423 36.22 209.151 37.052C209.879 37.884 210.503 38.664 211.023 39.392C211.595 40.068 211.855 40.536 211.803 40.796L211.257 42.902C211.205 43.11 210.867 43.5 210.243 44.072C209.619 44.644 208.891 45.268 208.059 45.944C207.279 46.568 206.525 47.114 205.797 47.582C205.069 48.05 204.601 48.284 204.393 48.284C204.133 48.284 203.665 47.998 202.989 47.426C202.313 46.802 201.611 46.1 200.883 45.32C200.155 44.488 199.531 43.708 199.011 42.98C198.543 42.252 198.335 41.784 198.387 41.576L198.699 39.548ZM235.573 89.858C229.749 89.858 225.251 88.506 222.079 85.802C218.907 83.046 217.321 78.73 217.321 72.854C217.321 70.566 217.503 68.304 217.867 66.068C218.283 63.832 218.751 62.142 219.271 60.998C219.791 60.374 220.701 59.594 222.001 58.658C223.301 57.67 224.705 56.708 226.213 55.772C227.773 54.836 229.203 54.03 230.503 53.354C231.855 52.678 232.817 52.34 233.389 52.34C239.317 52.34 243.789 53.822 246.805 56.786C249.821 59.698 251.329 63.858 251.329 69.266C251.329 71.866 251.121 74.258 250.705 76.442C250.289 78.626 249.847 80.316 249.379 81.512C248.859 82.136 247.975 82.916 246.727 83.852C245.479 84.736 244.101 85.646 242.593 86.582C241.085 87.518 239.681 88.298 238.381 88.922C237.081 89.546 236.145 89.858 235.573 89.858ZM235.651 84.164C235.807 84.112 236.119 84.008 236.587 83.852C237.055 83.644 237.497 83.436 237.913 83.228C238.329 83.02 238.537 82.916 238.537 82.916C238.745 81.72 238.953 80.134 239.161 78.158C239.369 76.182 239.473 73.608 239.473 70.436C239.473 68.252 239.265 66.224 238.849 64.352C238.485 62.48 237.835 60.972 236.899 59.828C235.963 58.632 234.689 58.034 233.077 58.034C232.765 58.034 232.453 58.06 232.141 58.112C231.829 58.112 231.491 58.19 231.127 58.346C230.607 58.554 230.139 59.854 229.723 62.246C229.359 64.638 229.177 67.784 229.177 71.684C229.177 75.064 229.489 77.664 230.113 79.484C230.789 81.252 231.621 82.474 232.609 83.15C233.649 83.826 234.663 84.164 235.651 84.164ZM271.552 59.126C272.072 58.19 272.826 57.15 273.814 56.006C274.854 54.81 276.024 53.64 277.324 52.496C278.676 51.3 280.054 50.26 281.458 49.376H284.734C284.318 50.26 283.98 51.352 283.72 52.652C283.512 53.952 283.356 55.746 283.252 58.034C283.2 60.322 283.148 63.442 283.096 67.394C283.096 71.346 283.096 76.442 283.096 82.682L288.556 84.164L286.138 88.844C285.202 88.948 284.136 89.078 282.94 89.234C281.744 89.39 280.574 89.52 279.43 89.624C278.338 89.78 277.376 89.858 276.544 89.858C275.712 89.91 275.166 89.91 274.906 89.858C274.334 89.702 273.788 89.39 273.268 88.922C272.8 88.454 272.384 87.96 272.02 87.44C271.708 86.868 271.5 86.452 271.396 86.192C271.5 84.216 271.708 82.292 272.02 80.42C272.332 78.548 272.488 76.442 272.488 74.102C272.488 72.23 272.358 70.488 272.098 68.876C271.89 67.212 271.708 65.6 271.552 64.04C271.448 62.428 271.448 60.79 271.552 59.126ZM287.23 65.444L299.242 64.898V70.748L287.23 70.124V65.444ZM290.506 49.142V79.718C290.506 80.03 290.324 80.602 289.96 81.434C289.596 82.214 289.128 83.124 288.556 84.164H286.294V49.142H290.506ZM269.524 47.27L270.148 39.08C273.424 39.34 276.804 39.652 280.288 40.016C283.824 40.328 287.23 40.692 290.506 41.108C293.782 41.472 296.668 41.81 299.164 42.122C301.712 42.434 303.584 42.72 304.78 42.98C304.936 43.032 305.222 43.292 305.638 43.76C306.106 44.176 306.6 44.696 307.12 45.32C307.692 45.944 308.16 46.542 308.524 47.114C308.94 47.634 309.148 47.998 309.148 48.206V82.526L313.282 84.164V88.844C312.294 88.948 311.176 89.078 309.928 89.234C308.68 89.39 307.432 89.52 306.184 89.624C304.936 89.78 303.844 89.884 302.908 89.936C301.972 89.988 301.374 89.962 301.114 89.858C300.594 89.702 300.074 89.39 299.554 88.922C299.034 88.402 298.592 87.882 298.228 87.362C297.916 86.842 297.708 86.452 297.604 86.192V51.872L283.486 49.844L280.6 50L280.444 49.532L269.524 47.27ZM322.717 89.858C322.509 89.858 322.119 89.65 321.547 89.234C320.975 88.818 320.429 88.35 319.909 87.83C319.441 87.31 319.207 86.946 319.207 86.738V44.93L316.009 43.76V39.236C316.009 39.236 316.347 39.184 317.023 39.08C317.699 38.976 318.557 38.846 319.597 38.69C320.689 38.534 321.781 38.378 322.873 38.222C323.965 38.066 324.927 37.936 325.759 37.832C326.591 37.728 327.137 37.676 327.397 37.676C327.605 37.676 327.917 37.884 328.333 38.3C328.801 38.716 329.243 39.184 329.659 39.704C330.127 40.172 330.361 40.51 330.361 40.718V82.604L333.403 83.774V88.22C333.403 88.22 332.909 88.324 331.921 88.532C330.985 88.688 329.841 88.87 328.489 89.078C327.189 89.286 325.967 89.468 324.823 89.624C323.679 89.78 322.977 89.858 322.717 89.858ZM342.995 89.858C342.787 89.858 342.397 89.65 341.825 89.234C341.253 88.818 340.707 88.35 340.187 87.83C339.667 87.31 339.407 86.946 339.407 86.738V59.75L336.287 58.58V54.056C336.287 54.056 336.781 53.978 337.769 53.822C338.757 53.614 339.927 53.406 341.279 53.198C342.683 52.99 343.957 52.808 345.101 52.652C346.297 52.444 347.025 52.34 347.285 52.34C347.441 52.34 347.753 52.574 348.221 53.042C348.689 53.458 349.131 53.926 349.547 54.446C349.963 54.966 350.171 55.33 350.171 55.538V57.566C350.743 57.098 351.367 56.578 352.043 56.006C352.771 55.382 353.473 54.81 354.149 54.29C354.877 53.718 355.475 53.25 355.943 52.886C356.411 52.522 356.723 52.34 356.879 52.34C359.479 52.34 361.715 52.756 363.587 53.588C365.511 54.368 366.915 55.694 367.799 57.566C368.371 57.098 368.969 56.578 369.593 56.006C370.269 55.382 370.919 54.81 371.543 54.29C372.219 53.718 372.791 53.25 373.259 52.886C373.727 52.522 374.013 52.34 374.117 52.34C376.925 52.34 379.291 52.704 381.215 53.432C383.139 54.16 384.595 55.408 385.583 57.176C386.623 58.892 387.143 61.284 387.143 64.352V82.604L390.263 83.774V88.22C390.263 88.22 389.769 88.298 388.781 88.454C387.793 88.61 386.623 88.792 385.271 89C383.919 89.26 382.697 89.468 381.605 89.624C380.513 89.78 379.837 89.858 379.577 89.858C379.421 89.858 379.031 89.65 378.407 89.234C377.835 88.818 377.289 88.35 376.769 87.83C376.249 87.31 375.989 86.946 375.989 86.738V64.508C375.989 63.468 375.859 62.688 375.599 62.168C375.391 61.596 375.105 61.18 374.741 60.92C374.377 60.66 374.013 60.504 373.649 60.452C373.337 60.348 373.077 60.296 372.869 60.296C372.765 60.296 372.531 60.4 372.167 60.608C371.855 60.764 371.491 60.946 371.075 61.154C370.659 61.362 370.243 61.596 369.827 61.856C369.463 62.064 369.151 62.22 368.891 62.324V82.604L371.777 83.774V88.22C371.777 88.22 371.283 88.298 370.295 88.454C369.359 88.61 368.241 88.792 366.941 89C365.641 89.26 364.445 89.468 363.353 89.624C362.261 89.78 361.585 89.858 361.325 89.858C361.169 89.858 360.779 89.65 360.155 89.234C359.583 88.818 359.037 88.35 358.517 87.83C357.997 87.31 357.737 86.946 357.737 86.738V64.508C357.737 63.156 357.529 62.194 357.113 61.622C356.749 61.05 356.307 60.686 355.787 60.53C355.319 60.374 354.955 60.296 354.695 60.296C354.591 60.296 354.357 60.4 353.993 60.608C353.681 60.764 353.291 60.946 352.823 61.154C352.407 61.362 351.991 61.596 351.575 61.856C351.159 62.064 350.821 62.22 350.561 62.324V82.604L353.447 83.774V88.22C353.447 88.22 352.953 88.298 351.965 88.454C351.029 88.61 349.911 88.792 348.611 89C347.311 89.26 346.115 89.468 345.023 89.624C343.931 89.78 343.255 89.858 342.995 89.858ZM405.201 72.152C405.201 74.44 405.461 76.312 405.981 77.768C406.553 79.224 407.255 80.29 408.087 80.966C408.919 81.642 409.803 81.98 410.739 81.98C410.791 81.98 411.259 81.954 412.143 81.902C413.079 81.85 414.197 81.798 415.497 81.746C416.797 81.694 418.071 81.642 419.319 81.59C420.567 81.538 421.581 81.486 422.361 81.434V86.114C421.633 86.322 420.593 86.66 419.241 87.128C417.889 87.544 416.485 87.96 415.029 88.376C413.573 88.792 412.247 89.13 411.051 89.39C409.907 89.702 409.101 89.858 408.633 89.858C405.669 89.858 403.043 89.208 400.755 87.908C398.519 86.608 396.777 84.71 395.529 82.214C394.333 79.718 393.735 76.702 393.735 73.166C393.735 70.67 393.917 68.304 394.281 66.068C394.697 63.78 395.165 62.038 395.685 60.842C396.205 60.218 397.089 59.438 398.337 58.502C399.637 57.566 401.041 56.63 402.549 55.694C404.109 54.758 405.539 53.978 406.839 53.354C408.139 52.678 409.075 52.34 409.647 52.34C412.663 52.34 415.211 52.886 417.291 53.978C419.423 55.018 421.009 56.916 422.049 59.672C423.141 62.428 423.635 66.38 423.531 71.528L400.833 73.946V69.344L412.767 67.16C412.819 64.456 412.585 62.298 412.065 60.686C411.597 59.074 410.765 58.164 409.569 57.956C409.309 57.904 408.919 57.852 408.399 57.8C407.879 57.748 407.489 57.8 407.229 57.956C406.657 58.32 406.163 59.75 405.747 62.246C405.383 64.69 405.201 67.992 405.201 72.152ZM433.411 89.858C433.203 89.858 432.813 89.65 432.241 89.234C431.669 88.818 431.123 88.35 430.603 87.83C430.083 87.31 429.823 86.946 429.823 86.738V59.672L426.703 58.502V53.978C426.703 53.978 427.197 53.9 428.185 53.744C429.173 53.536 430.343 53.354 431.695 53.198C433.099 52.99 434.373 52.808 435.517 52.652C436.713 52.444 437.441 52.34 437.701 52.34C437.857 52.34 438.169 52.574 438.637 53.042C439.105 53.458 439.547 53.926 439.963 54.446C440.379 54.966 440.587 55.304 440.587 55.46V57.488C441.211 57.02 441.939 56.5 442.771 55.928C443.603 55.304 444.383 54.732 445.111 54.212C445.839 53.692 446.463 53.25 446.983 52.886C447.555 52.522 447.919 52.34 448.075 52.34C450.571 52.34 452.729 52.704 454.549 53.432C456.369 54.16 457.747 55.408 458.683 57.176C459.619 58.892 460.087 61.258 460.087 64.274V82.526L463.207 83.774V88.22C463.207 88.22 462.713 88.298 461.725 88.454C460.737 88.61 459.567 88.792 458.215 89C456.863 89.26 455.641 89.468 454.549 89.624C453.457 89.78 452.781 89.858 452.521 89.858C452.313 89.858 451.923 89.65 451.351 89.234C450.779 88.818 450.233 88.35 449.713 87.83C449.193 87.31 448.933 86.946 448.933 86.738V64.43C448.933 63.078 448.725 62.116 448.309 61.544C447.945 60.972 447.529 60.634 447.061 60.53C446.593 60.374 446.203 60.296 445.891 60.296C445.787 60.296 445.449 60.4 444.877 60.608C444.357 60.816 443.759 61.076 443.083 61.388C442.407 61.7 441.705 62.012 440.977 62.324V82.604L444.097 83.774V88.22C444.097 88.22 443.603 88.324 442.615 88.532C441.679 88.688 440.535 88.87 439.183 89.078C437.883 89.286 436.661 89.468 435.517 89.624C434.373 89.78 433.671 89.858 433.411 89.858ZM478.564 89.858C475.756 89.858 473.494 89.364 471.778 88.376C470.114 87.388 468.866 86.036 468.034 84.32C467.254 82.604 466.864 80.706 466.864 78.626C466.864 77.43 466.968 76.208 467.176 74.96C467.436 73.712 467.8 72.464 468.268 71.216L478.174 75.038C478.018 75.454 477.888 75.948 477.784 76.52C477.68 77.092 477.628 77.638 477.628 78.158C477.628 79.146 477.81 80.082 478.174 80.966C478.59 81.798 479.292 82.214 480.28 82.214C480.748 82.214 481.294 82.084 481.918 81.824C482.542 81.512 483.218 81.148 483.946 80.732C484.726 80.264 485.506 79.796 486.286 79.328V84.008C485.402 84.684 484.388 85.49 483.244 86.426C482.1 87.362 481.086 88.168 480.202 88.844C479.318 89.52 478.772 89.858 478.564 89.858ZM468.268 71.216L485.506 69.188V73.868L477.238 75.818L468.268 71.216ZM469.048 59.906L470.92 52.808C472.584 52.652 474.3 52.548 476.068 52.496C477.836 52.392 479.578 52.34 481.294 52.34C483.01 52.34 484.544 52.47 485.896 52.73C486.676 52.834 487.638 53.354 488.782 54.29C489.926 55.174 491.044 56.24 492.136 57.488C493.28 58.684 494.216 59.906 494.944 61.154C495.672 62.402 496.036 63.416 496.036 64.196V82.682L499.234 83.852V88.298C497.986 88.506 496.556 88.74 494.944 89C493.384 89.26 491.98 89.468 490.732 89.624C489.484 89.78 488.652 89.858 488.236 89.858C488.08 89.858 487.768 89.65 487.3 89.234C486.832 88.818 486.39 88.376 485.974 87.908C485.558 87.388 485.35 87.024 485.35 86.816V84.398L484.882 83.774V65.678C484.882 64.17 484.648 63.13 484.18 62.558C483.764 61.934 482.88 61.596 481.528 61.544C480.54 61.44 479.37 61.388 478.018 61.388C476.666 61.388 475.288 61.414 473.884 61.466C472.532 61.518 471.31 61.57 470.218 61.622L469.048 59.906Z" fill="#5B8C00"/>
<path d="M5.226 56.126C5.746 55.19 6.5 54.15 7.488 53.006C8.528 51.81 9.698 50.64 10.998 49.496C12.35 48.3 13.728 47.26 15.132 46.376H18.408C17.992 47.26 17.654 48.352 17.394 49.652C17.186 50.952 17.03 52.746 16.926 55.034C16.874 57.322 16.822 60.442 16.77 64.394C16.77 68.346 16.77 73.442 16.77 79.682L22.23 81.164L19.812 85.844C18.876 85.948 17.81 86.078 16.614 86.234C15.418 86.39 14.248 86.52 13.104 86.624C12.012 86.78 11.05 86.858 10.218 86.858C9.386 86.91 8.84 86.91 8.58 86.858C8.008 86.702 7.462 86.39 6.942 85.922C6.474 85.454 6.058 84.96 5.694 84.44C5.382 83.868 5.174 83.452 5.07 83.192C5.174 81.216 5.382 79.292 5.694 77.42C6.006 75.548 6.162 73.442 6.162 71.102C6.162 69.23 6.032 67.488 5.772 65.876C5.564 64.212 5.382 62.6 5.226 61.04C5.122 59.428 5.122 57.79 5.226 56.126ZM20.904 62.444L32.916 61.898V67.748L20.904 67.124V62.444ZM24.18 46.142V76.718C24.18 77.03 23.998 77.602 23.634 78.434C23.27 79.214 22.802 80.124 22.23 81.164H19.968V46.142H24.18ZM3.198 44.27L3.822 36.08C7.098 36.34 10.478 36.652 13.962 37.016C17.498 37.328 20.904 37.692 24.18 38.108C27.456 38.472 30.342 38.81 32.838 39.122C35.386 39.434 37.258 39.72 38.454 39.98C38.61 40.032 38.896 40.292 39.312 40.76C39.78 41.176 40.274 41.696 40.794 42.32C41.366 42.944 41.834 43.542 42.198 44.114C42.614 44.634 42.822 44.998 42.822 45.206V79.526L46.956 81.164V85.844C45.968 85.948 44.85 86.078 43.602 86.234C42.354 86.39 41.106 86.52 39.858 86.624C38.61 86.78 37.518 86.884 36.582 86.936C35.646 86.988 35.048 86.962 34.788 86.858C34.268 86.702 33.748 86.39 33.228 85.922C32.708 85.402 32.266 84.882 31.902 84.362C31.59 83.842 31.382 83.452 31.278 83.192V48.872L17.16 46.844L14.274 47L14.118 46.532L3.198 44.27ZM57.0923 86.858C56.8843 86.858 56.4943 86.65 55.9223 86.234C55.3503 85.818 54.8043 85.35 54.2843 84.83C53.7643 84.31 53.5043 83.946 53.5043 83.738V56.672L50.3843 55.502V50.978C50.3843 50.978 50.8783 50.9 51.8663 50.744C52.8543 50.536 54.0243 50.354 55.3763 50.198C56.7803 49.99 58.0543 49.808 59.1983 49.652C60.3943 49.444 61.1223 49.34 61.3823 49.34C61.5383 49.34 61.8503 49.574 62.3183 50.042C62.7863 50.458 63.2283 50.926 63.6443 51.446C64.0603 51.966 64.2683 52.304 64.2683 52.46V54.488C64.8923 54.02 65.6203 53.5 66.4523 52.928C67.2843 52.304 68.0643 51.732 68.7923 51.212C69.5203 50.692 70.1443 50.25 70.6643 49.886C71.2363 49.522 71.6003 49.34 71.7563 49.34C74.2523 49.34 76.4103 49.704 78.2303 50.432C80.0503 51.16 81.4283 52.408 82.3643 54.176C83.3003 55.892 83.7683 58.258 83.7683 61.274V79.526L86.8883 80.774V85.22C86.8883 85.22 86.3943 85.298 85.4063 85.454C84.4183 85.61 83.2483 85.792 81.8963 86C80.5443 86.26 79.3223 86.468 78.2303 86.624C77.1383 86.78 76.4623 86.858 76.2023 86.858C75.9943 86.858 75.6043 86.65 75.0323 86.234C74.4603 85.818 73.9143 85.35 73.3943 84.83C72.8743 84.31 72.6143 83.946 72.6143 83.738V61.43C72.6143 60.078 72.4063 59.116 71.9903 58.544C71.6263 57.972 71.2103 57.634 70.7423 57.53C70.2743 57.374 69.8843 57.296 69.5723 57.296C69.4683 57.296 69.1303 57.4 68.5583 57.608C68.0383 57.816 67.4403 58.076 66.7643 58.388C66.0883 58.7 65.3863 59.012 64.6583 59.324V79.604L67.7783 80.774V85.22C67.7783 85.22 67.2843 85.324 66.2963 85.532C65.3603 85.688 64.2163 85.87 62.8643 86.078C61.5643 86.286 60.3423 86.468 59.1983 86.624C58.0543 86.78 57.3523 86.858 57.0923 86.858ZM100.061 86.858C99.6452 86.858 99.0732 86.598 98.3452 86.078C97.6692 85.558 96.9672 84.908 96.2392 84.128C95.5632 83.348 94.9912 82.568 94.5232 81.788C94.0552 80.956 93.8212 80.254 93.8212 79.682V56.126H88.2052V52.07L93.8212 49.886L100.763 41.618C101.283 41.566 101.907 41.696 102.635 42.008C103.415 42.268 104.195 42.528 104.975 42.788V50.354H112.775V56.36H104.975V76.406C104.975 77.602 105.105 78.434 105.365 78.902C105.677 79.318 106.119 79.526 106.691 79.526L113.633 79.916V85.376C112.489 85.532 111.189 85.714 109.733 85.922C108.329 86.078 106.951 86.208 105.599 86.312C104.247 86.468 103.051 86.598 102.011 86.702C101.023 86.806 100.373 86.858 100.061 86.858ZM134.616 86.858C128.792 86.858 124.294 85.506 121.122 82.802C117.95 80.046 116.364 75.73 116.364 69.854C116.364 67.566 116.546 65.304 116.91 63.068C117.326 60.832 117.794 59.142 118.314 57.998C118.834 57.374 119.744 56.594 121.044 55.658C122.344 54.67 123.748 53.708 125.256 52.772C126.816 51.836 128.246 51.03 129.546 50.354C130.898 49.678 131.86 49.34 132.432 49.34C138.36 49.34 142.832 50.822 145.848 53.786C148.864 56.698 150.372 60.858 150.372 66.266C150.372 68.866 150.164 71.258 149.748 73.442C149.332 75.626 148.89 77.316 148.422 78.512C147.902 79.136 147.018 79.916 145.77 80.852C144.522 81.736 143.144 82.646 141.636 83.582C140.128 84.518 138.724 85.298 137.424 85.922C136.124 86.546 135.188 86.858 134.616 86.858ZM134.694 81.164C134.85 81.112 135.162 81.008 135.63 80.852C136.098 80.644 136.54 80.436 136.956 80.228C137.372 80.02 137.58 79.916 137.58 79.916C137.788 78.72 137.996 77.134 138.204 75.158C138.412 73.182 138.516 70.608 138.516 67.436C138.516 65.252 138.308 63.224 137.892 61.352C137.528 59.48 136.878 57.972 135.942 56.828C135.006 55.632 133.732 55.034 132.12 55.034C131.808 55.034 131.496 55.06 131.184 55.112C130.872 55.112 130.534 55.19 130.17 55.346C129.65 55.554 129.182 56.854 128.766 59.246C128.402 61.638 128.22 64.784 128.22 68.684C128.22 72.064 128.532 74.664 129.156 76.484C129.832 78.252 130.664 79.474 131.652 80.15C132.692 80.826 133.706 81.164 134.694 81.164ZM160.686 86.858C160.478 86.858 160.088 86.65 159.516 86.234C158.944 85.818 158.398 85.35 157.878 84.83C157.358 84.31 157.098 83.946 157.098 83.738V56.672L153.978 55.502V50.978C153.978 50.978 154.472 50.9 155.46 50.744C156.448 50.536 157.618 50.354 158.97 50.198C160.374 49.99 161.648 49.808 162.792 49.652C163.988 49.444 164.716 49.34 164.976 49.34C165.132 49.34 165.444 49.574 165.912 50.042C166.38 50.458 166.822 50.926 167.238 51.446C167.654 51.966 167.862 52.304 167.862 52.46V54.488C168.486 54.02 169.214 53.5 170.046 52.928C170.878 52.304 171.658 51.732 172.386 51.212C173.114 50.692 173.738 50.25 174.258 49.886C174.83 49.522 175.194 49.34 175.35 49.34C177.846 49.34 180.004 49.704 181.824 50.432C183.644 51.16 185.022 52.408 185.958 54.176C186.894 55.892 187.362 58.258 187.362 61.274V79.526L190.482 80.774V85.22C190.482 85.22 189.988 85.298 189 85.454C188.012 85.61 186.842 85.792 185.49 86C184.138 86.26 182.916 86.468 181.824 86.624C180.732 86.78 180.056 86.858 179.796 86.858C179.588 86.858 179.198 86.65 178.626 86.234C178.054 85.818 177.508 85.35 176.988 84.83C176.468 84.31 176.208 83.946 176.208 83.738V61.43C176.208 60.078 176 59.116 175.584 58.544C175.22 57.972 174.804 57.634 174.336 57.53C173.868 57.374 173.478 57.296 173.166 57.296C173.062 57.296 172.724 57.4 172.152 57.608C171.632 57.816 171.034 58.076 170.358 58.388C169.682 58.7 168.98 59.012 168.252 59.324V79.604L171.372 80.774V85.22C171.372 85.22 170.878 85.324 169.89 85.532C168.954 85.688 167.81 85.87 166.458 86.078C165.158 86.286 163.936 86.468 162.792 86.624C161.648 86.78 160.946 86.858 160.686 86.858ZM200.223 86.858C200.067 86.858 199.677 86.624 199.053 86.156C198.429 85.74 197.831 85.272 197.259 84.752C196.739 84.232 196.479 83.868 196.479 83.66V56.516L193.359 55.502V50.978C193.359 50.978 193.853 50.9 194.841 50.744C195.881 50.588 197.103 50.406 198.507 50.198C199.911 49.99 201.185 49.808 202.329 49.652C203.525 49.444 204.253 49.34 204.513 49.34C204.721 49.34 205.059 49.574 205.527 50.042C206.047 50.458 206.515 50.952 206.931 51.524C207.399 52.044 207.633 52.408 207.633 52.616V79.76L210.753 80.774V85.22C210.753 85.22 210.285 85.324 209.349 85.532C208.413 85.688 207.269 85.87 205.917 86.078C204.617 86.286 203.421 86.468 202.329 86.624C201.237 86.78 200.535 86.858 200.223 86.858ZM195.699 36.548C195.699 36.444 196.011 36.106 196.635 35.534C197.311 34.962 198.065 34.338 198.897 33.662C199.781 32.934 200.561 32.31 201.237 31.79C201.913 31.27 202.329 31.01 202.485 31.01C202.797 31.01 203.291 31.322 203.967 31.946C204.695 32.518 205.423 33.22 206.151 34.052C206.879 34.884 207.503 35.664 208.023 36.392C208.595 37.068 208.855 37.536 208.803 37.796L208.257 39.902C208.205 40.11 207.867 40.5 207.243 41.072C206.619 41.644 205.891 42.268 205.059 42.944C204.279 43.568 203.525 44.114 202.797 44.582C202.069 45.05 201.601 45.284 201.393 45.284C201.133 45.284 200.665 44.998 199.989 44.426C199.313 43.802 198.611 43.1 197.883 42.32C197.155 41.488 196.531 40.708 196.011 39.98C195.543 39.252 195.335 38.784 195.387 38.576L195.699 36.548ZM232.573 86.858C226.749 86.858 222.251 85.506 219.079 82.802C215.907 80.046 214.321 75.73 214.321 69.854C214.321 67.566 214.503 65.304 214.867 63.068C215.283 60.832 215.751 59.142 216.271 57.998C216.791 57.374 217.701 56.594 219.001 55.658C220.301 54.67 221.705 53.708 223.213 52.772C224.773 51.836 226.203 51.03 227.503 50.354C228.855 49.678 229.817 49.34 230.389 49.34C236.317 49.34 240.789 50.822 243.805 53.786C246.821 56.698 248.329 60.858 248.329 66.266C248.329 68.866 248.121 71.258 247.705 73.442C247.289 75.626 246.847 77.316 246.379 78.512C245.859 79.136 244.975 79.916 243.727 80.852C242.479 81.736 241.101 82.646 239.593 83.582C238.085 84.518 236.681 85.298 235.381 85.922C234.081 86.546 233.145 86.858 232.573 86.858ZM232.651 81.164C232.807 81.112 233.119 81.008 233.587 80.852C234.055 80.644 234.497 80.436 234.913 80.228C235.329 80.02 235.537 79.916 235.537 79.916C235.745 78.72 235.953 77.134 236.161 75.158C236.369 73.182 236.473 70.608 236.473 67.436C236.473 65.252 236.265 63.224 235.849 61.352C235.485 59.48 234.835 57.972 233.899 56.828C232.963 55.632 231.689 55.034 230.077 55.034C229.765 55.034 229.453 55.06 229.141 55.112C228.829 55.112 228.491 55.19 228.127 55.346C227.607 55.554 227.139 56.854 226.723 59.246C226.359 61.638 226.177 64.784 226.177 68.684C226.177 72.064 226.489 74.664 227.113 76.484C227.789 78.252 228.621 79.474 229.609 80.15C230.649 80.826 231.663 81.164 232.651 81.164ZM268.552 56.126C269.072 55.19 269.826 54.15 270.814 53.006C271.854 51.81 273.024 50.64 274.324 49.496C275.676 48.3 277.054 47.26 278.458 46.376H281.734C281.318 47.26 280.98 48.352 280.72 49.652C280.512 50.952 280.356 52.746 280.252 55.034C280.2 57.322 280.148 60.442 280.096 64.394C280.096 68.346 280.096 73.442 280.096 79.682L285.556 81.164L283.138 85.844C282.202 85.948 281.136 86.078 279.94 86.234C278.744 86.39 277.574 86.52 276.43 86.624C275.338 86.78 274.376 86.858 273.544 86.858C272.712 86.91 272.166 86.91 271.906 86.858C271.334 86.702 270.788 86.39 270.268 85.922C269.8 85.454 269.384 84.96 269.02 84.44C268.708 83.868 268.5 83.452 268.396 83.192C268.5 81.216 268.708 79.292 269.02 77.42C269.332 75.548 269.488 73.442 269.488 71.102C269.488 69.23 269.358 67.488 269.098 65.876C268.89 64.212 268.708 62.6 268.552 61.04C268.448 59.428 268.448 57.79 268.552 56.126ZM284.23 62.444L296.242 61.898V67.748L284.23 67.124V62.444ZM287.506 46.142V76.718C287.506 77.03 287.324 77.602 286.96 78.434C286.596 79.214 286.128 80.124 285.556 81.164H283.294V46.142H287.506ZM266.524 44.27L267.148 36.08C270.424 36.34 273.804 36.652 277.288 37.016C280.824 37.328 284.23 37.692 287.506 38.108C290.782 38.472 293.668 38.81 296.164 39.122C298.712 39.434 300.584 39.72 301.78 39.98C301.936 40.032 302.222 40.292 302.638 40.76C303.106 41.176 303.6 41.696 304.12 42.32C304.692 42.944 305.16 43.542 305.524 44.114C305.94 44.634 306.148 44.998 306.148 45.206V79.526L310.282 81.164V85.844C309.294 85.948 308.176 86.078 306.928 86.234C305.68 86.39 304.432 86.52 303.184 86.624C301.936 86.78 300.844 86.884 299.908 86.936C298.972 86.988 298.374 86.962 298.114 86.858C297.594 86.702 297.074 86.39 296.554 85.922C296.034 85.402 295.592 84.882 295.228 84.362C294.916 83.842 294.708 83.452 294.604 83.192V48.872L280.486 46.844L277.6 47L277.444 46.532L266.524 44.27ZM319.717 86.858C319.509 86.858 319.119 86.65 318.547 86.234C317.975 85.818 317.429 85.35 316.909 84.83C316.441 84.31 316.207 83.946 316.207 83.738V41.93L313.009 40.76V36.236C313.009 36.236 313.347 36.184 314.023 36.08C314.699 35.976 315.557 35.846 316.597 35.69C317.689 35.534 318.781 35.378 319.873 35.222C320.965 35.066 321.927 34.936 322.759 34.832C323.591 34.728 324.137 34.676 324.397 34.676C324.605 34.676 324.917 34.884 325.333 35.3C325.801 35.716 326.243 36.184 326.659 36.704C327.127 37.172 327.361 37.51 327.361 37.718V79.604L330.403 80.774V85.22C330.403 85.22 329.909 85.324 328.921 85.532C327.985 85.688 326.841 85.87 325.489 86.078C324.189 86.286 322.967 86.468 321.823 86.624C320.679 86.78 319.977 86.858 319.717 86.858ZM339.995 86.858C339.787 86.858 339.397 86.65 338.825 86.234C338.253 85.818 337.707 85.35 337.187 84.83C336.667 84.31 336.407 83.946 336.407 83.738V56.75L333.287 55.58V51.056C333.287 51.056 333.781 50.978 334.769 50.822C335.757 50.614 336.927 50.406 338.279 50.198C339.683 49.99 340.957 49.808 342.101 49.652C343.297 49.444 344.025 49.34 344.285 49.34C344.441 49.34 344.753 49.574 345.221 50.042C345.689 50.458 346.131 50.926 346.547 51.446C346.963 51.966 347.171 52.33 347.171 52.538V54.566C347.743 54.098 348.367 53.578 349.043 53.006C349.771 52.382 350.473 51.81 351.149 51.29C351.877 50.718 352.475 50.25 352.943 49.886C353.411 49.522 353.723 49.34 353.879 49.34C356.479 49.34 358.715 49.756 360.587 50.588C362.511 51.368 363.915 52.694 364.799 54.566C365.371 54.098 365.969 53.578 366.593 53.006C367.269 52.382 367.919 51.81 368.543 51.29C369.219 50.718 369.791 50.25 370.259 49.886C370.727 49.522 371.013 49.34 371.117 49.34C373.925 49.34 376.291 49.704 378.215 50.432C380.139 51.16 381.595 52.408 382.583 54.176C383.623 55.892 384.143 58.284 384.143 61.352V79.604L387.263 80.774V85.22C387.263 85.22 386.769 85.298 385.781 85.454C384.793 85.61 383.623 85.792 382.271 86C380.919 86.26 379.697 86.468 378.605 86.624C377.513 86.78 376.837 86.858 376.577 86.858C376.421 86.858 376.031 86.65 375.407 86.234C374.835 85.818 374.289 85.35 373.769 84.83C373.249 84.31 372.989 83.946 372.989 83.738V61.508C372.989 60.468 372.859 59.688 372.599 59.168C372.391 58.596 372.105 58.18 371.741 57.92C371.377 57.66 371.013 57.504 370.649 57.452C370.337 57.348 370.077 57.296 369.869 57.296C369.765 57.296 369.531 57.4 369.167 57.608C368.855 57.764 368.491 57.946 368.075 58.154C367.659 58.362 367.243 58.596 366.827 58.856C366.463 59.064 366.151 59.22 365.891 59.324V79.604L368.777 80.774V85.22C368.777 85.22 368.283 85.298 367.295 85.454C366.359 85.61 365.241 85.792 363.941 86C362.641 86.26 361.445 86.468 360.353 86.624C359.261 86.78 358.585 86.858 358.325 86.858C358.169 86.858 357.779 86.65 357.155 86.234C356.583 85.818 356.037 85.35 355.517 84.83C354.997 84.31 354.737 83.946 354.737 83.738V61.508C354.737 60.156 354.529 59.194 354.113 58.622C353.749 58.05 353.307 57.686 352.787 57.53C352.319 57.374 351.955 57.296 351.695 57.296C351.591 57.296 351.357 57.4 350.993 57.608C350.681 57.764 350.291 57.946 349.823 58.154C349.407 58.362 348.991 58.596 348.575 58.856C348.159 59.064 347.821 59.22 347.561 59.324V79.604L350.447 80.774V85.22C350.447 85.22 349.953 85.298 348.965 85.454C348.029 85.61 346.911 85.792 345.611 86C344.311 86.26 343.115 86.468 342.023 86.624C340.931 86.78 340.255 86.858 339.995 86.858ZM402.201 69.152C402.201 71.44 402.461 73.312 402.981 74.768C403.553 76.224 404.255 77.29 405.087 77.966C405.919 78.642 406.803 78.98 407.739 78.98C407.791 78.98 408.259 78.954 409.143 78.902C410.079 78.85 411.197 78.798 412.497 78.746C413.797 78.694 415.071 78.642 416.319 78.59C417.567 78.538 418.581 78.486 419.361 78.434V83.114C418.633 83.322 417.593 83.66 416.241 84.128C414.889 84.544 413.485 84.96 412.029 85.376C410.573 85.792 409.247 86.13 408.051 86.39C406.907 86.702 406.101 86.858 405.633 86.858C402.669 86.858 400.043 86.208 397.755 84.908C395.519 83.608 393.777 81.71 392.529 79.214C391.333 76.718 390.735 73.702 390.735 70.166C390.735 67.67 390.917 65.304 391.281 63.068C391.697 60.78 392.165 59.038 392.685 57.842C393.205 57.218 394.089 56.438 395.337 55.502C396.637 54.566 398.041 53.63 399.549 52.694C401.109 51.758 402.539 50.978 403.839 50.354C405.139 49.678 406.075 49.34 406.647 49.34C409.663 49.34 412.211 49.886 414.291 50.978C416.423 52.018 418.009 53.916 419.049 56.672C420.141 59.428 420.635 63.38 420.531 68.528L397.833 70.946V66.344L409.767 64.16C409.819 61.456 409.585 59.298 409.065 57.686C408.597 56.074 407.765 55.164 406.569 54.956C406.309 54.904 405.919 54.852 405.399 54.8C404.879 54.748 404.489 54.8 404.229 54.956C403.657 55.32 403.163 56.75 402.747 59.246C402.383 61.69 402.201 64.992 402.201 69.152ZM430.411 86.858C430.203 86.858 429.813 86.65 429.241 86.234C428.669 85.818 428.123 85.35 427.603 84.83C427.083 84.31 426.823 83.946 426.823 83.738V56.672L423.703 55.502V50.978C423.703 50.978 424.197 50.9 425.185 50.744C426.173 50.536 427.343 50.354 428.695 50.198C430.099 49.99 431.373 49.808 432.517 49.652C433.713 49.444 434.441 49.34 434.701 49.34C434.857 49.34 435.169 49.574 435.637 50.042C436.105 50.458 436.547 50.926 436.963 51.446C437.379 51.966 437.587 52.304 437.587 52.46V54.488C438.211 54.02 438.939 53.5 439.771 52.928C440.603 52.304 441.383 51.732 442.111 51.212C442.839 50.692 443.463 50.25 443.983 49.886C444.555 49.522 444.919 49.34 445.075 49.34C447.571 49.34 449.729 49.704 451.549 50.432C453.369 51.16 454.747 52.408 455.683 54.176C456.619 55.892 457.087 58.258 457.087 61.274V79.526L460.207 80.774V85.22C460.207 85.22 459.713 85.298 458.725 85.454C457.737 85.61 456.567 85.792 455.215 86C453.863 86.26 452.641 86.468 451.549 86.624C450.457 86.78 449.781 86.858 449.521 86.858C449.313 86.858 448.923 86.65 448.351 86.234C447.779 85.818 447.233 85.35 446.713 84.83C446.193 84.31 445.933 83.946 445.933 83.738V61.43C445.933 60.078 445.725 59.116 445.309 58.544C444.945 57.972 444.529 57.634 444.061 57.53C443.593 57.374 443.203 57.296 442.891 57.296C442.787 57.296 442.449 57.4 441.877 57.608C441.357 57.816 440.759 58.076 440.083 58.388C439.407 58.7 438.705 59.012 437.977 59.324V79.604L441.097 80.774V85.22C441.097 85.22 440.603 85.324 439.615 85.532C438.679 85.688 437.535 85.87 436.183 86.078C434.883 86.286 433.661 86.468 432.517 86.624C431.373 86.78 430.671 86.858 430.411 86.858ZM475.564 86.858C472.756 86.858 470.494 86.364 468.778 85.376C467.114 84.388 465.866 83.036 465.034 81.32C464.254 79.604 463.864 77.706 463.864 75.626C463.864 74.43 463.968 73.208 464.176 71.96C464.436 70.712 464.8 69.464 465.268 68.216L475.174 72.038C475.018 72.454 474.888 72.948 474.784 73.52C474.68 74.092 474.628 74.638 474.628 75.158C474.628 76.146 474.81 77.082 475.174 77.966C475.59 78.798 476.292 79.214 477.28 79.214C477.748 79.214 478.294 79.084 478.918 78.824C479.542 78.512 480.218 78.148 480.946 77.732C481.726 77.264 482.506 76.796 483.286 76.328V81.008C482.402 81.684 481.388 82.49 480.244 83.426C479.1 84.362 478.086 85.168 477.202 85.844C476.318 86.52 475.772 86.858 475.564 86.858ZM465.268 68.216L482.506 66.188V70.868L474.238 72.818L465.268 68.216ZM466.048 56.906L467.92 49.808C469.584 49.652 471.3 49.548 473.068 49.496C474.836 49.392 476.578 49.34 478.294 49.34C480.01 49.34 481.544 49.47 482.896 49.73C483.676 49.834 484.638 50.354 485.782 51.29C486.926 52.174 488.044 53.24 489.136 54.488C490.28 55.684 491.216 56.906 491.944 58.154C492.672 59.402 493.036 60.416 493.036 61.196V79.682L496.234 80.852V85.298C494.986 85.506 493.556 85.74 491.944 86C490.384 86.26 488.98 86.468 487.732 86.624C486.484 86.78 485.652 86.858 485.236 86.858C485.08 86.858 484.768 86.65 484.3 86.234C483.832 85.818 483.39 85.376 482.974 84.908C482.558 84.388 482.35 84.024 482.35 83.816V81.398L481.882 80.774V62.678C481.882 61.17 481.648 60.13 481.18 59.558C480.764 58.934 479.88 58.596 478.528 58.544C477.54 58.44 476.37 58.388 475.018 58.388C473.666 58.388 472.288 58.414 470.884 58.466C469.532 58.518 468.31 58.57 467.218 58.622L466.048 56.906Z" fill="#B5F5EC"/>
</svg>
