<svg width="512" height="80" viewBox="0 0 512 80" fill="none" xmlns="http://www.w3.org/2000/svg">
<path d="M3.01773 73.5294L23.0927 22.4294H37.3277L43.8247 73.5294H33.6777L30.1737 42.0664L30.1007 31.9194C30.1007 31.4814 29.9304 31.2381 29.5897 31.1894C29.2491 31.1407 29.0301 31.3111 28.9327 31.7004L13.3837 73.5294H3.01773ZM16.3767 61.2654L19.6617 52.7974H33.0207L33.8237 61.2654H16.3767ZM14.1137 30.8974L15.3547 22.4294H24.4797L22.2897 30.8974H14.1137ZM50.4409 73.5294L54.9669 40.8254L59.0549 48.7094L49.1269 43.8184L53.1419 35.7154L60.8799 39.5114C61.3666 39.7548 61.7803 39.7061 62.1209 39.3654L63.2159 38.1244C65.0653 37.0538 66.6713 36.3724 68.0339 36.0804C69.4453 35.7398 71.0999 35.5937 72.9979 35.6424C76.8913 35.6911 79.7869 36.9321 81.6849 39.3654C83.6316 41.7501 84.2886 45.0838 83.6559 49.3664L80.2979 73.5294H70.8079L74.2389 49.0014C74.4336 47.3954 74.1659 46.2031 73.4359 45.4244C72.7546 44.6458 71.7569 44.2564 70.4429 44.2564C69.6156 44.2564 68.8126 44.3781 68.0339 44.6214C67.3039 44.8161 66.4766 45.1568 65.5519 45.6434C64.6759 46.1301 63.6296 46.7628 62.4129 47.5414L64.0189 44.9134L59.9309 73.5294H50.4409ZM99.5283 73.4564C96.9976 73.4564 95.0023 72.6534 93.5423 71.0474C92.131 69.3928 91.5956 67.2758 91.9363 64.6964L94.7833 44.5484H88.2133L89.3813 36.4454H95.8783C96.1216 36.4454 96.3406 36.3968 96.5353 36.2994C96.73 36.1534 96.9246 35.8858 97.1193 35.4964C97.3626 35.0584 97.606 34.4744 97.8493 33.7444L100.404 26.4444H106.901L105.368 36.4454H114.201L112.96 44.5484H104.127L101.499 63.3094C101.402 63.9908 101.475 64.4774 101.718 64.7694C102.01 65.0128 102.448 65.1344 103.032 65.1344H109.237L108.069 73.4564H99.5283ZM129.158 74.4054C125.946 74.4054 123.293 73.6998 121.201 72.2884C119.108 70.8771 117.526 69.1008 116.456 66.9594C115.434 64.7694 114.923 62.4821 114.923 60.0974C114.923 58.7834 115.02 57.3721 115.215 55.8634C115.409 54.3548 115.653 52.8461 115.945 51.3374C116.237 49.8288 116.602 48.4418 117.04 47.1764C118.159 43.7698 120.081 40.9958 122.807 38.8544C125.581 36.7131 129.109 35.6424 133.392 35.6424C136.701 35.6424 139.402 36.3237 141.495 37.6864C143.587 39.0491 145.145 40.8254 146.167 43.0154C147.237 45.2054 147.773 47.4928 147.773 49.8774C147.773 51.1914 147.675 52.6271 147.481 54.1844C147.335 55.6931 147.091 57.1774 146.751 58.6374C146.459 60.0974 146.094 61.4601 145.656 62.7254C144.536 66.1808 142.59 69.0034 139.816 71.1934C137.042 73.3348 133.489 74.4054 129.158 74.4054ZM129.815 66.4484C131.567 66.4484 133.051 65.9374 134.268 64.9154C135.484 63.8448 136.409 62.4578 137.042 60.7544C137.334 59.9758 137.601 58.9781 137.845 57.7614C138.137 56.4961 138.356 55.2064 138.502 53.8924C138.648 52.5784 138.721 51.4104 138.721 50.3884C138.721 48.4418 138.21 46.8114 137.188 45.4974C136.214 44.1834 134.73 43.5264 132.735 43.5264C130.983 43.5264 129.523 44.0618 128.355 45.1324C127.187 46.1544 126.286 47.5171 125.654 49.2204C125.41 49.9504 125.143 50.9238 124.851 52.1404C124.607 53.3084 124.413 54.5494 124.267 55.8634C124.121 57.1774 124.048 58.4184 124.048 59.5864C124.048 61.5818 124.51 63.2364 125.435 64.5504C126.359 65.8158 127.819 66.4484 129.815 66.4484ZM152.781 73.5294L157.307 40.8254L161.395 48.7094L151.467 43.8184L155.482 35.7154L163.22 39.5114C163.706 39.7548 164.12 39.7061 164.461 39.3654L165.556 38.1244C167.405 37.0538 169.011 36.3724 170.374 36.0804C171.785 35.7398 173.44 35.5937 175.338 35.6424C179.231 35.6911 182.127 36.9321 184.025 39.3654C185.971 41.7501 186.628 45.0838 185.996 49.3664L182.638 73.5294H173.148L176.579 49.0014C176.773 47.3954 176.506 46.2031 175.776 45.4244C175.094 44.6458 174.097 44.2564 172.783 44.2564C171.955 44.2564 171.152 44.3781 170.374 44.6214C169.644 44.8161 168.816 45.1568 167.892 45.6434C167.016 46.1301 165.969 46.7628 164.753 47.5414L166.359 44.9134L162.271 73.5294H152.781ZM193.108 73.5294L197.123 44.5484H190.918L192.086 36.4454H208L202.817 73.5294H193.108ZM199.094 30.9704L200.335 22.4294H209.971L208.73 30.9704H199.094ZM225.937 74.4054C222.725 74.4054 220.073 73.6998 217.98 72.2884C215.887 70.8771 214.306 69.1008 213.235 66.9594C212.213 64.7694 211.702 62.4821 211.702 60.0974C211.702 58.7834 211.799 57.3721 211.994 55.8634C212.189 54.3548 212.432 52.8461 212.724 51.3374C213.016 49.8288 213.381 48.4418 213.819 47.1764C214.938 43.7698 216.861 40.9958 219.586 38.8544C222.36 36.7131 225.888 35.6424 230.171 35.6424C233.48 35.6424 236.181 36.3237 238.274 37.6864C240.367 39.0491 241.924 40.8254 242.946 43.0154C244.017 45.2054 244.552 47.4928 244.552 49.8774C244.552 51.1914 244.455 52.6271 244.26 54.1844C244.114 55.6931 243.871 57.1774 243.53 58.6374C243.238 60.0974 242.873 61.4601 242.435 62.7254C241.316 66.1808 239.369 69.0034 236.595 71.1934C233.821 73.3348 230.268 74.4054 225.937 74.4054ZM226.594 66.4484C228.346 66.4484 229.83 65.9374 231.047 64.9154C232.264 63.8448 233.188 62.4578 233.821 60.7544C234.113 59.9758 234.381 58.9781 234.624 57.7614C234.916 56.4961 235.135 55.2064 235.281 53.8924C235.427 52.5784 235.5 51.4104 235.5 50.3884C235.5 48.4418 234.989 46.8114 233.967 45.4974C232.994 44.1834 231.509 43.5264 229.514 43.5264C227.762 43.5264 226.302 44.0618 225.134 45.1324C223.966 46.1544 223.066 47.5171 222.433 49.2204C222.19 49.9504 221.922 50.9238 221.63 52.1404C221.387 53.3084 221.192 54.5494 221.046 55.8634C220.9 57.1774 220.827 58.4184 220.827 59.5864C220.827 61.5818 221.289 63.2364 222.214 64.5504C223.139 65.8158 224.599 66.4484 226.594 66.4484ZM264.09 73.5294L284.165 22.4294H298.4L304.897 73.5294H294.75L291.246 42.0664L291.173 31.9194C291.173 31.4814 291.002 31.2381 290.662 31.1894C290.321 31.1407 290.102 31.3111 290.005 31.7004L274.456 73.5294H264.09ZM277.449 61.2654L280.734 52.7974H294.093L294.896 61.2654H277.449ZM275.186 30.8974L276.427 22.4294H285.552L283.362 30.8974H275.186ZM318.959 73.4564C316.428 73.4564 314.433 72.6291 312.973 70.9744C311.513 69.3198 310.953 67.2271 311.294 64.6964L317.791 18.7794H327.208L320.857 63.3094C320.76 63.9908 320.833 64.4774 321.076 64.7694C321.368 65.0128 321.806 65.1344 322.39 65.1344H325.894L324.726 73.4564H318.959ZM331.582 73.5294L335.962 41.8474L339.539 48.3444L330.268 43.8184L334.283 35.7154L342.021 39.5114C342.508 39.7548 342.922 39.7061 343.262 39.3654L344.357 38.1244C346.255 37.1024 347.886 36.4211 349.248 36.0804C350.66 35.7398 352.314 35.5937 354.212 35.6424C356.159 35.6911 357.814 36.0561 359.176 36.7374C360.588 37.4188 361.756 38.2704 362.68 39.2924C363.07 39.6818 363.483 39.6331 363.921 39.1464L365.016 37.9054C366.282 37.2727 367.401 36.7861 368.374 36.4454C369.348 36.1047 370.321 35.8857 371.294 35.7884C372.268 35.6424 373.363 35.5937 374.579 35.6424C377.11 35.6911 379.227 36.2994 380.93 37.4674C382.682 38.5868 383.923 40.1684 384.653 42.2124C385.432 44.2078 385.627 46.5438 385.237 49.2204L381.806 73.5294H372.316L375.747 48.9284C375.991 47.3711 375.747 46.2031 375.017 45.4244C374.336 44.6458 373.314 44.2564 371.951 44.2564C371.075 44.2564 370.151 44.4268 369.177 44.7674C368.204 45.1081 367.085 45.6678 365.819 46.4464C364.554 47.1764 362.972 48.1984 361.074 49.5124L365.527 44.5484L361.439 73.5294H351.949L355.38 48.8554C355.575 47.3468 355.332 46.2031 354.65 45.4244C353.969 44.6458 352.947 44.2564 351.584 44.2564C350.611 44.2564 349.638 44.4511 348.664 44.8404C347.74 45.1811 346.645 45.7164 345.379 46.4464C344.163 47.1764 342.605 48.1254 340.707 49.2934L345.525 42.1394L341.072 73.5294H331.582ZM404.562 74.2594C401.448 74.2594 398.82 73.6511 396.678 72.4344C394.537 71.1691 392.907 69.4658 391.787 67.3244C390.717 65.1344 390.181 62.6768 390.181 59.9514C390.181 58.1021 390.303 56.3501 390.546 54.6954C390.838 52.9921 391.203 51.4104 391.641 49.9504C392.42 46.7871 393.588 44.1591 395.145 42.0664C396.751 39.9737 398.674 38.3921 400.912 37.3214C403.2 36.2508 405.779 35.7154 408.65 35.7154C411.376 35.7154 413.663 36.1778 415.512 37.1024C417.362 37.9784 418.797 39.1951 419.819 40.7524C420.89 42.3098 421.571 44.1348 421.863 46.2274C422.155 48.2714 422.107 50.4614 421.717 52.7974L419.308 57.3234H397.408L398.284 50.6074H413.468C414.052 48.2714 413.882 46.4708 412.957 45.2054C412.033 43.9401 410.548 43.3074 408.504 43.3074C406.363 43.3074 404.562 44.0861 403.102 45.6434C401.691 47.2008 400.669 49.3664 400.036 52.1404C399.842 53.1624 399.647 54.2574 399.452 55.4254C399.306 56.5934 399.185 57.9804 399.087 59.5864C398.99 61.8251 399.525 63.5528 400.693 64.7694C401.91 65.9374 403.419 66.5214 405.219 66.5214C406.485 66.5214 407.701 66.2051 408.869 65.5724C410.086 64.9398 411.254 63.8934 412.373 62.4334L419.454 65.9374C417.508 69.1008 415.22 71.2908 412.592 72.5074C409.964 73.6754 407.288 74.2594 404.562 74.2594ZM426.613 73.5294L431.139 40.8254L435.227 48.7094L425.299 43.8184L429.314 35.7154L437.052 39.5114C437.539 39.7548 437.953 39.7061 438.293 39.3654L439.388 38.1244C441.238 37.0538 442.844 36.3724 444.206 36.0804C445.618 35.7398 447.272 35.5937 449.17 35.6424C453.064 35.6911 455.959 36.9321 457.857 39.3654C459.804 41.7501 460.461 45.0838 459.828 49.3664L456.47 73.5294H446.98L450.411 49.0014C450.606 47.3954 450.338 46.2031 449.608 45.4244C448.927 44.6458 447.929 44.2564 446.615 44.2564C445.788 44.2564 444.985 44.3781 444.206 44.6214C443.476 44.8161 442.649 45.1568 441.724 45.6434C440.848 46.1301 439.802 46.7628 438.585 47.5414L440.191 44.9134L436.103 73.5294H426.613ZM477.453 74.1864C476.041 74.1864 474.581 73.9674 473.073 73.5294C471.613 73.1401 470.25 72.4588 468.985 71.4854C467.768 70.4634 466.77 69.1008 465.992 67.3974C465.213 65.6941 464.824 63.5771 464.824 61.0464C464.824 58.3211 465.091 55.6201 465.627 52.9434C466.162 50.2181 466.989 47.7361 468.109 45.4974C469.812 42.3341 472.026 39.9251 474.752 38.2704C477.477 36.5671 480.592 35.7154 484.096 35.7154C484.68 35.7154 485.264 35.7398 485.848 35.7884C486.432 35.7884 487.113 35.8371 487.892 35.9344L490.593 36.8104C490.885 36.9077 491.274 36.9321 491.761 36.8834L498.331 36.1534L494.535 64.1124L498.988 66.3024L494.827 74.2594L487.381 70.6094C486.943 70.4148 486.602 70.4634 486.359 70.7554L485.118 72.1424C483.901 72.6291 482.879 73.0428 482.052 73.3834C481.273 73.6754 480.519 73.8701 479.789 73.9674C479.107 74.1134 478.329 74.1864 477.453 74.1864ZM478.913 65.7184C479.399 65.7184 479.886 65.6454 480.373 65.4994C480.908 65.3534 481.541 65.1101 482.271 64.7694C483.049 64.3801 484.047 63.8448 485.264 63.1634L487.892 44.1104C486.529 43.8671 485.288 43.7454 484.169 43.7454C482.368 43.7454 480.738 44.1591 479.278 44.9864C477.818 45.8138 476.723 47.0304 475.993 48.6364C475.214 50.2424 474.654 52.0188 474.314 53.9654C473.973 55.8634 473.803 57.9804 473.803 60.3164C473.803 62.2144 474.289 63.6014 475.263 64.4774C476.236 65.3048 477.453 65.7184 478.913 65.7184Z" fill="#5B8C00"/>
<path d="M0.832 70L20.907 18.9H35.142L41.639 70H31.492L27.988 38.537L27.915 28.39C27.915 27.952 27.7447 27.7087 27.404 27.66C27.0633 27.6113 26.8443 27.7817 26.747 28.171L11.198 70H0.832ZM14.191 57.736L17.476 49.268H30.835L31.638 57.736H14.191ZM11.928 27.368L13.169 18.9H22.294L20.104 27.368H11.928ZM48.2552 70L52.7812 37.296L56.8692 45.18L46.9412 40.289L50.9562 32.186L58.6942 35.982C59.1809 36.2253 59.5945 36.1767 59.9352 35.836L61.0302 34.595C62.8795 33.5243 64.4855 32.843 65.8482 32.551C67.2595 32.2103 68.9142 32.0643 70.8122 32.113C74.7055 32.1617 77.6012 33.4027 79.4992 35.836C81.4459 38.2207 82.1029 41.5543 81.4702 45.837L78.1122 70H68.6222L72.0532 45.472C72.2479 43.866 71.9802 42.6737 71.2502 41.895C70.5689 41.1163 69.5712 40.727 68.2572 40.727C67.4299 40.727 66.6269 40.8487 65.8482 41.092C65.1182 41.2867 64.2909 41.6273 63.3662 42.114C62.4902 42.6007 61.4439 43.2333 60.2272 44.012L61.8332 41.384L57.7452 70H48.2552ZM97.3426 69.927C94.8119 69.927 92.8166 69.124 91.3566 67.518C89.9452 65.8633 89.4099 63.7463 89.7506 61.167L92.5976 41.019H86.0276L87.1956 32.916H93.6926C93.9359 32.916 94.1549 32.8673 94.3496 32.77C94.5442 32.624 94.7389 32.3563 94.9336 31.967C95.1769 31.529 95.4202 30.945 95.6636 30.215L98.2186 22.915H104.716L103.183 32.916H112.016L110.775 41.019H101.942L99.3136 59.78C99.2162 60.4613 99.2892 60.948 99.5326 61.24C99.8246 61.4833 100.263 61.605 100.847 61.605H107.052L105.884 69.927H97.3426ZM126.972 70.876C123.76 70.876 121.108 70.1703 119.015 68.759C116.922 67.3477 115.341 65.5713 114.27 63.43C113.248 61.24 112.737 58.9527 112.737 56.568C112.737 55.254 112.834 53.8427 113.029 52.334C113.224 50.8253 113.467 49.3167 113.759 47.808C114.051 46.2993 114.416 44.9123 114.854 43.647C115.973 40.2403 117.896 37.4663 120.621 35.325C123.395 33.1837 126.923 32.113 131.206 32.113C134.515 32.113 137.216 32.7943 139.309 34.157C141.402 35.5197 142.959 37.296 143.981 39.486C145.052 41.676 145.587 43.9633 145.587 46.348C145.587 47.662 145.49 49.0977 145.295 50.655C145.149 52.1637 144.906 53.648 144.565 55.108C144.273 56.568 143.908 57.9307 143.47 59.196C142.351 62.6513 140.404 65.474 137.63 67.664C134.856 69.8053 131.303 70.876 126.972 70.876ZM127.629 62.919C129.381 62.919 130.865 62.408 132.082 61.386C133.299 60.3153 134.223 58.9283 134.856 57.225C135.148 56.4463 135.416 55.4487 135.659 54.232C135.951 52.9667 136.17 51.677 136.316 50.363C136.462 49.049 136.535 47.881 136.535 46.859C136.535 44.9123 136.024 43.282 135.002 41.968C134.029 40.654 132.544 39.997 130.549 39.997C128.797 39.997 127.337 40.5323 126.169 41.603C125.001 42.625 124.101 43.9877 123.468 45.691C123.225 46.421 122.957 47.3943 122.665 48.611C122.422 49.779 122.227 51.02 122.081 52.334C121.935 53.648 121.862 54.889 121.862 56.057C121.862 58.0523 122.324 59.707 123.249 61.021C124.174 62.2863 125.634 62.919 127.629 62.919ZM150.595 70L155.121 37.296L159.209 45.18L149.281 40.289L153.296 32.186L161.034 35.982C161.521 36.2253 161.934 36.1767 162.275 35.836L163.37 34.595C165.219 33.5243 166.825 32.843 168.188 32.551C169.599 32.2103 171.254 32.0643 173.152 32.113C177.045 32.1617 179.941 33.4027 181.839 35.836C183.786 38.2207 184.443 41.5543 183.81 45.837L180.452 70H170.962L174.393 45.472C174.588 43.866 174.32 42.6737 173.59 41.895C172.909 41.1163 171.911 40.727 170.597 40.727C169.77 40.727 168.967 40.8487 168.188 41.092C167.458 41.2867 166.631 41.6273 165.706 42.114C164.83 42.6007 163.784 43.2333 162.567 44.012L164.173 41.384L160.085 70H150.595ZM190.922 70L194.937 41.019H188.732L189.9 32.916H205.814L200.631 70H190.922ZM196.908 27.441L198.149 18.9H207.785L206.544 27.441H196.908ZM223.751 70.876C220.539 70.876 217.887 70.1703 215.794 68.759C213.702 67.3477 212.12 65.5713 211.049 63.43C210.027 61.24 209.516 58.9527 209.516 56.568C209.516 55.254 209.614 53.8427 209.808 52.334C210.003 50.8253 210.246 49.3167 210.538 47.808C210.83 46.2993 211.195 44.9123 211.633 43.647C212.753 40.2403 214.675 37.4663 217.4 35.325C220.174 33.1837 223.703 32.113 227.985 32.113C231.295 32.113 233.996 32.7943 236.088 34.157C238.181 35.5197 239.738 37.296 240.76 39.486C241.831 41.676 242.366 43.9633 242.366 46.348C242.366 47.662 242.269 49.0977 242.074 50.655C241.928 52.1637 241.685 53.648 241.344 55.108C241.052 56.568 240.687 57.9307 240.249 59.196C239.13 62.6513 237.183 65.474 234.409 67.664C231.635 69.8053 228.083 70.876 223.751 70.876ZM224.408 62.919C226.16 62.919 227.645 62.408 228.861 61.386C230.078 60.3153 231.003 58.9283 231.635 57.225C231.927 56.4463 232.195 55.4487 232.438 54.232C232.73 52.9667 232.949 51.677 233.095 50.363C233.241 49.049 233.314 47.881 233.314 46.859C233.314 44.9123 232.803 43.282 231.781 41.968C230.808 40.654 229.324 39.997 227.328 39.997C225.576 39.997 224.116 40.5323 222.948 41.603C221.78 42.625 220.88 43.9877 220.247 45.691C220.004 46.421 219.736 47.3943 219.444 48.611C219.201 49.779 219.006 51.02 218.86 52.334C218.714 53.648 218.641 54.889 218.641 56.057C218.641 58.0523 219.104 59.707 220.028 61.021C220.953 62.2863 222.413 62.919 224.408 62.919ZM261.904 70L281.979 18.9H296.214L302.711 70H292.564L289.06 38.537L288.987 28.39C288.987 27.952 288.817 27.7087 288.476 27.66C288.135 27.6113 287.916 27.7817 287.819 28.171L272.27 70H261.904ZM275.263 57.736L278.548 49.268H291.907L292.71 57.736H275.263ZM273 27.368L274.241 18.9H283.366L281.176 27.368H273ZM316.773 69.927C314.242 69.927 312.247 69.0997 310.787 67.445C309.327 65.7903 308.767 63.6977 309.108 61.167L315.605 15.25H325.022L318.671 59.78C318.574 60.4613 318.647 60.948 318.89 61.24C319.182 61.4833 319.62 61.605 320.204 61.605H323.708L322.54 69.927H316.773ZM329.396 70L333.776 38.318L337.353 44.815L328.082 40.289L332.097 32.186L339.835 35.982C340.322 36.2253 340.736 36.1767 341.076 35.836L342.171 34.595C344.069 33.573 345.7 32.8917 347.062 32.551C348.474 32.2103 350.128 32.0643 352.026 32.113C353.973 32.1617 355.628 32.5267 356.99 33.208C358.402 33.8893 359.57 34.741 360.494 35.763C360.884 36.1523 361.297 36.1037 361.735 35.617L362.83 34.376C364.096 33.7433 365.215 33.2567 366.188 32.916C367.162 32.5753 368.135 32.3563 369.108 32.259C370.082 32.113 371.177 32.0643 372.393 32.113C374.924 32.1617 377.041 32.77 378.744 33.938C380.496 35.0573 381.737 36.639 382.467 38.683C383.246 40.6783 383.441 43.0143 383.051 45.691L379.62 70H370.13L373.561 45.399C373.805 43.8417 373.561 42.6737 372.831 41.895C372.15 41.1163 371.128 40.727 369.765 40.727C368.889 40.727 367.965 40.8973 366.991 41.238C366.018 41.5787 364.899 42.1383 363.633 42.917C362.368 43.647 360.786 44.669 358.888 45.983L363.341 41.019L359.253 70H349.763L353.194 45.326C353.389 43.8173 353.146 42.6737 352.464 41.895C351.783 41.1163 350.761 40.727 349.398 40.727C348.425 40.727 347.452 40.9217 346.478 41.311C345.554 41.6517 344.459 42.187 343.193 42.917C341.977 43.647 340.419 44.596 338.521 45.764L343.339 38.61L338.886 70H329.396ZM402.376 70.73C399.262 70.73 396.634 70.1217 394.492 68.905C392.351 67.6397 390.721 65.9363 389.601 63.795C388.531 61.605 387.995 59.1473 387.995 56.422C387.995 54.5727 388.117 52.8207 388.36 51.166C388.652 49.4627 389.017 47.881 389.455 46.421C390.234 43.2577 391.402 40.6297 392.959 38.537C394.565 36.4443 396.488 34.8627 398.726 33.792C401.014 32.7213 403.593 32.186 406.464 32.186C409.19 32.186 411.477 32.6483 413.326 33.573C415.176 34.449 416.611 35.6657 417.633 37.223C418.704 38.7803 419.385 40.6053 419.677 42.698C419.969 44.742 419.921 46.932 419.531 49.268L417.122 53.794H395.222L396.098 47.078H411.282C411.866 44.742 411.696 42.9413 410.771 41.676C409.847 40.4107 408.362 39.778 406.318 39.778C404.177 39.778 402.376 40.5567 400.916 42.114C399.505 43.6713 398.483 45.837 397.85 48.611C397.656 49.633 397.461 50.728 397.266 51.896C397.12 53.064 396.999 54.451 396.901 56.057C396.804 58.2957 397.339 60.0233 398.507 61.24C399.724 62.408 401.233 62.992 403.033 62.992C404.299 62.992 405.515 62.6757 406.683 62.043C407.9 61.4103 409.068 60.364 410.187 58.904L417.268 62.408C415.322 65.5713 413.034 67.7613 410.406 68.978C407.778 70.146 405.102 70.73 402.376 70.73ZM424.428 70L428.954 37.296L433.042 45.18L423.114 40.289L427.129 32.186L434.867 35.982C435.353 36.2253 435.767 36.1767 436.108 35.836L437.203 34.595C439.052 33.5243 440.658 32.843 442.021 32.551C443.432 32.2103 445.087 32.0643 446.985 32.113C450.878 32.1617 453.774 33.4027 455.672 35.836C457.618 38.2207 458.275 41.5543 457.643 45.837L454.285 70H444.795L448.226 45.472C448.42 43.866 448.153 42.6737 447.423 41.895C446.741 41.1163 445.744 40.727 444.43 40.727C443.602 40.727 442.799 40.8487 442.021 41.092C441.291 41.2867 440.463 41.6273 439.539 42.114C438.663 42.6007 437.616 43.2333 436.4 44.012L438.006 41.384L433.918 70H424.428ZM475.267 70.657C473.856 70.657 472.396 70.438 470.887 70C469.427 69.6107 468.064 68.9293 466.799 67.956C465.582 66.934 464.585 65.5713 463.806 63.868C463.027 62.1647 462.638 60.0477 462.638 57.517C462.638 54.7917 462.906 52.0907 463.441 49.414C463.976 46.6887 464.804 44.2067 465.923 41.968C467.626 38.8047 469.841 36.3957 472.566 34.741C475.291 33.0377 478.406 32.186 481.91 32.186C482.494 32.186 483.078 32.2103 483.662 32.259C484.246 32.259 484.927 32.3077 485.706 32.405L488.407 33.281C488.699 33.3783 489.088 33.4027 489.575 33.354L496.145 32.624L492.349 60.583L496.802 62.773L492.641 70.73L485.195 67.08C484.757 66.8853 484.416 66.934 484.173 67.226L482.932 68.613C481.715 69.0997 480.693 69.5133 479.866 69.854C479.087 70.146 478.333 70.3407 477.603 70.438C476.922 70.584 476.143 70.657 475.267 70.657ZM476.727 62.189C477.214 62.189 477.7 62.116 478.187 61.97C478.722 61.824 479.355 61.5807 480.085 61.24C480.864 60.8507 481.861 60.3153 483.078 59.634L485.706 40.581C484.343 40.3377 483.102 40.216 481.983 40.216C480.182 40.216 478.552 40.6297 477.092 41.457C475.632 42.2843 474.537 43.501 473.807 45.107C473.028 46.713 472.469 48.4893 472.128 50.436C471.787 52.334 471.617 54.451 471.617 56.787C471.617 58.685 472.104 60.072 473.077 60.948C474.05 61.7753 475.267 62.189 476.727 62.189Z" fill="#B5F5EC"/>
</svg>
