<svg width="511" height="87" viewBox="0 0 511 87" fill="none" xmlns="http://www.w3.org/2000/svg">
<path d="M4.68821 84.9628C3.06821 84.0628 2.01821 83.1328 1.53821 82.1728C1.11821 81.2128 0.908212 80.3728 0.908212 79.6528C0.908212 78.0328 1.50821 75.8428 2.70821 73.0828C3.90821 70.2628 5.49821 67.0828 7.47821 63.5428C9.51821 59.9428 11.7982 56.1928 14.3182 52.2928C12.3382 52.1728 10.5082 52.0828 8.82821 52.0228C7.20821 51.9628 5.34821 51.9328 3.24821 51.9328H1.17821C1.95821 49.8928 3.21821 48.4828 4.95821 47.7028C6.75821 46.8628 8.85821 46.4428 11.2582 46.4428C12.2782 46.4428 13.3282 46.5028 14.4082 46.6228C15.5482 46.7428 16.7182 46.8628 17.9182 46.9828C20.9182 42.6028 23.9182 38.4028 26.9182 34.3828C29.9182 30.3628 32.7382 26.7628 35.3782 23.5828C38.0782 20.4028 40.4182 17.8528 42.3982 15.9328C44.9182 13.4728 46.8082 12.2428 48.0682 12.2428C48.8482 12.2428 49.7182 12.5428 50.6782 13.1428C51.6382 13.7428 52.6582 14.5228 53.7382 15.4828C53.1382 15.9628 52.3582 17.2228 51.3982 19.2628C50.4982 21.2428 49.5082 23.7628 48.4282 26.8228C47.4082 29.8828 46.3582 33.2428 45.2782 36.9028C44.2582 40.5628 43.3282 44.2828 42.4882 48.0628C41.6482 51.7828 40.9582 55.3528 40.4182 58.7728C39.9382 62.1928 39.6982 65.2228 39.6982 67.8628C39.6982 70.2028 39.9382 71.9728 40.4182 73.1728C40.8982 74.3728 41.7082 74.9728 42.8482 74.9728C44.2882 74.9728 46.0282 73.9228 48.0682 71.8228C50.1082 69.6628 52.3582 66.2428 54.8182 61.5628L56.1682 63.0028C54.3082 67.9228 51.9082 71.9428 48.9682 75.0628C46.0882 78.1828 43.0282 79.7428 39.7882 79.7428C37.0882 79.7428 35.1382 78.5728 33.9382 76.2328C32.7982 73.8328 32.2282 70.5628 32.2282 66.4228C32.2282 64.8628 32.3182 63.1228 32.4982 61.2028C32.7382 59.2828 33.0682 57.0628 33.4882 54.5428C30.8482 54.1228 28.4782 53.7928 26.3782 53.5528C24.2782 53.3128 22.2982 53.0728 20.4382 52.8328C17.6182 57.9328 14.8582 63.2428 12.1582 68.7628C9.45821 74.2228 6.96821 79.6228 4.68821 84.9628ZM34.2982 50.5828C35.1382 46.8628 36.0982 43.1428 37.1782 39.4228C38.3182 35.6428 39.4882 32.0428 40.6882 28.6228C41.9482 25.1428 43.1482 22.0528 44.2882 19.3528C42.4882 20.6728 40.4182 22.7428 38.0782 25.5628C35.7982 28.3228 33.3982 31.6228 30.8782 35.4628C28.3582 39.3028 25.7782 43.4728 23.1382 47.9728C25.0582 48.3928 26.9482 48.8428 28.8082 49.3228C30.6682 49.7428 32.4982 50.1628 34.2982 50.5828ZM80.6806 78.9328C78.4606 78.9328 76.7506 78.3628 75.5506 77.2228C74.4106 76.0828 73.8406 74.6428 73.8406 72.9028C73.8406 71.6428 74.0506 70.3528 74.4706 69.0328C74.8906 67.6528 75.3106 66.2728 75.7306 64.8928C76.1506 63.4528 76.3606 62.0728 76.3606 60.7528C76.3606 59.3128 76.0306 58.3228 75.3706 57.7828C74.7106 57.2428 73.9306 56.9728 73.0306 56.9728C71.2306 56.9728 69.3706 57.7228 67.4506 59.2228C65.5906 60.7228 63.7606 62.6128 61.9606 64.8928C60.1606 67.1128 58.4806 69.4528 56.9206 71.9128C55.3606 74.3728 54.0106 76.5628 52.8706 78.4828C51.7906 78.4828 50.7706 78.3028 49.8106 77.9428C48.8506 77.5828 48.0406 76.9528 47.3806 76.0528C47.4406 75.7528 47.8006 74.8528 48.4606 73.3528C49.0606 71.7928 49.7506 69.9328 50.5306 67.7728C51.3106 65.5528 52.0006 63.2728 52.6006 60.9328C53.2606 58.5928 53.5906 56.4328 53.5906 54.4528C54.0106 54.0328 54.6406 53.5828 55.4806 53.1028C56.3206 52.6228 57.1906 52.3828 58.0906 52.3828C60.0106 52.3828 60.9706 53.2528 60.9706 54.9928C60.9706 55.7728 60.7906 57.0328 60.4306 58.7728C60.0706 60.4528 59.5906 62.3128 58.9906 64.3528C60.5506 62.1328 62.2906 60.0028 64.2106 57.9628C66.1306 55.8628 68.1406 54.1528 70.2406 52.8328C72.3406 51.5128 74.4706 50.8528 76.6306 50.8528C79.0906 50.8528 80.8906 51.7228 82.0306 53.4628C83.2306 55.1428 83.8306 57.0328 83.8306 59.1328C83.8306 60.9328 83.5306 62.6428 82.9306 64.2628C82.3306 65.8228 81.7306 67.3228 81.1306 68.7628C80.5906 70.1428 80.3206 71.5228 80.3206 72.9028C80.3206 73.9228 80.5306 74.6728 80.9506 75.1528C81.4306 75.5728 82.0006 75.7828 82.6606 75.7828C84.1006 75.7828 85.5706 75.0928 87.0706 73.7128C88.6306 72.2728 90.1006 70.5028 91.4806 68.4028C92.9206 66.2428 94.1806 64.0828 95.2606 61.9228L96.6106 63.0928C95.3506 66.0328 93.9406 68.7028 92.3806 71.1028C90.8206 73.5028 89.0806 75.4228 87.1606 76.8628C85.2406 78.2428 83.0806 78.9328 80.6806 78.9328ZM99.3738 81.2728C96.7338 81.2728 94.6338 80.4928 93.0738 78.9328C91.5738 77.4328 90.8238 75.1228 90.8238 72.0028C90.8238 69.4828 91.3038 66.3628 92.2638 62.6428C93.2238 58.9228 94.4238 55.0828 95.8638 51.1228C95.3838 51.0028 94.8438 50.9128 94.2438 50.8528C93.7038 50.7328 93.1938 50.5528 92.7138 50.3128V47.8828C93.4938 48.0028 94.1838 48.0928 94.7838 48.1528C95.4438 48.2128 96.1338 48.2728 96.8538 48.3328C98.1138 45.1528 99.4638 42.0628 100.904 39.0628C102.404 36.0628 103.874 33.3928 105.314 31.0528C106.754 28.7128 108.134 26.8528 109.454 25.4728C110.774 24.0928 111.914 23.4028 112.874 23.4028C113.474 23.4028 114.014 23.6128 114.494 24.0328C114.974 24.4528 115.214 25.0528 115.214 25.8328C115.214 26.9728 114.584 28.6828 113.324 30.9628C112.124 33.1828 110.594 35.8228 108.734 38.8828C106.934 41.8828 105.194 45.1228 103.514 48.6028C103.994 48.6028 104.474 48.6028 104.954 48.6028C105.494 48.6028 106.004 48.6028 106.484 48.6028C108.884 48.6028 111.164 48.5728 113.324 48.5128C115.484 48.3928 117.674 48.2128 119.894 47.9728V50.4928C116.594 50.8528 113.564 51.1228 110.804 51.3028C108.104 51.4828 105.584 51.5728 103.244 51.5728C103.064 51.5728 102.854 51.5728 102.614 51.5728C102.434 51.5728 102.254 51.5728 102.074 51.5728C100.754 54.6328 99.6138 57.7528 98.6538 60.9328C97.7538 64.1128 97.3038 67.2028 97.3038 70.2028C97.3038 72.7228 97.6938 74.5228 98.4738 75.6028C99.2538 76.6228 100.514 77.1328 102.254 77.1328C105.254 77.1328 108.314 75.7528 111.434 72.9928C114.554 70.2328 117.254 66.5128 119.534 61.8328L120.794 62.7328C119.294 66.2128 117.404 69.3628 115.124 72.1828C112.844 75.0028 110.354 77.2228 107.654 78.8428C105.014 80.4628 102.254 81.2728 99.3738 81.2728ZM121.434 80.0128C118.794 80.0128 116.964 79.1428 115.944 77.4028C114.924 75.7228 114.414 73.8028 114.414 71.6428C114.414 69.7228 114.714 67.7728 115.314 65.7928C115.914 63.8128 116.724 61.9528 117.744 60.2128C118.764 58.4728 119.904 57.0628 121.164 55.9828C122.424 54.9028 123.714 54.3628 125.034 54.3628C125.394 54.3628 125.814 54.4528 126.294 54.6328C126.834 54.7528 127.224 54.9328 127.464 55.1728C126.804 55.8928 126.084 56.9128 125.304 58.2328C124.584 59.5528 123.894 60.9928 123.234 62.5528C122.634 64.0528 122.124 65.5828 121.704 67.1428C121.344 68.6428 121.164 70.0228 121.164 71.2828C121.164 72.6628 121.404 73.7428 121.884 74.5228C122.364 75.3028 123.144 75.6928 124.224 75.6928C125.424 75.6928 126.834 75.0628 128.454 73.8028C130.134 72.4828 131.724 70.8928 133.224 69.0328C131.364 67.4128 129.984 65.5528 129.084 63.4528C128.244 61.2928 127.824 58.8628 127.824 56.1628C127.824 54.6628 128.154 53.0728 128.814 51.3928C129.474 49.7128 130.494 48.3028 131.874 47.1628C133.254 46.0228 135.054 45.4528 137.274 45.4528C139.794 45.4528 141.534 46.1728 142.494 47.6128C143.514 48.9928 144.024 50.6728 144.024 52.6528C144.024 54.8728 143.424 57.3928 142.224 60.2128C141.084 62.9728 139.704 65.6128 138.084 68.1328C138.924 68.6128 139.854 68.8528 140.874 68.8528C141.774 68.8528 142.854 68.6428 144.114 68.2228C145.374 67.8028 146.574 67.1128 147.714 66.1528C148.914 65.1328 149.874 63.8128 150.594 62.1928L152.034 63.2728C150.774 66.2128 149.034 68.3728 146.814 69.7528C144.654 71.0728 142.554 71.7328 140.514 71.7328C139.734 71.7328 138.954 71.6728 138.174 71.5528C137.394 71.3728 136.674 71.1328 136.014 70.8328C133.974 73.3528 131.664 75.5128 129.084 77.3128C126.564 79.1128 124.014 80.0128 121.434 80.0128ZM135.294 66.3328C136.794 64.2328 138.024 61.9828 138.984 59.5828C140.004 57.1228 140.514 54.8728 140.514 52.8328C140.514 51.3328 140.274 50.2528 139.794 49.5928C139.374 48.8728 138.774 48.5128 137.994 48.5128C136.794 48.5128 135.594 49.3528 134.394 51.0328C133.194 52.6528 132.594 54.7228 132.594 57.2428C132.594 58.6828 132.804 60.3028 133.224 62.1028C133.704 63.8428 134.394 65.2528 135.294 66.3328ZM176.794 78.9328C174.574 78.9328 172.864 78.3628 171.664 77.2228C170.524 76.0828 169.954 74.6428 169.954 72.9028C169.954 71.6428 170.164 70.3528 170.584 69.0328C171.004 67.6528 171.424 66.2728 171.844 64.8928C172.264 63.4528 172.474 62.0728 172.474 60.7528C172.474 59.3128 172.144 58.3228 171.484 57.7828C170.824 57.2428 170.044 56.9728 169.144 56.9728C167.344 56.9728 165.484 57.7228 163.564 59.2228C161.704 60.7228 159.874 62.6128 158.074 64.8928C156.274 67.1128 154.594 69.4528 153.034 71.9128C151.474 74.3728 150.124 76.5628 148.984 78.4828C147.904 78.4828 146.884 78.3028 145.924 77.9428C144.964 77.5828 144.154 76.9528 143.494 76.0528C143.554 75.7528 143.914 74.8528 144.574 73.3528C145.174 71.7928 145.864 69.9328 146.644 67.7728C147.424 65.5528 148.114 63.2728 148.714 60.9328C149.374 58.5928 149.704 56.4328 149.704 54.4528C150.124 54.0328 150.754 53.5828 151.594 53.1028C152.434 52.6228 153.304 52.3828 154.204 52.3828C156.124 52.3828 157.084 53.2528 157.084 54.9928C157.084 55.7728 156.904 57.0328 156.544 58.7728C156.184 60.4528 155.704 62.3128 155.104 64.3528C156.664 62.1328 158.404 60.0028 160.324 57.9628C162.244 55.8628 164.254 54.1528 166.354 52.8328C168.454 51.5128 170.584 50.8528 172.744 50.8528C175.204 50.8528 177.004 51.7228 178.144 53.4628C179.344 55.1428 179.944 57.0328 179.944 59.1328C179.944 60.9328 179.644 62.6428 179.044 64.2628C178.444 65.8228 177.844 67.3228 177.244 68.7628C176.704 70.1428 176.434 71.5228 176.434 72.9028C176.434 73.9228 176.644 74.6728 177.064 75.1528C177.544 75.5728 178.114 75.7828 178.774 75.7828C180.214 75.7828 181.684 75.0928 183.184 73.7128C184.744 72.2728 186.214 70.5028 187.594 68.4028C189.034 66.2428 190.294 64.0828 191.374 61.9228L192.724 63.0928C191.464 66.0328 190.054 68.7028 188.494 71.1028C186.934 73.5028 185.194 75.4228 183.274 76.8628C181.354 78.2428 179.194 78.9328 176.794 78.9328ZM194.408 79.7428C191.888 79.7428 189.998 78.9628 188.738 77.4028C187.478 75.9028 186.848 74.0428 186.848 71.8228C186.848 70.4428 187.088 68.7028 187.568 66.6028C188.048 64.5028 188.708 62.3128 189.548 60.0328C190.448 57.6928 191.468 55.5028 192.608 53.4628C193.748 51.4228 194.948 49.7728 196.208 48.5128C197.528 47.1928 198.818 46.5328 200.078 46.5328C200.738 46.5328 201.308 46.7428 201.788 47.1628C202.328 47.5828 202.598 48.1828 202.598 48.9628C202.598 49.7428 202.118 50.9128 201.158 52.4728C200.258 54.0328 199.178 55.8628 197.918 57.9628C196.658 60.0028 195.548 62.1328 194.588 64.3528C193.688 66.5728 193.238 68.7028 193.238 70.7428C193.238 72.7228 193.598 74.0428 194.318 74.7028C195.038 75.3628 196.088 75.6928 197.468 75.6928C199.508 75.6928 201.698 74.6728 204.038 72.6328C206.438 70.5928 208.928 67.0228 211.508 61.9228L212.678 63.1828C210.698 68.4628 208.058 72.5428 204.758 75.4228C201.518 78.3028 198.068 79.7428 194.408 79.7428ZM205.118 38.8828C204.038 38.8828 203.048 38.6128 202.148 38.0728C201.308 37.5328 200.888 36.7228 200.888 35.6428C200.888 34.2028 201.638 33.0028 203.138 32.0428C204.698 31.0228 206.288 30.5128 207.908 30.5128C208.928 30.5128 209.768 30.7528 210.428 31.2328C211.088 31.7128 211.418 32.5228 211.418 33.6628C211.418 34.9228 210.758 36.1228 209.438 37.2628C208.118 38.3428 206.678 38.8828 205.118 38.8828ZM213.592 80.0128C210.952 80.0128 209.122 79.1428 208.102 77.4028C207.082 75.7228 206.572 73.8028 206.572 71.6428C206.572 69.7228 206.872 67.7728 207.472 65.7928C208.072 63.8128 208.882 61.9528 209.902 60.2128C210.922 58.4728 212.062 57.0628 213.322 55.9828C214.582 54.9028 215.872 54.3628 217.192 54.3628C217.552 54.3628 217.972 54.4528 218.452 54.6328C218.992 54.7528 219.382 54.9328 219.622 55.1728C218.962 55.8928 218.242 56.9128 217.462 58.2328C216.742 59.5528 216.052 60.9928 215.392 62.5528C214.792 64.0528 214.282 65.5828 213.862 67.1428C213.502 68.6428 213.322 70.0228 213.322 71.2828C213.322 72.6628 213.562 73.7428 214.042 74.5228C214.522 75.3028 215.302 75.6928 216.382 75.6928C217.582 75.6928 218.992 75.0628 220.612 73.8028C222.292 72.4828 223.882 70.8928 225.382 69.0328C223.522 67.4128 222.142 65.5528 221.242 63.4528C220.402 61.2928 219.982 58.8628 219.982 56.1628C219.982 54.6628 220.312 53.0728 220.972 51.3928C221.632 49.7128 222.652 48.3028 224.032 47.1628C225.412 46.0228 227.212 45.4528 229.432 45.4528C231.952 45.4528 233.692 46.1728 234.652 47.6128C235.672 48.9928 236.182 50.6728 236.182 52.6528C236.182 54.8728 235.582 57.3928 234.382 60.2128C233.242 62.9728 231.862 65.6128 230.242 68.1328C231.082 68.6128 232.012 68.8528 233.032 68.8528C233.932 68.8528 235.012 68.6428 236.272 68.2228C237.532 67.8028 238.732 67.1128 239.872 66.1528C241.072 65.1328 242.032 63.8128 242.752 62.1928L244.192 63.2728C242.932 66.2128 241.192 68.3728 238.972 69.7528C236.812 71.0728 234.712 71.7328 232.672 71.7328C231.892 71.7328 231.112 71.6728 230.332 71.5528C229.552 71.3728 228.832 71.1328 228.172 70.8328C226.132 73.3528 223.822 75.5128 221.242 77.3128C218.722 79.1128 216.172 80.0128 213.592 80.0128ZM227.452 66.3328C228.952 64.2328 230.182 61.9828 231.142 59.5828C232.162 57.1228 232.672 54.8728 232.672 52.8328C232.672 51.3328 232.432 50.2528 231.952 49.5928C231.532 48.8728 230.932 48.5128 230.152 48.5128C228.952 48.5128 227.752 49.3528 226.552 51.0328C225.352 52.6528 224.752 54.7228 224.752 57.2428C224.752 58.6828 224.962 60.3028 225.382 62.1028C225.862 63.8428 226.552 65.2528 227.452 66.3328ZM263.892 84.9628C262.272 84.0628 261.222 83.1328 260.742 82.1728C260.322 81.2128 260.112 80.3728 260.112 79.6528C260.112 78.0328 260.712 75.8428 261.912 73.0828C263.112 70.2628 264.702 67.0828 266.682 63.5428C268.722 59.9428 271.002 56.1928 273.522 52.2928C271.542 52.1728 269.712 52.0828 268.032 52.0228C266.412 51.9628 264.552 51.9328 262.452 51.9328H260.382C261.162 49.8928 262.422 48.4828 264.162 47.7028C265.962 46.8628 268.062 46.4428 270.462 46.4428C271.482 46.4428 272.532 46.5028 273.612 46.6228C274.752 46.7428 275.922 46.8628 277.122 46.9828C280.122 42.6028 283.122 38.4028 286.122 34.3828C289.122 30.3628 291.942 26.7628 294.582 23.5828C297.282 20.4028 299.622 17.8528 301.602 15.9328C304.122 13.4728 306.012 12.2428 307.272 12.2428C308.052 12.2428 308.922 12.5428 309.882 13.1428C310.842 13.7428 311.862 14.5228 312.942 15.4828C312.342 15.9628 311.562 17.2228 310.602 19.2628C309.702 21.2428 308.712 23.7628 307.632 26.8228C306.612 29.8828 305.562 33.2428 304.482 36.9028C303.462 40.5628 302.532 44.2828 301.692 48.0628C300.852 51.7828 300.162 55.3528 299.622 58.7728C299.142 62.1928 298.902 65.2228 298.902 67.8628C298.902 70.2028 299.142 71.9728 299.622 73.1728C300.102 74.3728 300.912 74.9728 302.052 74.9728C303.492 74.9728 305.232 73.9228 307.272 71.8228C309.312 69.6628 311.562 66.2428 314.022 61.5628L315.372 63.0028C313.512 67.9228 311.112 71.9428 308.172 75.0628C305.292 78.1828 302.232 79.7428 298.992 79.7428C296.292 79.7428 294.342 78.5728 293.142 76.2328C292.002 73.8328 291.432 70.5628 291.432 66.4228C291.432 64.8628 291.522 63.1228 291.702 61.2028C291.942 59.2828 292.272 57.0628 292.692 54.5428C290.052 54.1228 287.682 53.7928 285.582 53.5528C283.482 53.3128 281.502 53.0728 279.642 52.8328C276.822 57.9328 274.062 63.2428 271.362 68.7628C268.662 74.2228 266.172 79.6228 263.892 84.9628ZM293.502 50.5828C294.342 46.8628 295.302 43.1428 296.382 39.4228C297.522 35.6428 298.692 32.0428 299.892 28.6228C301.152 25.1428 302.352 22.0528 303.492 19.3528C301.692 20.6728 299.622 22.7428 297.282 25.5628C295.002 28.3228 292.602 31.6228 290.082 35.4628C287.562 39.3028 284.982 43.4728 282.342 47.9728C284.262 48.3928 286.152 48.8428 288.012 49.3228C289.872 49.7428 291.702 50.1628 293.502 50.5828ZM317.654 79.8328C314.894 79.8328 312.944 78.9028 311.804 77.0428C310.724 75.1828 310.184 72.9628 310.184 70.3828C310.184 67.4428 310.724 63.9928 311.804 60.0328C312.884 56.0728 314.294 51.9328 316.034 47.6128C317.834 43.2328 319.784 38.9728 321.884 34.8328C324.044 30.6328 326.174 26.8528 328.274 23.4928C330.434 20.0728 332.414 17.3728 334.214 15.3928C336.074 13.3528 337.544 12.3328 338.624 12.3328C339.344 12.3328 339.944 12.7228 340.424 13.5028C340.964 14.2828 341.384 15.2428 341.684 16.3828C341.984 17.4628 342.134 18.4528 342.134 19.3528C342.134 20.9728 341.714 23.1028 340.874 25.7428C340.094 28.3228 338.954 31.2028 337.454 34.3828C336.014 37.5028 334.274 40.7128 332.234 44.0128C330.254 47.2528 328.064 50.3728 325.664 53.3728C323.264 56.3128 320.684 58.8628 317.924 61.0228C317.684 62.5228 317.444 64.0228 317.204 65.5228C317.024 67.0228 316.934 68.4028 316.934 69.6628C316.934 71.8828 317.264 73.5328 317.924 74.6128C318.644 75.6328 319.604 76.1428 320.804 76.1428C322.364 76.1428 323.924 75.4228 325.484 73.9828C327.104 72.5428 328.634 70.7428 330.074 68.5828C331.514 66.3628 332.774 64.0828 333.854 61.7428L335.744 62.8228C333.224 68.0428 330.434 72.1828 327.374 75.2428C324.314 78.3028 321.074 79.8328 317.654 79.8328ZM319.274 56.2528C321.374 54.0928 323.354 51.6928 325.214 49.0528C327.074 46.4128 328.784 43.7128 330.344 40.9528C331.964 38.1328 333.374 35.4328 334.574 32.8528C335.774 30.2128 336.704 27.8728 337.364 25.8328C338.024 23.7328 338.384 22.0828 338.444 20.8828C338.444 20.6428 338.414 20.4928 338.354 20.4328C338.294 20.3128 338.264 20.2528 338.264 20.2528C337.784 20.2528 336.974 20.9728 335.834 22.4128C334.754 23.7928 333.464 25.6828 331.964 28.0828C330.524 30.4828 329.024 33.2428 327.464 36.3628C325.904 39.4828 324.404 42.7528 322.964 46.1728C321.524 49.5928 320.294 52.9528 319.274 56.2528ZM376.531 79.9228C374.251 79.9228 372.571 79.2328 371.491 77.8528C370.411 76.5328 369.871 74.9428 369.871 73.0828C369.871 71.6428 370.081 70.2328 370.501 68.8528C370.921 67.4128 371.341 66.0028 371.761 64.6228C372.241 63.2428 372.481 61.9828 372.481 60.8428C372.481 59.7628 372.241 59.0128 371.761 58.5928C371.341 58.1728 370.831 57.9628 370.231 57.9628C368.791 57.9628 367.171 59.0728 365.371 61.2928C363.571 63.4528 361.291 66.5728 358.531 70.6528C357.571 72.0928 356.701 73.5928 355.921 75.1528C355.141 76.7128 354.421 78.0628 353.761 79.2028C353.281 79.2028 352.621 79.1128 351.781 78.9328C350.941 78.7528 350.191 78.5128 349.531 78.2128C348.931 77.9128 348.631 77.5228 348.631 77.0428C348.631 76.5028 348.931 75.4528 349.531 73.8928C350.131 72.3328 350.821 70.5028 351.601 68.4028C352.381 66.3028 353.041 64.2328 353.581 62.1928C354.181 60.0928 354.481 58.3228 354.481 56.8828C354.481 55.9828 354.331 55.2928 354.031 54.8128C353.731 54.2728 353.221 54.0028 352.501 54.0028C351.241 54.0028 349.711 54.7828 347.911 56.3428C346.111 57.8428 344.221 59.8228 342.241 62.2828C340.261 64.7428 338.401 67.5028 336.661 70.5628C334.981 73.5628 333.601 76.5628 332.521 79.5628C331.861 79.5628 331.081 79.4428 330.181 79.2028C329.281 78.9628 328.501 78.6628 327.841 78.3028C327.181 77.9428 326.851 77.6128 326.851 77.3128C326.851 77.1328 327.091 76.2028 327.571 74.5228C328.051 72.8428 328.651 70.7728 329.371 68.3128C330.031 65.8528 330.661 63.3328 331.261 60.7528C331.921 58.1728 332.431 55.8928 332.791 53.9128C333.031 53.3728 333.661 52.8628 334.681 52.3828C335.701 51.9028 336.631 51.6628 337.471 51.6628C338.311 51.6628 338.971 51.9028 339.451 52.3828C339.991 52.8628 340.261 53.5228 340.261 54.3628C340.261 55.0228 340.111 56.0728 339.811 57.5128C339.511 58.8928 339.121 60.4528 338.641 62.1928C339.901 60.3928 341.251 58.6228 342.691 56.8828C344.131 55.0828 345.631 53.4628 347.191 52.0228C348.811 50.5828 350.401 49.4428 351.961 48.6028C353.581 47.7028 355.171 47.2528 356.731 47.2528C358.831 47.2528 360.241 48.0028 360.961 49.5028C361.741 51.0028 362.131 52.6828 362.131 54.5428C362.131 55.5628 362.011 56.6128 361.771 57.6928C361.591 58.7728 361.351 59.7928 361.051 60.7528C360.811 61.7128 360.511 62.6728 360.151 63.6328C361.291 61.7728 362.581 60.0028 364.021 58.3228C365.461 56.6428 366.991 55.3228 368.611 54.3628C370.231 53.3428 371.971 52.8328 373.831 52.8328C376.051 52.8328 377.581 53.4928 378.421 54.8128C379.261 56.1328 379.681 57.6028 379.681 59.2228C379.681 60.7828 379.411 62.4628 378.871 64.2628C378.391 66.0028 377.881 67.6828 377.341 69.3028C376.801 70.8628 376.531 72.2128 376.531 73.3528C376.531 74.0128 376.681 74.6128 376.981 75.1528C377.341 75.6928 378.001 75.9628 378.961 75.9628C380.581 75.9628 382.141 75.2128 383.641 73.7128C385.141 72.2128 386.521 70.3828 387.781 68.2228C389.041 66.0028 390.121 63.9028 391.021 61.9228L392.371 63.5428C391.411 66.0628 390.181 68.5828 388.681 71.1028C387.181 73.6228 385.411 75.7228 383.371 77.4028C381.331 79.0828 379.051 79.9228 376.531 79.9228ZM397.346 81.0928C393.566 81.0928 390.686 80.0728 388.706 78.0328C386.726 75.9928 385.736 73.4428 385.736 70.3828C385.736 67.6828 386.396 64.8628 387.716 61.9228C389.096 58.9228 390.926 56.1328 393.206 53.5528C395.486 50.9128 397.976 48.7828 400.676 47.1628C403.436 45.4828 406.166 44.6428 408.866 44.6428C410.366 44.6428 411.776 45.0328 413.096 45.8128C414.476 46.5928 415.166 48.1528 415.166 50.4928C415.166 52.7728 414.476 54.9328 413.096 56.9728C411.776 58.9528 410.006 60.7228 407.786 62.2828C405.626 63.8428 403.196 65.1328 400.496 66.1528C397.856 67.1128 395.216 67.7128 392.576 67.9528C392.516 68.3128 392.456 68.6728 392.396 69.0328C392.336 69.3928 392.306 69.8728 392.306 70.4728C392.306 70.9528 392.366 71.6128 392.486 72.4528C392.666 73.2328 392.966 74.0428 393.386 74.8828C393.866 75.6628 394.586 76.3228 395.546 76.8628C396.506 77.4028 397.766 77.6728 399.326 77.6728C401.846 77.6728 404.366 76.9528 406.886 75.5128C409.466 74.0728 411.866 72.1828 414.086 69.8428C416.306 67.4428 418.166 64.8028 419.666 61.9228L421.196 63.1828C419.576 66.7828 417.506 69.9328 414.986 72.6328C412.466 75.2728 409.676 77.3428 406.616 78.8428C403.616 80.3428 400.526 81.0928 397.346 81.0928ZM393.386 65.1628C394.946 64.8628 396.716 64.2628 398.696 63.3628C400.676 62.4028 402.566 61.2328 404.366 59.8528C406.166 58.4128 407.636 56.8528 408.776 55.1728C409.976 53.4928 410.576 51.7828 410.576 50.0428C410.576 49.3828 410.456 48.9028 410.216 48.6028C409.976 48.3028 409.556 48.1528 408.956 48.1528C407.516 48.1528 406.016 48.6928 404.456 49.7728C402.956 50.7928 401.456 52.1428 399.956 53.8228C398.516 55.4428 397.226 57.2728 396.086 59.3128C394.946 61.2928 394.046 63.2428 393.386 65.1628ZM445.666 78.9328C443.446 78.9328 441.736 78.3628 440.536 77.2228C439.396 76.0828 438.826 74.6428 438.826 72.9028C438.826 71.6428 439.036 70.3528 439.456 69.0328C439.876 67.6528 440.296 66.2728 440.716 64.8928C441.136 63.4528 441.346 62.0728 441.346 60.7528C441.346 59.3128 441.016 58.3228 440.356 57.7828C439.696 57.2428 438.916 56.9728 438.016 56.9728C436.216 56.9728 434.356 57.7228 432.436 59.2228C430.576 60.7228 428.746 62.6128 426.946 64.8928C425.146 67.1128 423.466 69.4528 421.906 71.9128C420.346 74.3728 418.996 76.5628 417.856 78.4828C416.776 78.4828 415.756 78.3028 414.796 77.9428C413.836 77.5828 413.026 76.9528 412.366 76.0528C412.426 75.7528 412.786 74.8528 413.446 73.3528C414.046 71.7928 414.736 69.9328 415.516 67.7728C416.296 65.5528 416.986 63.2728 417.586 60.9328C418.246 58.5928 418.576 56.4328 418.576 54.4528C418.996 54.0328 419.626 53.5828 420.466 53.1028C421.306 52.6228 422.176 52.3828 423.076 52.3828C424.996 52.3828 425.956 53.2528 425.956 54.9928C425.956 55.7728 425.776 57.0328 425.416 58.7728C425.056 60.4528 424.576 62.3128 423.976 64.3528C425.536 62.1328 427.276 60.0028 429.196 57.9628C431.116 55.8628 433.126 54.1528 435.226 52.8328C437.326 51.5128 439.456 50.8528 441.616 50.8528C444.076 50.8528 445.876 51.7228 447.016 53.4628C448.216 55.1428 448.816 57.0328 448.816 59.1328C448.816 60.9328 448.516 62.6428 447.916 64.2628C447.316 65.8228 446.716 67.3228 446.116 68.7628C445.576 70.1428 445.306 71.5228 445.306 72.9028C445.306 73.9228 445.516 74.6728 445.936 75.1528C446.416 75.5728 446.986 75.7828 447.646 75.7828C449.086 75.7828 450.556 75.0928 452.056 73.7128C453.616 72.2728 455.086 70.5028 456.466 68.4028C457.906 66.2428 459.166 64.0828 460.246 61.9228L461.596 63.0928C460.336 66.0328 458.926 68.7028 457.366 71.1028C455.806 73.5028 454.066 75.4228 452.146 76.8628C450.226 78.2428 448.066 78.9328 445.666 78.9328ZM461.119 81.3628C459.199 81.3628 457.549 80.7028 456.169 79.3828C454.729 78.1228 454.009 76.2028 454.009 73.6228C454.009 71.4628 454.489 69.1528 455.449 66.6928C456.409 64.2328 457.729 61.8028 459.409 59.4028C461.089 57.0028 463.009 54.8128 465.169 52.8328C467.329 50.8528 469.609 49.2628 472.009 48.0628C474.469 46.8628 476.899 46.2628 479.299 46.2628C481.819 46.2628 483.919 46.9228 485.599 48.2428C487.339 49.5028 488.209 51.1828 488.209 53.2828C488.209 54.9028 487.699 56.0428 486.679 56.7028C485.659 57.3628 484.399 57.5728 482.899 57.3328C483.019 56.8528 483.109 56.3428 483.169 55.8028C483.289 55.2028 483.349 54.6328 483.349 54.0928C483.349 52.8328 483.079 51.7228 482.539 50.7628C481.999 49.8028 480.949 49.3228 479.389 49.3228C477.709 49.3228 475.999 49.8928 474.259 51.0328C472.519 52.1728 470.839 53.6728 469.219 55.5328C467.599 57.3928 466.159 59.4328 464.899 61.6528C463.639 63.8728 462.649 66.0628 461.929 68.2228C461.209 70.3828 460.849 72.3028 460.849 73.9828C460.849 76.0228 461.599 77.0428 463.099 77.0428C464.479 77.0428 465.979 76.3828 467.599 75.0628C469.279 73.7428 470.959 72.0628 472.639 70.0228C474.379 67.9828 476.029 65.9128 477.589 63.8128C479.149 61.6528 480.499 59.7628 481.639 58.1428C481.879 57.8428 482.089 57.6928 482.269 57.6928C482.569 57.7528 483.049 57.9028 483.709 58.1428C484.369 58.3228 484.969 58.5928 485.509 58.9528C486.049 59.3128 486.319 59.7928 486.319 60.3928C486.319 60.9928 486.049 61.7728 485.509 62.7328C484.969 63.6328 484.369 64.6528 483.709 65.7928C483.049 66.9328 482.449 68.0728 481.909 69.2128C481.369 70.3528 481.099 71.4628 481.099 72.5428C481.099 73.3228 481.309 74.1028 481.729 74.8828C482.209 75.6028 482.959 75.9628 483.979 75.9628C485.479 75.9628 487.519 74.8828 490.099 72.7228C492.739 70.5028 495.409 66.9028 498.109 61.9228L499.549 63.3628C498.169 66.6028 496.459 69.4528 494.419 71.9128C492.439 74.3728 490.339 76.2928 488.119 77.6728C485.899 79.1128 483.679 79.8328 481.459 79.8328C479.059 79.8328 477.289 79.0828 476.149 77.5828C475.009 76.1428 474.379 74.5528 474.259 72.8128C474.259 72.6328 474.259 72.4528 474.259 72.2728C474.319 72.0328 474.349 71.8228 474.349 71.6428C471.889 74.7028 469.639 77.0728 467.599 78.7528C465.559 80.4928 463.399 81.3628 461.119 81.3628Z" fill="#5B8C00"/>
<path d="M4.24 80.83C2.62 79.93 1.57 79 1.09 78.04C0.67 77.08 0.46 76.24 0.46 75.52C0.46 73.9 1.06 71.71 2.26 68.95C3.46 66.13 5.05 62.95 7.03 59.41C9.07 55.81 11.35 52.06 13.87 48.16C11.89 48.04 10.06 47.95 8.38 47.89C6.76 47.83 4.9 47.8 2.8 47.8H0.73C1.51 45.76 2.77 44.35 4.51 43.57C6.31 42.73 8.41 42.31 10.81 42.31C11.83 42.31 12.88 42.37 13.96 42.49C15.1 42.61 16.27 42.73 17.47 42.85C20.47 38.47 23.47 34.27 26.47 30.25C29.47 26.23 32.29 22.63 34.93 19.45C37.63 16.27 39.97 13.72 41.95 11.8C44.47 9.34 46.36 8.11 47.62 8.11C48.4 8.11 49.27 8.41 50.23 9.01C51.19 9.61 52.21 10.39 53.29 11.35C52.69 11.83 51.91 13.09 50.95 15.13C50.05 17.11 49.06 19.63 47.98 22.69C46.96 25.75 45.91 29.11 44.83 32.77C43.81 36.43 42.88 40.15 42.04 43.93C41.2 47.65 40.51 51.22 39.97 54.64C39.49 58.06 39.25 61.09 39.25 63.73C39.25 66.07 39.49 67.84 39.97 69.04C40.45 70.24 41.26 70.84 42.4 70.84C43.84 70.84 45.58 69.79 47.62 67.69C49.66 65.53 51.91 62.11 54.37 57.43L55.72 58.87C53.86 63.79 51.46 67.81 48.52 70.93C45.64 74.05 42.58 75.61 39.34 75.61C36.64 75.61 34.69 74.44 33.49 72.1C32.35 69.7 31.78 66.43 31.78 62.29C31.78 60.73 31.87 58.99 32.05 57.07C32.29 55.15 32.62 52.93 33.04 50.41C30.4 49.99 28.03 49.66 25.93 49.42C23.83 49.18 21.85 48.94 19.99 48.7C17.17 53.8 14.41 59.11 11.71 64.63C9.01 70.09 6.52 75.49 4.24 80.83ZM33.85 46.45C34.69 42.73 35.65 39.01 36.73 35.29C37.87 31.51 39.04 27.91 40.24 24.49C41.5 21.01 42.7 17.92 43.84 15.22C42.04 16.54 39.97 18.61 37.63 21.43C35.35 24.19 32.95 27.49 30.43 31.33C27.91 35.17 25.33 39.34 22.69 43.84C24.61 44.26 26.5 44.71 28.36 45.19C30.22 45.61 32.05 46.03 33.85 46.45ZM80.2323 74.8C78.0123 74.8 76.3023 74.23 75.1023 73.09C73.9623 71.95 73.3923 70.51 73.3923 68.77C73.3923 67.51 73.6023 66.22 74.0223 64.9C74.4423 63.52 74.8623 62.14 75.2823 60.76C75.7023 59.32 75.9123 57.94 75.9123 56.62C75.9123 55.18 75.5823 54.19 74.9223 53.65C74.2623 53.11 73.4823 52.84 72.5823 52.84C70.7823 52.84 68.9223 53.59 67.0023 55.09C65.1423 56.59 63.3123 58.48 61.5123 60.76C59.7123 62.98 58.0323 65.32 56.4723 67.78C54.9123 70.24 53.5623 72.43 52.4223 74.35C51.3423 74.35 50.3223 74.17 49.3623 73.81C48.4023 73.45 47.5923 72.82 46.9323 71.92C46.9923 71.62 47.3523 70.72 48.0123 69.22C48.6123 67.66 49.3023 65.8 50.0823 63.64C50.8623 61.42 51.5523 59.14 52.1523 56.8C52.8123 54.46 53.1423 52.3 53.1423 50.32C53.5623 49.9 54.1923 49.45 55.0323 48.97C55.8723 48.49 56.7423 48.25 57.6423 48.25C59.5623 48.25 60.5223 49.12 60.5223 50.86C60.5223 51.64 60.3423 52.9 59.9823 54.64C59.6223 56.32 59.1423 58.18 58.5423 60.22C60.1023 58 61.8423 55.87 63.7623 53.83C65.6823 51.73 67.6923 50.02 69.7923 48.7C71.8923 47.38 74.0223 46.72 76.1823 46.72C78.6423 46.72 80.4423 47.59 81.5823 49.33C82.7823 51.01 83.3823 52.9 83.3823 55C83.3823 56.8 83.0823 58.51 82.4823 60.13C81.8823 61.69 81.2823 63.19 80.6823 64.63C80.1423 66.01 79.8723 67.39 79.8723 68.77C79.8723 69.79 80.0823 70.54 80.5023 71.02C80.9823 71.44 81.5523 71.65 82.2123 71.65C83.6523 71.65 85.1223 70.96 86.6223 69.58C88.1823 68.14 89.6523 66.37 91.0323 64.27C92.4723 62.11 93.7323 59.95 94.8123 57.79L96.1623 58.96C94.9023 61.9 93.4923 64.57 91.9323 66.97C90.3723 69.37 88.6323 71.29 86.7123 72.73C84.7923 74.11 82.6323 74.8 80.2323 74.8ZM98.9256 77.14C96.2856 77.14 94.1856 76.36 92.6256 74.8C91.1256 73.3 90.3756 70.99 90.3756 67.87C90.3756 65.35 90.8556 62.23 91.8156 58.51C92.7756 54.79 93.9756 50.95 95.4156 46.99C94.9356 46.87 94.3956 46.78 93.7956 46.72C93.2556 46.6 92.7456 46.42 92.2656 46.18V43.75C93.0456 43.87 93.7356 43.96 94.3356 44.02C94.9956 44.08 95.6856 44.14 96.4056 44.2C97.6656 41.02 99.0156 37.93 100.456 34.93C101.956 31.93 103.426 29.26 104.866 26.92C106.306 24.58 107.686 22.72 109.006 21.34C110.326 19.96 111.466 19.27 112.426 19.27C113.026 19.27 113.566 19.48 114.046 19.9C114.526 20.32 114.766 20.92 114.766 21.7C114.766 22.84 114.136 24.55 112.876 26.83C111.676 29.05 110.146 31.69 108.286 34.75C106.486 37.75 104.746 40.99 103.066 44.47C103.546 44.47 104.026 44.47 104.506 44.47C105.046 44.47 105.556 44.47 106.036 44.47C108.436 44.47 110.716 44.44 112.876 44.38C115.036 44.26 117.226 44.08 119.446 43.84V46.36C116.146 46.72 113.116 46.99 110.356 47.17C107.656 47.35 105.136 47.44 102.796 47.44C102.616 47.44 102.406 47.44 102.166 47.44C101.986 47.44 101.806 47.44 101.626 47.44C100.306 50.5 99.1656 53.62 98.2056 56.8C97.3056 59.98 96.8556 63.07 96.8556 66.07C96.8556 68.59 97.2456 70.39 98.0256 71.47C98.8056 72.49 100.066 73 101.806 73C104.806 73 107.866 71.62 110.986 68.86C114.106 66.1 116.806 62.38 119.086 57.7L120.346 58.6C118.846 62.08 116.956 65.23 114.676 68.05C112.396 70.87 109.906 73.09 107.206 74.71C104.566 76.33 101.806 77.14 98.9256 77.14ZM120.985 75.88C118.345 75.88 116.515 75.01 115.495 73.27C114.475 71.59 113.965 69.67 113.965 67.51C113.965 65.59 114.265 63.64 114.865 61.66C115.465 59.68 116.275 57.82 117.295 56.08C118.315 54.34 119.455 52.93 120.715 51.85C121.975 50.77 123.265 50.23 124.585 50.23C124.945 50.23 125.365 50.32 125.845 50.5C126.385 50.62 126.775 50.8 127.015 51.04C126.355 51.76 125.635 52.78 124.855 54.1C124.135 55.42 123.445 56.86 122.785 58.42C122.185 59.92 121.675 61.45 121.255 63.01C120.895 64.51 120.715 65.89 120.715 67.15C120.715 68.53 120.955 69.61 121.435 70.39C121.915 71.17 122.695 71.56 123.775 71.56C124.975 71.56 126.385 70.93 128.005 69.67C129.685 68.35 131.275 66.76 132.775 64.9C130.915 63.28 129.535 61.42 128.635 59.32C127.795 57.16 127.375 54.73 127.375 52.03C127.375 50.53 127.705 48.94 128.365 47.26C129.025 45.58 130.045 44.17 131.425 43.03C132.805 41.89 134.605 41.32 136.825 41.32C139.345 41.32 141.085 42.04 142.045 43.48C143.065 44.86 143.575 46.54 143.575 48.52C143.575 50.74 142.975 53.26 141.775 56.08C140.635 58.84 139.255 61.48 137.635 64C138.475 64.48 139.405 64.72 140.425 64.72C141.325 64.72 142.405 64.51 143.665 64.09C144.925 63.67 146.125 62.98 147.265 62.02C148.465 61 149.425 59.68 150.145 58.06L151.585 59.14C150.325 62.08 148.585 64.24 146.365 65.62C144.205 66.94 142.105 67.6 140.065 67.6C139.285 67.6 138.505 67.54 137.725 67.42C136.945 67.24 136.225 67 135.565 66.7C133.525 69.22 131.215 71.38 128.635 73.18C126.115 74.98 123.565 75.88 120.985 75.88ZM134.845 62.2C136.345 60.1 137.575 57.85 138.535 55.45C139.555 52.99 140.065 50.74 140.065 48.7C140.065 47.2 139.825 46.12 139.345 45.46C138.925 44.74 138.325 44.38 137.545 44.38C136.345 44.38 135.145 45.22 133.945 46.9C132.745 48.52 132.145 50.59 132.145 53.11C132.145 54.55 132.355 56.17 132.775 57.97C133.255 59.71 133.945 61.12 134.845 62.2ZM176.346 74.8C174.126 74.8 172.416 74.23 171.216 73.09C170.076 71.95 169.506 70.51 169.506 68.77C169.506 67.51 169.716 66.22 170.136 64.9C170.556 63.52 170.976 62.14 171.396 60.76C171.816 59.32 172.026 57.94 172.026 56.62C172.026 55.18 171.696 54.19 171.036 53.65C170.376 53.11 169.596 52.84 168.696 52.84C166.896 52.84 165.036 53.59 163.116 55.09C161.256 56.59 159.426 58.48 157.626 60.76C155.826 62.98 154.146 65.32 152.586 67.78C151.026 70.24 149.676 72.43 148.536 74.35C147.456 74.35 146.436 74.17 145.476 73.81C144.516 73.45 143.706 72.82 143.046 71.92C143.106 71.62 143.466 70.72 144.126 69.22C144.726 67.66 145.416 65.8 146.196 63.64C146.976 61.42 147.666 59.14 148.266 56.8C148.926 54.46 149.256 52.3 149.256 50.32C149.676 49.9 150.306 49.45 151.146 48.97C151.986 48.49 152.856 48.25 153.756 48.25C155.676 48.25 156.636 49.12 156.636 50.86C156.636 51.64 156.456 52.9 156.096 54.64C155.736 56.32 155.256 58.18 154.656 60.22C156.216 58 157.956 55.87 159.876 53.83C161.796 51.73 163.806 50.02 165.906 48.7C168.006 47.38 170.136 46.72 172.296 46.72C174.756 46.72 176.556 47.59 177.696 49.33C178.896 51.01 179.496 52.9 179.496 55C179.496 56.8 179.196 58.51 178.596 60.13C177.996 61.69 177.396 63.19 176.796 64.63C176.256 66.01 175.986 67.39 175.986 68.77C175.986 69.79 176.196 70.54 176.616 71.02C177.096 71.44 177.666 71.65 178.326 71.65C179.766 71.65 181.236 70.96 182.736 69.58C184.296 68.14 185.766 66.37 187.146 64.27C188.586 62.11 189.846 59.95 190.926 57.79L192.276 58.96C191.016 61.9 189.606 64.57 188.046 66.97C186.486 69.37 184.746 71.29 182.826 72.73C180.906 74.11 178.746 74.8 176.346 74.8ZM193.959 75.61C191.439 75.61 189.549 74.83 188.289 73.27C187.029 71.77 186.399 69.91 186.399 67.69C186.399 66.31 186.639 64.57 187.119 62.47C187.599 60.37 188.259 58.18 189.099 55.9C189.999 53.56 191.019 51.37 192.159 49.33C193.299 47.29 194.499 45.64 195.759 44.38C197.079 43.06 198.369 42.4 199.629 42.4C200.289 42.4 200.859 42.61 201.339 43.03C201.879 43.45 202.149 44.05 202.149 44.83C202.149 45.61 201.669 46.78 200.709 48.34C199.809 49.9 198.729 51.73 197.469 53.83C196.209 55.87 195.099 58 194.139 60.22C193.239 62.44 192.789 64.57 192.789 66.61C192.789 68.59 193.149 69.91 193.869 70.57C194.589 71.23 195.639 71.56 197.019 71.56C199.059 71.56 201.249 70.54 203.589 68.5C205.989 66.46 208.479 62.89 211.059 57.79L212.229 59.05C210.249 64.33 207.609 68.41 204.309 71.29C201.069 74.17 197.619 75.61 193.959 75.61ZM204.669 34.75C203.589 34.75 202.599 34.48 201.699 33.94C200.859 33.4 200.439 32.59 200.439 31.51C200.439 30.07 201.189 28.87 202.689 27.91C204.249 26.89 205.839 26.38 207.459 26.38C208.479 26.38 209.319 26.62 209.979 27.1C210.639 27.58 210.969 28.39 210.969 29.53C210.969 30.79 210.309 31.99 208.989 33.13C207.669 34.21 206.229 34.75 204.669 34.75ZM213.144 75.88C210.504 75.88 208.674 75.01 207.654 73.27C206.634 71.59 206.124 69.67 206.124 67.51C206.124 65.59 206.424 63.64 207.024 61.66C207.624 59.68 208.434 57.82 209.454 56.08C210.474 54.34 211.614 52.93 212.874 51.85C214.134 50.77 215.424 50.23 216.744 50.23C217.104 50.23 217.524 50.32 218.004 50.5C218.544 50.62 218.934 50.8 219.174 51.04C218.514 51.76 217.794 52.78 217.014 54.1C216.294 55.42 215.604 56.86 214.944 58.42C214.344 59.92 213.834 61.45 213.414 63.01C213.054 64.51 212.874 65.89 212.874 67.15C212.874 68.53 213.114 69.61 213.594 70.39C214.074 71.17 214.854 71.56 215.934 71.56C217.134 71.56 218.544 70.93 220.164 69.67C221.844 68.35 223.434 66.76 224.934 64.9C223.074 63.28 221.694 61.42 220.794 59.32C219.954 57.16 219.534 54.73 219.534 52.03C219.534 50.53 219.864 48.94 220.524 47.26C221.184 45.58 222.204 44.17 223.584 43.03C224.964 41.89 226.764 41.32 228.984 41.32C231.504 41.32 233.244 42.04 234.204 43.48C235.224 44.86 235.734 46.54 235.734 48.52C235.734 50.74 235.134 53.26 233.934 56.08C232.794 58.84 231.414 61.48 229.794 64C230.634 64.48 231.564 64.72 232.584 64.72C233.484 64.72 234.564 64.51 235.824 64.09C237.084 63.67 238.284 62.98 239.424 62.02C240.624 61 241.584 59.68 242.304 58.06L243.744 59.14C242.484 62.08 240.744 64.24 238.524 65.62C236.364 66.94 234.264 67.6 232.224 67.6C231.444 67.6 230.664 67.54 229.884 67.42C229.104 67.24 228.384 67 227.724 66.7C225.684 69.22 223.374 71.38 220.794 73.18C218.274 74.98 215.724 75.88 213.144 75.88ZM227.004 62.2C228.504 60.1 229.734 57.85 230.694 55.45C231.714 52.99 232.224 50.74 232.224 48.7C232.224 47.2 231.984 46.12 231.504 45.46C231.084 44.74 230.484 44.38 229.704 44.38C228.504 44.38 227.304 45.22 226.104 46.9C224.904 48.52 224.304 50.59 224.304 53.11C224.304 54.55 224.514 56.17 224.934 57.97C225.414 59.71 226.104 61.12 227.004 62.2ZM263.444 80.83C261.824 79.93 260.774 79 260.294 78.04C259.874 77.08 259.664 76.24 259.664 75.52C259.664 73.9 260.264 71.71 261.464 68.95C262.664 66.13 264.254 62.95 266.234 59.41C268.274 55.81 270.554 52.06 273.074 48.16C271.094 48.04 269.264 47.95 267.584 47.89C265.964 47.83 264.104 47.8 262.004 47.8H259.934C260.714 45.76 261.974 44.35 263.714 43.57C265.514 42.73 267.614 42.31 270.014 42.31C271.034 42.31 272.084 42.37 273.164 42.49C274.304 42.61 275.474 42.73 276.674 42.85C279.674 38.47 282.674 34.27 285.674 30.25C288.674 26.23 291.494 22.63 294.134 19.45C296.834 16.27 299.174 13.72 301.154 11.8C303.674 9.34 305.564 8.11 306.824 8.11C307.604 8.11 308.474 8.41 309.434 9.01C310.394 9.61 311.414 10.39 312.494 11.35C311.894 11.83 311.114 13.09 310.154 15.13C309.254 17.11 308.264 19.63 307.184 22.69C306.164 25.75 305.114 29.11 304.034 32.77C303.014 36.43 302.084 40.15 301.244 43.93C300.404 47.65 299.714 51.22 299.174 54.64C298.694 58.06 298.454 61.09 298.454 63.73C298.454 66.07 298.694 67.84 299.174 69.04C299.654 70.24 300.464 70.84 301.604 70.84C303.044 70.84 304.784 69.79 306.824 67.69C308.864 65.53 311.114 62.11 313.574 57.43L314.924 58.87C313.064 63.79 310.664 67.81 307.724 70.93C304.844 74.05 301.784 75.61 298.544 75.61C295.844 75.61 293.894 74.44 292.694 72.1C291.554 69.7 290.984 66.43 290.984 62.29C290.984 60.73 291.074 58.99 291.254 57.07C291.494 55.15 291.824 52.93 292.244 50.41C289.604 49.99 287.234 49.66 285.134 49.42C283.034 49.18 281.054 48.94 279.194 48.7C276.374 53.8 273.614 59.11 270.914 64.63C268.214 70.09 265.724 75.49 263.444 80.83ZM293.054 46.45C293.894 42.73 294.854 39.01 295.934 35.29C297.074 31.51 298.244 27.91 299.444 24.49C300.704 21.01 301.904 17.92 303.044 15.22C301.244 16.54 299.174 18.61 296.834 21.43C294.554 24.19 292.154 27.49 289.634 31.33C287.114 35.17 284.534 39.34 281.894 43.84C283.814 44.26 285.704 44.71 287.564 45.19C289.424 45.61 291.254 46.03 293.054 46.45ZM317.206 75.7C314.446 75.7 312.496 74.77 311.356 72.91C310.276 71.05 309.736 68.83 309.736 66.25C309.736 63.31 310.276 59.86 311.356 55.9C312.436 51.94 313.846 47.8 315.586 43.48C317.386 39.1 319.336 34.84 321.436 30.7C323.596 26.5 325.726 22.72 327.826 19.36C329.986 15.94 331.966 13.24 333.766 11.26C335.626 9.22 337.096 8.2 338.176 8.2C338.896 8.2 339.496 8.59 339.976 9.37C340.516 10.15 340.936 11.11 341.236 12.25C341.536 13.33 341.686 14.32 341.686 15.22C341.686 16.84 341.266 18.97 340.426 21.61C339.646 24.19 338.506 27.07 337.006 30.25C335.566 33.37 333.826 36.58 331.786 39.88C329.806 43.12 327.616 46.24 325.216 49.24C322.816 52.18 320.236 54.73 317.476 56.89C317.236 58.39 316.996 59.89 316.756 61.39C316.576 62.89 316.486 64.27 316.486 65.53C316.486 67.75 316.816 69.4 317.476 70.48C318.196 71.5 319.156 72.01 320.356 72.01C321.916 72.01 323.476 71.29 325.036 69.85C326.656 68.41 328.186 66.61 329.626 64.45C331.066 62.23 332.326 59.95 333.406 57.61L335.296 58.69C332.776 63.91 329.986 68.05 326.926 71.11C323.866 74.17 320.626 75.7 317.206 75.7ZM318.826 52.12C320.926 49.96 322.906 47.56 324.766 44.92C326.626 42.28 328.336 39.58 329.896 36.82C331.516 34 332.926 31.3 334.126 28.72C335.326 26.08 336.256 23.74 336.916 21.7C337.576 19.6 337.936 17.95 337.996 16.75C337.996 16.51 337.966 16.36 337.906 16.3C337.846 16.18 337.816 16.12 337.816 16.12C337.336 16.12 336.526 16.84 335.386 18.28C334.306 19.66 333.016 21.55 331.516 23.95C330.076 26.35 328.576 29.11 327.016 32.23C325.456 35.35 323.956 38.62 322.516 42.04C321.076 45.46 319.846 48.82 318.826 52.12ZM376.083 75.79C373.803 75.79 372.123 75.1 371.043 73.72C369.963 72.4 369.423 70.81 369.423 68.95C369.423 67.51 369.633 66.1 370.053 64.72C370.473 63.28 370.893 61.87 371.313 60.49C371.793 59.11 372.033 57.85 372.033 56.71C372.033 55.63 371.793 54.88 371.313 54.46C370.893 54.04 370.383 53.83 369.783 53.83C368.343 53.83 366.723 54.94 364.923 57.16C363.123 59.32 360.843 62.44 358.083 66.52C357.123 67.96 356.253 69.46 355.473 71.02C354.693 72.58 353.973 73.93 353.313 75.07C352.833 75.07 352.173 74.98 351.333 74.8C350.493 74.62 349.743 74.38 349.083 74.08C348.483 73.78 348.183 73.39 348.183 72.91C348.183 72.37 348.483 71.32 349.083 69.76C349.683 68.2 350.373 66.37 351.153 64.27C351.933 62.17 352.593 60.1 353.133 58.06C353.733 55.96 354.033 54.19 354.033 52.75C354.033 51.85 353.883 51.16 353.583 50.68C353.283 50.14 352.773 49.87 352.053 49.87C350.793 49.87 349.263 50.65 347.463 52.21C345.663 53.71 343.773 55.69 341.793 58.15C339.813 60.61 337.953 63.37 336.213 66.43C334.533 69.43 333.153 72.43 332.073 75.43C331.413 75.43 330.633 75.31 329.733 75.07C328.833 74.83 328.053 74.53 327.393 74.17C326.733 73.81 326.403 73.48 326.403 73.18C326.403 73 326.643 72.07 327.123 70.39C327.603 68.71 328.203 66.64 328.923 64.18C329.583 61.72 330.213 59.2 330.813 56.62C331.473 54.04 331.983 51.76 332.343 49.78C332.583 49.24 333.213 48.73 334.233 48.25C335.253 47.77 336.183 47.53 337.023 47.53C337.863 47.53 338.523 47.77 339.003 48.25C339.543 48.73 339.813 49.39 339.813 50.23C339.813 50.89 339.663 51.94 339.363 53.38C339.063 54.76 338.673 56.32 338.193 58.06C339.453 56.26 340.803 54.49 342.243 52.75C343.683 50.95 345.183 49.33 346.743 47.89C348.363 46.45 349.953 45.31 351.513 44.47C353.133 43.57 354.723 43.12 356.283 43.12C358.383 43.12 359.793 43.87 360.513 45.37C361.293 46.87 361.683 48.55 361.683 50.41C361.683 51.43 361.563 52.48 361.323 53.56C361.143 54.64 360.903 55.66 360.603 56.62C360.363 57.58 360.063 58.54 359.703 59.5C360.843 57.64 362.133 55.87 363.573 54.19C365.013 52.51 366.543 51.19 368.163 50.23C369.783 49.21 371.523 48.7 373.383 48.7C375.603 48.7 377.133 49.36 377.973 50.68C378.813 52 379.233 53.47 379.233 55.09C379.233 56.65 378.963 58.33 378.423 60.13C377.943 61.87 377.433 63.55 376.893 65.17C376.353 66.73 376.083 68.08 376.083 69.22C376.083 69.88 376.233 70.48 376.533 71.02C376.893 71.56 377.553 71.83 378.513 71.83C380.133 71.83 381.693 71.08 383.193 69.58C384.693 68.08 386.073 66.25 387.333 64.09C388.593 61.87 389.673 59.77 390.573 57.79L391.923 59.41C390.963 61.93 389.733 64.45 388.233 66.97C386.733 69.49 384.963 71.59 382.923 73.27C380.883 74.95 378.603 75.79 376.083 75.79ZM396.897 76.96C393.117 76.96 390.237 75.94 388.257 73.9C386.277 71.86 385.287 69.31 385.287 66.25C385.287 63.55 385.947 60.73 387.267 57.79C388.647 54.79 390.477 52 392.757 49.42C395.037 46.78 397.527 44.65 400.227 43.03C402.987 41.35 405.717 40.51 408.417 40.51C409.917 40.51 411.327 40.9 412.647 41.68C414.027 42.46 414.717 44.02 414.717 46.36C414.717 48.64 414.027 50.8 412.647 52.84C411.327 54.82 409.557 56.59 407.337 58.15C405.177 59.71 402.747 61 400.047 62.02C397.407 62.98 394.767 63.58 392.127 63.82C392.067 64.18 392.007 64.54 391.947 64.9C391.887 65.26 391.857 65.74 391.857 66.34C391.857 66.82 391.917 67.48 392.037 68.32C392.217 69.1 392.517 69.91 392.937 70.75C393.417 71.53 394.137 72.19 395.097 72.73C396.057 73.27 397.317 73.54 398.877 73.54C401.397 73.54 403.917 72.82 406.437 71.38C409.017 69.94 411.417 68.05 413.637 65.71C415.857 63.31 417.717 60.67 419.217 57.79L420.747 59.05C419.127 62.65 417.057 65.8 414.537 68.5C412.017 71.14 409.227 73.21 406.167 74.71C403.167 76.21 400.077 76.96 396.897 76.96ZM392.937 61.03C394.497 60.73 396.267 60.13 398.247 59.23C400.227 58.27 402.117 57.1 403.917 55.72C405.717 54.28 407.187 52.72 408.327 51.04C409.527 49.36 410.127 47.65 410.127 45.91C410.127 45.25 410.007 44.77 409.767 44.47C409.527 44.17 409.107 44.02 408.507 44.02C407.067 44.02 405.567 44.56 404.007 45.64C402.507 46.66 401.007 48.01 399.507 49.69C398.067 51.31 396.777 53.14 395.637 55.18C394.497 57.16 393.597 59.11 392.937 61.03ZM445.217 74.8C442.997 74.8 441.287 74.23 440.087 73.09C438.947 71.95 438.377 70.51 438.377 68.77C438.377 67.51 438.587 66.22 439.007 64.9C439.427 63.52 439.847 62.14 440.267 60.76C440.687 59.32 440.897 57.94 440.897 56.62C440.897 55.18 440.567 54.19 439.907 53.65C439.247 53.11 438.467 52.84 437.567 52.84C435.767 52.84 433.907 53.59 431.987 55.09C430.127 56.59 428.297 58.48 426.497 60.76C424.697 62.98 423.017 65.32 421.457 67.78C419.897 70.24 418.547 72.43 417.407 74.35C416.327 74.35 415.307 74.17 414.347 73.81C413.387 73.45 412.577 72.82 411.917 71.92C411.977 71.62 412.337 70.72 412.997 69.22C413.597 67.66 414.287 65.8 415.067 63.64C415.847 61.42 416.537 59.14 417.137 56.8C417.797 54.46 418.127 52.3 418.127 50.32C418.547 49.9 419.177 49.45 420.017 48.97C420.857 48.49 421.727 48.25 422.627 48.25C424.547 48.25 425.507 49.12 425.507 50.86C425.507 51.64 425.327 52.9 424.967 54.64C424.607 56.32 424.127 58.18 423.527 60.22C425.087 58 426.827 55.87 428.747 53.83C430.667 51.73 432.677 50.02 434.777 48.7C436.877 47.38 439.007 46.72 441.167 46.72C443.627 46.72 445.427 47.59 446.567 49.33C447.767 51.01 448.367 52.9 448.367 55C448.367 56.8 448.067 58.51 447.467 60.13C446.867 61.69 446.267 63.19 445.667 64.63C445.127 66.01 444.857 67.39 444.857 68.77C444.857 69.79 445.067 70.54 445.487 71.02C445.967 71.44 446.537 71.65 447.197 71.65C448.637 71.65 450.107 70.96 451.607 69.58C453.167 68.14 454.637 66.37 456.017 64.27C457.457 62.11 458.717 59.95 459.797 57.79L461.147 58.96C459.887 61.9 458.477 64.57 456.917 66.97C455.357 69.37 453.617 71.29 451.697 72.73C449.777 74.11 447.617 74.8 445.217 74.8ZM460.671 77.23C458.751 77.23 457.101 76.57 455.721 75.25C454.281 73.99 453.561 72.07 453.561 69.49C453.561 67.33 454.041 65.02 455.001 62.56C455.961 60.1 457.281 57.67 458.961 55.27C460.641 52.87 462.561 50.68 464.721 48.7C466.881 46.72 469.161 45.13 471.561 43.93C474.021 42.73 476.451 42.13 478.851 42.13C481.371 42.13 483.471 42.79 485.151 44.11C486.891 45.37 487.761 47.05 487.761 49.15C487.761 50.77 487.251 51.91 486.231 52.57C485.211 53.23 483.951 53.44 482.451 53.2C482.571 52.72 482.661 52.21 482.721 51.67C482.841 51.07 482.901 50.5 482.901 49.96C482.901 48.7 482.631 47.59 482.091 46.63C481.551 45.67 480.501 45.19 478.941 45.19C477.261 45.19 475.551 45.76 473.811 46.9C472.071 48.04 470.391 49.54 468.771 51.4C467.151 53.26 465.711 55.3 464.451 57.52C463.191 59.74 462.201 61.93 461.481 64.09C460.761 66.25 460.401 68.17 460.401 69.85C460.401 71.89 461.151 72.91 462.651 72.91C464.031 72.91 465.531 72.25 467.151 70.93C468.831 69.61 470.511 67.93 472.191 65.89C473.931 63.85 475.581 61.78 477.141 59.68C478.701 57.52 480.051 55.63 481.191 54.01C481.431 53.71 481.641 53.56 481.821 53.56C482.121 53.62 482.601 53.77 483.261 54.01C483.921 54.19 484.521 54.46 485.061 54.82C485.601 55.18 485.871 55.66 485.871 56.26C485.871 56.86 485.601 57.64 485.061 58.6C484.521 59.5 483.921 60.52 483.261 61.66C482.601 62.8 482.001 63.94 481.461 65.08C480.921 66.22 480.651 67.33 480.651 68.41C480.651 69.19 480.861 69.97 481.281 70.75C481.761 71.47 482.511 71.83 483.531 71.83C485.031 71.83 487.071 70.75 489.651 68.59C492.291 66.37 494.961 62.77 497.661 57.79L499.101 59.23C497.721 62.47 496.011 65.32 493.971 67.78C491.991 70.24 489.891 72.16 487.671 73.54C485.451 74.98 483.231 75.7 481.011 75.7C478.611 75.7 476.841 74.95 475.701 73.45C474.561 72.01 473.931 70.42 473.811 68.68C473.811 68.5 473.811 68.32 473.811 68.14C473.871 67.9 473.901 67.69 473.901 67.51C471.441 70.57 469.191 72.94 467.151 74.62C465.111 76.36 462.951 77.23 460.671 77.23Z" fill="#B5F5EC"/>
</svg>
