<svg width="510" height="72" viewBox="0 0 510 72" fill="none" xmlns="http://www.w3.org/2000/svg">
<path d="M24.3906 71.7129C37.1514 71.7129 44.7437 61.5898 44.7437 44.623C44.7437 28.2622 37.7217 18.959 25.3887 18.959C13.8042 18.959 6.42578 26.3018 6.42578 37.9575C6.42578 48.1519 12.4854 54.9243 22.4302 54.9243C24.1055 54.9243 25.6738 54.6035 27.6343 53.6055C27.9194 53.4629 28.1689 53.356 28.4541 53.356C28.9888 53.356 29.4521 53.8193 29.4521 54.3896C29.4521 54.7461 29.2739 55.1025 28.8462 55.3521C27.4561 56.2432 24.9609 57.063 22.3232 57.063C17.6895 57.063 13.3052 55.5659 9.95459 52.5718C8.56445 54.2827 7.85156 56.3501 7.85156 59.0947C7.85156 66.8296 14.3389 71.7129 24.3906 71.7129ZM24.4976 42.6626V32.1475C24.4976 31.4346 24.8184 30.9355 25.5669 30.9355C26.3154 30.9355 26.6362 31.4346 26.6362 32.1475V42.6626C26.6362 43.3398 26.3154 43.8745 25.5669 43.8745C24.8184 43.8745 24.4976 43.3398 24.4976 42.6626ZM56.4707 71.5347C61.7817 71.5347 65.3462 67.5781 65.3462 61.9463V47.938C65.3462 47.2251 65.667 46.7261 66.4155 46.7261C67.1641 46.7261 67.4849 47.2251 67.4849 47.938V61.9463C67.4849 67.5781 71.0493 71.5347 76.396 71.5347C81.8496 71.5347 85.4854 67.5781 85.4854 61.9463V46.1201C85.4854 36.3535 80.4951 31.0781 73.0811 31.0781C69.7661 31.0781 66.8433 32.3257 64.5264 34.5713C63.1719 35.8545 62.1025 37.6367 61.2114 39.5615C60.9619 40.0962 60.5698 40.417 60.0352 40.417C59.5361 40.417 59.1084 39.9536 59.1084 39.4902C59.1084 39.0981 59.1797 38.8486 59.2866 38.5635C59.7144 37.4941 60.9263 35.1416 62.958 33.1099C61.4966 31.8979 59.3579 31.0781 56.5776 31.0781C51.0171 31.0781 47.3457 35.0347 47.3457 40.6665V61.9463C47.3457 67.5781 50.9814 71.5347 56.4707 71.5347ZM100.955 71.7129C107.514 71.7129 111.042 67.6851 111.042 62.6235C111.042 58.2036 108.191 54.853 104.127 54.853C102.88 54.853 101.418 55.2095 100.492 55.6729C100.064 55.8511 99.7788 56.0293 99.458 56.0293C98.8521 56.0293 98.4243 55.5303 98.4243 54.96C98.4243 54.5322 98.6382 54.2114 99.1016 53.9619C100.67 53.1421 102.63 52.7144 104.448 52.7144C104.947 52.7144 105.589 52.75 106.052 52.8213V45.2646C109.545 45.2646 111.862 42.5557 111.862 38.5635C111.862 34.5 109.118 31.791 106.052 31.791C103.878 31.791 102.06 32.2188 100.706 32.896C100.385 33.0386 100.1 33.1455 99.8145 33.1455C99.2441 33.1455 98.8164 32.6821 98.8164 32.1475C98.8164 31.7554 98.9946 31.3989 99.458 31.1138C101.24 30.0801 103.415 29.6167 106.052 29.6167V28.4404C105.874 22.9512 102.381 19.1372 96.856 19.1372C91.2954 19.1372 87.624 23.0938 87.624 28.7256V57.6689C87.624 66.4731 93.5767 71.7129 100.955 71.7129ZM130.255 71.7129C141.625 71.7129 149.146 64.1206 149.146 51.3955C149.146 38.6704 141.625 31.0781 130.255 31.0781C118.884 31.0781 111.363 38.6704 111.363 51.3955C111.363 64.1206 118.884 71.7129 130.255 71.7129ZM129.186 56.9561V45.835C129.186 45.1221 129.506 44.623 130.255 44.623C131.003 44.623 131.324 45.1221 131.324 45.835V56.9561C131.324 57.6333 131.003 58.168 130.255 58.168C129.506 58.168 129.186 57.6333 129.186 56.9561ZM160.054 71.5347C165.365 71.5347 168.929 67.5781 168.929 61.9463V47.938C168.929 47.2251 169.25 46.7261 169.999 46.7261C170.747 46.7261 171.068 47.2251 171.068 47.938V61.9463C171.068 67.5781 174.632 71.5347 179.979 71.5347C185.433 71.5347 189.068 67.5781 189.068 61.9463V46.1201C189.068 36.3535 184.078 31.0781 176.664 31.0781C173.349 31.0781 170.426 32.3257 168.109 34.5713C166.755 35.8545 165.686 37.6367 164.794 39.5615C164.545 40.0962 164.153 40.417 163.618 40.417C163.119 40.417 162.691 39.9536 162.691 39.4902C162.691 39.0981 162.763 38.8486 162.87 38.5635C163.297 37.4941 164.509 35.1416 166.541 33.1099C165.08 31.8979 162.941 31.0781 160.161 31.0781C154.6 31.0781 150.929 35.0347 150.929 40.6665V61.9463C150.929 67.5781 154.564 71.5347 160.054 71.5347ZM208.388 35.4624C206.32 37.2803 203.397 38.207 200.475 38.207C197.552 38.207 194.629 37.2803 192.526 35.4268C191.706 36.8525 191.243 38.5635 191.243 40.4883V61.9819C191.243 67.6138 194.914 71.5347 200.475 71.5347C206.106 71.5347 209.671 67.6138 209.671 61.9819V40.4883C209.671 38.5635 209.208 36.8525 208.388 35.4624ZM190.958 27.0146C190.958 32.1118 194.558 36.0684 200.475 36.0684C206.392 36.0684 209.956 32.1118 209.956 27.0146C209.956 21.9888 206.392 17.8896 200.475 17.8896C194.558 17.8896 190.958 21.9888 190.958 27.0146ZM230.416 71.7129C241.787 71.7129 249.308 64.1206 249.308 51.3955C249.308 38.6704 241.787 31.0781 230.416 31.0781C219.045 31.0781 211.524 38.6704 211.524 51.3955C211.524 64.1206 219.045 71.7129 230.416 71.7129ZM229.347 56.9561V45.835C229.347 45.1221 229.667 44.623 230.416 44.623C231.165 44.623 231.485 45.1221 231.485 45.835V56.9561C231.485 57.6333 231.165 58.168 230.416 58.168C229.667 58.168 229.347 57.6333 229.347 56.9561ZM271.799 71.5347C276.968 71.5347 279.926 69.1465 281.316 62.8018C281.637 61.3403 281.744 59.9502 281.851 57.5264C280.247 57.5264 278.536 57.3481 277.574 57.1699C276.896 57.063 276.433 56.7422 276.433 56.0649C276.433 55.459 276.754 55.0669 277.467 55.0669C277.716 55.0669 278.322 55.1382 278.857 55.1738C280.14 55.3164 281.815 55.3521 282.92 55.3521C284.061 55.3521 285.701 55.3164 286.984 55.1738C287.554 55.1382 288.125 55.0669 288.374 55.0669C289.087 55.0669 289.408 55.459 289.408 56.0649C289.408 56.7422 288.98 57.063 288.267 57.1699C287.34 57.3481 285.629 57.5264 283.99 57.5264C284.097 59.9502 284.204 61.3403 284.524 62.8018C285.915 69.1465 288.909 71.5347 294.042 71.5347C299.317 71.5347 302.81 68.2197 302.81 62.374C302.81 61.3403 302.739 58.5601 302.596 56.8135L301.099 38.1001C300.101 25.4819 293.329 19.1372 282.92 19.1372C272.512 19.1372 265.74 25.4819 264.742 38.1001L263.245 56.8135C263.102 58.5601 263.031 61.3403 263.031 62.374C263.031 68.2197 266.524 71.5347 271.799 71.5347ZM276.433 41.4863C276.433 40.7734 276.896 40.4883 277.574 40.3813C278.536 40.2031 280.247 40.0605 281.851 40.0605V35.3555C281.851 34.6426 282.172 34.1436 282.92 34.1436C283.669 34.1436 283.99 34.6426 283.99 35.3555V40.0605C285.629 40.0605 287.34 40.2031 288.267 40.3813C288.98 40.4883 289.408 40.7734 289.408 41.4863C289.408 42.0923 289.087 42.4844 288.374 42.4844C288.125 42.4844 287.554 42.4131 286.984 42.3774C285.701 42.2349 284.061 42.1992 282.92 42.1992C281.815 42.1992 280.14 42.2349 278.857 42.3774C278.322 42.4131 277.716 42.4844 277.467 42.4844C276.754 42.4844 276.433 42.0923 276.433 41.4863ZM314.002 71.5347C319.634 71.5347 323.199 67.6138 323.199 61.9819V28.6899C323.199 23.0581 319.527 19.1372 314.002 19.1372C308.442 19.1372 304.771 23.0581 304.771 28.6899V61.9819C304.771 67.6138 308.442 71.5347 314.002 71.5347ZM334.391 71.5347C339.773 71.5347 343.338 67.5781 343.338 61.9463V47.938C343.338 47.2251 343.659 46.7261 344.407 46.7261C345.156 46.7261 345.477 47.2251 345.477 47.938V61.9463C345.477 67.5781 349.005 71.5347 354.388 71.5347C359.806 71.5347 363.37 67.5781 363.37 61.9463V47.938C363.37 47.2251 363.691 46.7261 364.439 46.7261C365.188 46.7261 365.509 47.2251 365.509 47.938V61.9463C365.509 67.5781 369.073 71.5347 374.456 71.5347C379.838 71.5347 383.331 67.5781 383.331 61.9463V46.1201C383.331 36.3535 378.626 31.0781 370.57 31.0781C367.434 31.0781 364.653 32.2544 362.408 34.4287C361.089 35.7476 359.984 37.5654 359.057 39.5615C358.808 40.0962 358.416 40.417 357.881 40.417C357.382 40.417 356.954 39.9536 356.954 39.4902C356.954 39.0981 357.025 38.8486 357.132 38.5635C357.56 37.4941 358.736 35.1772 360.697 33.1812C358.665 31.8623 355.707 31.0781 351.857 31.0781C348.257 31.0781 345.084 32.29 342.625 34.6782C341.342 35.9258 340.237 37.6724 339.381 39.5615C339.132 40.0962 338.74 40.417 338.205 40.417C337.706 40.417 337.278 39.9536 337.278 39.4902C337.278 39.0981 337.35 38.8486 337.457 38.5635C337.884 37.4941 339.096 35.1416 341.128 33.1099C339.631 31.8979 337.528 31.0781 334.748 31.0781C329.187 31.0781 325.516 35.0347 325.516 40.6665V61.9463C325.516 67.5781 329.044 71.5347 334.391 71.5347ZM405.716 71.7129C415.197 71.7129 422.148 67.9346 422.148 62.7661C422.148 59.2729 419.974 57.3838 417.122 57.3838C415.233 57.3838 411.276 57.8115 408.959 57.8115C405.68 57.8115 402.829 57.4194 401.545 57.0273C400.975 56.8491 400.619 56.457 400.619 55.9224C400.619 55.3521 401.082 54.9243 401.688 54.9243C402.401 54.9243 404.076 55.6729 408.959 55.6729C411.241 55.6729 415.768 55.4233 418.334 55.0669C421.399 53.2847 423.003 50.647 423.003 45.9775C423.003 37.6011 415.696 31.0781 404.183 31.0781C392.278 31.0781 385.113 39.3477 385.113 51.2529C385.113 63.3721 392.563 71.7129 405.716 71.7129ZM403.007 46.9756V41.9141C403.007 41.2012 403.328 40.7021 404.076 40.7021C404.825 40.7021 405.146 41.2012 405.146 41.9141V46.9756C405.146 47.6528 404.825 48.1875 404.076 48.1875C403.328 48.1875 403.007 47.6528 403.007 46.9756ZM433.946 71.5347C439.257 71.5347 442.822 67.5781 442.822 61.9463V47.938C442.822 47.2251 443.143 46.7261 443.891 46.7261C444.64 46.7261 444.96 47.2251 444.96 47.938V61.9463C444.96 67.5781 448.525 71.5347 453.872 71.5347C459.325 71.5347 462.961 67.5781 462.961 61.9463V46.1201C462.961 36.3535 457.971 31.0781 450.557 31.0781C447.242 31.0781 444.319 32.3257 442.002 34.5713C440.647 35.8545 439.578 37.6367 438.687 39.5615C438.438 40.0962 438.045 40.417 437.511 40.417C437.012 40.417 436.584 39.9536 436.584 39.4902C436.584 39.0981 436.655 38.8486 436.762 38.5635C437.19 37.4941 438.402 35.1416 440.434 33.1099C438.972 31.8979 436.833 31.0781 434.053 31.0781C428.493 31.0781 424.821 35.0347 424.821 40.6665V61.9463C424.821 67.5781 428.457 71.5347 433.946 71.5347ZM477.825 71.7129C483.706 71.7129 487.342 67.5781 489.409 62.374C489.73 61.6255 490.122 61.4829 490.514 61.4829C491.013 61.4829 491.512 61.875 491.512 62.5166C491.512 62.7305 491.441 62.98 491.298 63.4077C490.585 65.2969 488.946 68.0415 487.413 69.6812C488.411 70.8574 490.871 71.7129 492.938 71.7129C498.499 71.7129 502.17 68.0415 502.17 62.873V48.1875C502.17 37.8149 495.077 31.0781 484.098 31.0781C473.191 31.0781 464.743 36.4961 464.743 43.5181C464.743 48.0449 468.379 50.6113 472.407 50.6113C476.221 50.6113 479.464 47.7954 479.678 43.7319C479.75 42.8052 480.106 42.4487 480.748 42.4487C481.389 42.4487 481.781 42.8765 481.781 43.9102C481.781 48.3657 477.753 52.75 472.442 52.75C470.838 52.75 469.021 52.3936 467.63 51.645C466.133 53.6055 465.349 55.6016 465.349 58.5601C465.349 66.3662 470.731 71.7129 477.825 71.7129ZM483.35 57.5264V53.1777C483.35 52.4648 483.67 51.9658 484.419 51.9658C485.167 51.9658 485.488 52.4648 485.488 53.1777V57.5264C485.488 58.2036 485.167 58.7383 484.419 58.7383C483.67 58.7383 483.35 58.2036 483.35 57.5264Z" fill="#5B8C00"/>
<path d="M19.3906 65.7129C32.1514 65.7129 39.7437 55.5898 39.7437 38.623C39.7437 22.2622 32.7217 12.959 20.3887 12.959C8.8042 12.959 1.42578 20.3018 1.42578 31.9575C1.42578 42.1519 7.48535 48.9243 17.4302 48.9243C19.1055 48.9243 20.6738 48.6035 22.6343 47.6055C22.9194 47.4629 23.1689 47.356 23.4541 47.356C23.9888 47.356 24.4521 47.8193 24.4521 48.3896C24.4521 48.7461 24.2739 49.1025 23.8462 49.3521C22.4561 50.2432 19.9609 51.063 17.3232 51.063C12.6895 51.063 8.30518 49.5659 4.95459 46.5718C3.56445 48.2827 2.85156 50.3501 2.85156 53.0947C2.85156 60.8296 9.33887 65.7129 19.3906 65.7129ZM19.4976 36.6626V26.1475C19.4976 25.4346 19.8184 24.9355 20.5669 24.9355C21.3154 24.9355 21.6362 25.4346 21.6362 26.1475V36.6626C21.6362 37.3398 21.3154 37.8745 20.5669 37.8745C19.8184 37.8745 19.4976 37.3398 19.4976 36.6626ZM51.4707 65.5347C56.7817 65.5347 60.3462 61.5781 60.3462 55.9463V41.938C60.3462 41.2251 60.667 40.7261 61.4155 40.7261C62.1641 40.7261 62.4849 41.2251 62.4849 41.938V55.9463C62.4849 61.5781 66.0493 65.5347 71.396 65.5347C76.8496 65.5347 80.4854 61.5781 80.4854 55.9463V40.1201C80.4854 30.3535 75.4951 25.0781 68.0811 25.0781C64.7661 25.0781 61.8433 26.3257 59.5264 28.5713C58.1719 29.8545 57.1025 31.6367 56.2114 33.5615C55.9619 34.0962 55.5698 34.417 55.0352 34.417C54.5361 34.417 54.1084 33.9536 54.1084 33.4902C54.1084 33.0981 54.1797 32.8486 54.2866 32.5635C54.7144 31.4941 55.9263 29.1416 57.958 27.1099C56.4966 25.8979 54.3579 25.0781 51.5776 25.0781C46.0171 25.0781 42.3457 29.0347 42.3457 34.6665V55.9463C42.3457 61.5781 45.9814 65.5347 51.4707 65.5347ZM95.9551 65.7129C102.514 65.7129 106.042 61.6851 106.042 56.6235C106.042 52.2036 103.191 48.853 99.1274 48.853C97.8799 48.853 96.4185 49.2095 95.4917 49.6729C95.064 49.8511 94.7788 50.0293 94.458 50.0293C93.8521 50.0293 93.4243 49.5303 93.4243 48.96C93.4243 48.5322 93.6382 48.2114 94.1016 47.9619C95.6699 47.1421 97.6304 46.7144 99.4482 46.7144C99.9473 46.7144 100.589 46.75 101.052 46.8213V39.2646C104.545 39.2646 106.862 36.5557 106.862 32.5635C106.862 28.5 104.118 25.791 101.052 25.791C98.8779 25.791 97.0601 26.2188 95.7056 26.896C95.3848 27.0386 95.0996 27.1455 94.8145 27.1455C94.2441 27.1455 93.8164 26.6821 93.8164 26.1475C93.8164 25.7554 93.9946 25.3989 94.458 25.1138C96.2402 24.0801 98.4146 23.6167 101.052 23.6167V22.4404C100.874 16.9512 97.3809 13.1372 91.856 13.1372C86.2954 13.1372 82.624 17.0938 82.624 22.7256V51.6689C82.624 60.4731 88.5767 65.7129 95.9551 65.7129ZM125.255 65.7129C136.625 65.7129 144.146 58.1206 144.146 45.3955C144.146 32.6704 136.625 25.0781 125.255 25.0781C113.884 25.0781 106.363 32.6704 106.363 45.3955C106.363 58.1206 113.884 65.7129 125.255 65.7129ZM124.186 50.9561V39.835C124.186 39.1221 124.506 38.623 125.255 38.623C126.003 38.623 126.324 39.1221 126.324 39.835V50.9561C126.324 51.6333 126.003 52.168 125.255 52.168C124.506 52.168 124.186 51.6333 124.186 50.9561ZM155.054 65.5347C160.365 65.5347 163.929 61.5781 163.929 55.9463V41.938C163.929 41.2251 164.25 40.7261 164.999 40.7261C165.747 40.7261 166.068 41.2251 166.068 41.938V55.9463C166.068 61.5781 169.632 65.5347 174.979 65.5347C180.433 65.5347 184.068 61.5781 184.068 55.9463V40.1201C184.068 30.3535 179.078 25.0781 171.664 25.0781C168.349 25.0781 165.426 26.3257 163.109 28.5713C161.755 29.8545 160.686 31.6367 159.794 33.5615C159.545 34.0962 159.153 34.417 158.618 34.417C158.119 34.417 157.691 33.9536 157.691 33.4902C157.691 33.0981 157.763 32.8486 157.87 32.5635C158.297 31.4941 159.509 29.1416 161.541 27.1099C160.08 25.8979 157.941 25.0781 155.161 25.0781C149.6 25.0781 145.929 29.0347 145.929 34.6665V55.9463C145.929 61.5781 149.564 65.5347 155.054 65.5347ZM203.388 29.4624C201.32 31.2803 198.397 32.207 195.475 32.207C192.552 32.207 189.629 31.2803 187.526 29.4268C186.706 30.8525 186.243 32.5635 186.243 34.4883V55.9819C186.243 61.6138 189.914 65.5347 195.475 65.5347C201.106 65.5347 204.671 61.6138 204.671 55.9819V34.4883C204.671 32.5635 204.208 30.8525 203.388 29.4624ZM185.958 21.0146C185.958 26.1118 189.558 30.0684 195.475 30.0684C201.392 30.0684 204.956 26.1118 204.956 21.0146C204.956 15.9888 201.392 11.8896 195.475 11.8896C189.558 11.8896 185.958 15.9888 185.958 21.0146ZM225.416 65.7129C236.787 65.7129 244.308 58.1206 244.308 45.3955C244.308 32.6704 236.787 25.0781 225.416 25.0781C214.045 25.0781 206.524 32.6704 206.524 45.3955C206.524 58.1206 214.045 65.7129 225.416 65.7129ZM224.347 50.9561V39.835C224.347 39.1221 224.667 38.623 225.416 38.623C226.165 38.623 226.485 39.1221 226.485 39.835V50.9561C226.485 51.6333 226.165 52.168 225.416 52.168C224.667 52.168 224.347 51.6333 224.347 50.9561ZM266.799 65.5347C271.968 65.5347 274.926 63.1465 276.316 56.8018C276.637 55.3403 276.744 53.9502 276.851 51.5264C275.247 51.5264 273.536 51.3481 272.574 51.1699C271.896 51.063 271.433 50.7422 271.433 50.0649C271.433 49.459 271.754 49.0669 272.467 49.0669C272.716 49.0669 273.322 49.1382 273.857 49.1738C275.14 49.3164 276.815 49.3521 277.92 49.3521C279.061 49.3521 280.701 49.3164 281.984 49.1738C282.554 49.1382 283.125 49.0669 283.374 49.0669C284.087 49.0669 284.408 49.459 284.408 50.0649C284.408 50.7422 283.98 51.063 283.267 51.1699C282.34 51.3481 280.629 51.5264 278.99 51.5264C279.097 53.9502 279.204 55.3403 279.524 56.8018C280.915 63.1465 283.909 65.5347 289.042 65.5347C294.317 65.5347 297.81 62.2197 297.81 56.374C297.81 55.3403 297.739 52.5601 297.596 50.8135L296.099 32.1001C295.101 19.4819 288.329 13.1372 277.92 13.1372C267.512 13.1372 260.74 19.4819 259.742 32.1001L258.245 50.8135C258.102 52.5601 258.031 55.3403 258.031 56.374C258.031 62.2197 261.524 65.5347 266.799 65.5347ZM271.433 35.4863C271.433 34.7734 271.896 34.4883 272.574 34.3813C273.536 34.2031 275.247 34.0605 276.851 34.0605V29.3555C276.851 28.6426 277.172 28.1436 277.92 28.1436C278.669 28.1436 278.99 28.6426 278.99 29.3555V34.0605C280.629 34.0605 282.34 34.2031 283.267 34.3813C283.98 34.4883 284.408 34.7734 284.408 35.4863C284.408 36.0923 284.087 36.4844 283.374 36.4844C283.125 36.4844 282.554 36.4131 281.984 36.3774C280.701 36.2349 279.061 36.1992 277.92 36.1992C276.815 36.1992 275.14 36.2349 273.857 36.3774C273.322 36.4131 272.716 36.4844 272.467 36.4844C271.754 36.4844 271.433 36.0923 271.433 35.4863ZM309.002 65.5347C314.634 65.5347 318.199 61.6138 318.199 55.9819V22.6899C318.199 17.0581 314.527 13.1372 309.002 13.1372C303.442 13.1372 299.771 17.0581 299.771 22.6899V55.9819C299.771 61.6138 303.442 65.5347 309.002 65.5347ZM329.391 65.5347C334.773 65.5347 338.338 61.5781 338.338 55.9463V41.938C338.338 41.2251 338.659 40.7261 339.407 40.7261C340.156 40.7261 340.477 41.2251 340.477 41.938V55.9463C340.477 61.5781 344.005 65.5347 349.388 65.5347C354.806 65.5347 358.37 61.5781 358.37 55.9463V41.938C358.37 41.2251 358.691 40.7261 359.439 40.7261C360.188 40.7261 360.509 41.2251 360.509 41.938V55.9463C360.509 61.5781 364.073 65.5347 369.456 65.5347C374.838 65.5347 378.331 61.5781 378.331 55.9463V40.1201C378.331 30.3535 373.626 25.0781 365.57 25.0781C362.434 25.0781 359.653 26.2544 357.408 28.4287C356.089 29.7476 354.984 31.5654 354.057 33.5615C353.808 34.0962 353.416 34.417 352.881 34.417C352.382 34.417 351.954 33.9536 351.954 33.4902C351.954 33.0981 352.025 32.8486 352.132 32.5635C352.56 31.4941 353.736 29.1772 355.697 27.1812C353.665 25.8623 350.707 25.0781 346.857 25.0781C343.257 25.0781 340.084 26.29 337.625 28.6782C336.342 29.9258 335.237 31.6724 334.381 33.5615C334.132 34.0962 333.74 34.417 333.205 34.417C332.706 34.417 332.278 33.9536 332.278 33.4902C332.278 33.0981 332.35 32.8486 332.457 32.5635C332.884 31.4941 334.096 29.1416 336.128 27.1099C334.631 25.8979 332.528 25.0781 329.748 25.0781C324.187 25.0781 320.516 29.0347 320.516 34.6665V55.9463C320.516 61.5781 324.044 65.5347 329.391 65.5347ZM400.716 65.7129C410.197 65.7129 417.148 61.9346 417.148 56.7661C417.148 53.2729 414.974 51.3838 412.122 51.3838C410.233 51.3838 406.276 51.8115 403.959 51.8115C400.68 51.8115 397.829 51.4194 396.545 51.0273C395.975 50.8491 395.619 50.457 395.619 49.9224C395.619 49.3521 396.082 48.9243 396.688 48.9243C397.401 48.9243 399.076 49.6729 403.959 49.6729C406.241 49.6729 410.768 49.4233 413.334 49.0669C416.399 47.2847 418.003 44.647 418.003 39.9775C418.003 31.6011 410.696 25.0781 399.183 25.0781C387.278 25.0781 380.113 33.3477 380.113 45.2529C380.113 57.3721 387.563 65.7129 400.716 65.7129ZM398.007 40.9756V35.9141C398.007 35.2012 398.328 34.7021 399.076 34.7021C399.825 34.7021 400.146 35.2012 400.146 35.9141V40.9756C400.146 41.6528 399.825 42.1875 399.076 42.1875C398.328 42.1875 398.007 41.6528 398.007 40.9756ZM428.946 65.5347C434.257 65.5347 437.822 61.5781 437.822 55.9463V41.938C437.822 41.2251 438.143 40.7261 438.891 40.7261C439.64 40.7261 439.96 41.2251 439.96 41.938V55.9463C439.96 61.5781 443.525 65.5347 448.872 65.5347C454.325 65.5347 457.961 61.5781 457.961 55.9463V40.1201C457.961 30.3535 452.971 25.0781 445.557 25.0781C442.242 25.0781 439.319 26.3257 437.002 28.5713C435.647 29.8545 434.578 31.6367 433.687 33.5615C433.438 34.0962 433.045 34.417 432.511 34.417C432.012 34.417 431.584 33.9536 431.584 33.4902C431.584 33.0981 431.655 32.8486 431.762 32.5635C432.19 31.4941 433.402 29.1416 435.434 27.1099C433.972 25.8979 431.833 25.0781 429.053 25.0781C423.493 25.0781 419.821 29.0347 419.821 34.6665V55.9463C419.821 61.5781 423.457 65.5347 428.946 65.5347ZM472.825 65.7129C478.706 65.7129 482.342 61.5781 484.409 56.374C484.73 55.6255 485.122 55.4829 485.514 55.4829C486.013 55.4829 486.512 55.875 486.512 56.5166C486.512 56.7305 486.441 56.98 486.298 57.4077C485.585 59.2969 483.946 62.0415 482.413 63.6812C483.411 64.8574 485.871 65.7129 487.938 65.7129C493.499 65.7129 497.17 62.0415 497.17 56.873V42.1875C497.17 31.8149 490.077 25.0781 479.098 25.0781C468.191 25.0781 459.743 30.4961 459.743 37.5181C459.743 42.0449 463.379 44.6113 467.407 44.6113C471.221 44.6113 474.464 41.7954 474.678 37.7319C474.75 36.8052 475.106 36.4487 475.748 36.4487C476.389 36.4487 476.781 36.8765 476.781 37.9102C476.781 42.3657 472.753 46.75 467.442 46.75C465.838 46.75 464.021 46.3936 462.63 45.645C461.133 47.6055 460.349 49.6016 460.349 52.5601C460.349 60.3662 465.731 65.7129 472.825 65.7129ZM478.35 51.5264V47.1777C478.35 46.4648 478.67 45.9658 479.419 45.9658C480.167 45.9658 480.488 46.4648 480.488 47.1777V51.5264C480.488 52.2036 480.167 52.7383 479.419 52.7383C478.67 52.7383 478.35 52.2036 478.35 51.5264Z" fill="#B5F5EC"/>
</svg>
