<svg width="514" height="92" viewBox="0 0 514 92" fill="none" xmlns="http://www.w3.org/2000/svg">
<path d="M4.584 74L3.635 68.306L7.65 66.992L22.104 23.557H31.156L45.829 66.992L49.187 68.306L48.457 74H29.477V68.525L35.317 66.992L32.689 58.086H18.381L15.607 67.284L22.031 68.452V74H4.584ZM20.644 50.421H29.477L25.608 33.923L20.644 50.421ZM52.4788 74L51.6758 69.328L55.7638 68.379V44.946H52.0408L51.2378 39.982L62.0418 38.084L64.5968 40.785C65.5215 40.1037 66.7625 39.4953 68.3198 38.96C69.8772 38.4247 71.4588 38.157 73.0648 38.157C75.1088 38.157 76.9825 38.4977 78.6858 39.179C80.3892 39.8603 81.7518 40.9067 82.7738 42.318C83.7958 43.7293 84.3068 45.5543 84.3068 47.793V68.671L88.3218 69.328L88.2488 74H71.8238V69.328L75.4738 68.525V49.837C75.4738 48.2797 75.0602 47.136 74.2328 46.406C73.4542 45.676 72.3592 45.311 70.9478 45.311C69.5365 45.311 68.1982 45.676 66.9328 46.406C65.7162 47.0873 64.9375 47.6227 64.5968 48.012V68.525L68.7578 69.401L68.6848 74H52.4788ZM105.031 74.292C103.425 74.292 101.917 74 100.505 73.416C99.1428 72.832 98.0234 71.7857 97.1474 70.277C96.2714 68.7683 95.8334 66.6513 95.8334 63.926L95.9794 44.8H90.4314L89.3364 38.887L89.8474 38.157H96.0524L96.1984 25.893L104.009 24.214L104.666 25.382V38.157H112.039C112.283 38.157 112.404 38.303 112.404 38.595V44.8H104.666V63.853C104.666 65.3617 104.861 66.3107 105.25 66.7C105.64 67.0407 106.199 67.211 106.929 67.211C107.757 67.211 108.657 66.9433 109.63 66.408C110.604 65.8727 111.309 65.4347 111.747 65.094L113.572 71.007C112.94 71.737 111.82 72.467 110.214 73.197C108.608 73.927 106.881 74.292 105.031 74.292ZM132.532 74.292C129.856 74.292 127.276 73.6107 124.794 72.248C122.361 70.8367 120.366 68.7683 118.808 66.043C117.251 63.3177 116.472 59.984 116.472 56.042C116.472 52.1 117.251 48.815 118.808 46.187C120.366 43.5103 122.361 41.515 124.794 40.201C127.276 38.8383 129.856 38.157 132.532 38.157C135.209 38.157 137.764 38.8383 140.197 40.201C142.679 41.515 144.699 43.5103 146.256 46.187C147.862 48.815 148.665 52.1 148.665 56.042C148.665 59.984 147.862 63.3177 146.256 66.043C144.699 68.7683 142.679 70.8367 140.197 72.248C137.764 73.6107 135.209 74.292 132.532 74.292ZM132.532 67.43C133.846 67.43 135.039 67.0893 136.109 66.408C137.18 65.7267 138.032 64.583 138.664 62.977C139.297 61.371 139.613 59.2053 139.613 56.48C139.613 53.706 139.297 51.4917 138.664 49.837C138.032 48.1337 137.18 46.917 136.109 46.187C135.039 45.4083 133.846 45.019 132.532 45.019C131.608 45.019 130.707 45.238 129.831 45.676C129.004 46.0653 128.25 46.7223 127.568 47.647C126.936 48.5717 126.425 49.764 126.035 51.224C125.695 52.684 125.524 54.436 125.524 56.48C125.524 59.2053 125.841 61.371 126.473 62.977C127.106 64.583 127.958 65.7267 129.028 66.408C130.099 67.0893 131.267 67.43 132.532 67.43ZM153.567 74L152.764 69.328L156.852 68.379V44.946H153.129L152.326 39.982L163.13 38.084L165.685 40.785C166.609 40.1037 167.85 39.4953 169.408 38.96C170.965 38.4247 172.547 38.157 174.153 38.157C176.197 38.157 178.07 38.4977 179.774 39.179C181.477 39.8603 182.84 40.9067 183.862 42.318C184.884 43.7293 185.395 45.5543 185.395 47.793V68.671L189.41 69.328L189.337 74H172.912V69.328L176.562 68.525V49.837C176.562 48.2797 176.148 47.136 175.321 46.406C174.542 45.676 173.447 45.311 172.036 45.311C170.624 45.311 169.286 45.676 168.021 46.406C166.804 47.0873 166.025 47.6227 165.685 48.012V68.525L169.846 69.401L169.773 74H153.567ZM194.059 74L193.256 69.328L197.344 68.379V44.946H193.621L192.818 39.982L203.695 38.084L206.177 40.712V68.525L210.192 69.328V74H194.059ZM201.578 35.164C200.313 35.164 199.242 34.726 198.366 33.85C197.49 32.9253 197.052 31.8547 197.052 30.638C197.052 29.3727 197.49 28.302 198.366 27.426C199.242 26.55 200.313 26.112 201.578 26.112C202.843 26.112 203.914 26.55 204.79 27.426C205.666 28.302 206.104 29.3727 206.104 30.638C206.104 31.8547 205.666 32.9253 204.79 33.85C203.914 34.726 202.843 35.164 201.578 35.164ZM229.699 74.292C227.023 74.292 224.443 73.6107 221.961 72.248C219.528 70.8367 217.533 68.7683 215.975 66.043C214.418 63.3177 213.639 59.984 213.639 56.042C213.639 52.1 214.418 48.815 215.975 46.187C217.533 43.5103 219.528 41.515 221.961 40.201C224.443 38.8383 227.023 38.157 229.699 38.157C232.376 38.157 234.931 38.8383 237.364 40.201C239.846 41.515 241.866 43.5103 243.423 46.187C245.029 48.815 245.832 52.1 245.832 56.042C245.832 59.984 245.029 63.3177 243.423 66.043C241.866 68.7683 239.846 70.8367 237.364 72.248C234.931 73.6107 232.376 74.292 229.699 74.292ZM229.699 67.43C231.013 67.43 232.206 67.0893 233.276 66.408C234.347 65.7267 235.199 64.583 235.831 62.977C236.464 61.371 236.78 59.2053 236.78 56.48C236.78 53.706 236.464 51.4917 235.831 49.837C235.199 48.1337 234.347 46.917 233.276 46.187C232.206 45.4083 231.013 45.019 229.699 45.019C228.775 45.019 227.874 45.238 226.998 45.676C226.171 46.0653 225.417 46.7223 224.735 47.647C224.103 48.5717 223.592 49.764 223.202 51.224C222.862 52.684 222.691 54.436 222.691 56.48C222.691 59.2053 223.008 61.371 223.64 62.977C224.273 64.583 225.125 65.7267 226.195 66.408C227.266 67.0893 228.434 67.43 229.699 67.43ZM266.072 74L265.123 68.306L269.138 66.992L283.592 23.557H292.644L307.317 66.992L310.675 68.306L309.945 74H290.965V68.525L296.805 66.992L294.177 58.086H279.869L277.095 67.284L283.519 68.452V74H266.072ZM282.132 50.421H290.965L287.096 33.923L282.132 50.421ZM313.31 74L312.507 69.401L316.595 68.379V26.696H312.799L311.996 21.732L322.873 20.199L325.428 22.9V68.233L330.173 69.401V74H313.31ZM334.712 74L333.763 69.401L337.997 68.379V44.946H334.274L333.471 39.982L344.275 38.084L346.83 40.785C347.755 40.1037 348.996 39.4953 350.553 38.96C352.111 38.4247 353.692 38.157 355.298 38.157C357.148 38.157 358.851 38.449 360.408 39.033C361.966 39.5683 363.255 40.42 364.277 41.588C365.445 40.712 366.613 40.0307 367.781 39.544C368.998 39.0573 370.215 38.7167 371.431 38.522C372.648 38.2787 373.889 38.157 375.154 38.157C377.15 38.157 378.975 38.4977 380.629 39.179C382.333 39.8603 383.671 40.9067 384.644 42.318C385.666 43.7293 386.177 45.5543 386.177 47.793V68.452L389.9 69.328L389.827 74H373.256V69.401L377.344 68.525V49.837C377.344 48.2797 376.931 47.136 376.103 46.406C375.325 45.676 374.23 45.311 372.818 45.311C371.407 45.311 370.069 45.676 368.803 46.406C367.587 47.0873 366.808 47.6227 366.467 48.012V68.598L370.336 69.328L370.263 74H354.203V69.328L357.707 68.525V49.837C357.707 48.2797 357.294 47.136 356.466 46.406C355.688 45.676 354.593 45.311 353.181 45.311C351.77 45.311 350.432 45.676 349.166 46.406C347.95 47.0873 347.171 47.6227 346.83 48.012V68.525L350.991 69.401L350.918 74H334.712ZM409.932 74.292C407.158 74.292 404.506 73.6593 401.975 72.394C399.444 71.08 397.376 69.109 395.77 66.481C394.164 63.853 393.361 60.5437 393.361 56.553C393.361 52.2703 394.164 48.7907 395.77 46.114C397.425 43.3887 399.493 41.3933 401.975 40.128C404.506 38.814 407.061 38.157 409.64 38.157C411.684 38.157 413.655 38.522 415.553 39.252C417.451 39.9333 419.008 41.0283 420.225 42.537C421.49 43.997 422.123 45.8707 422.123 48.158C422.123 50.202 421.685 51.954 420.809 53.414C419.982 54.874 418.814 56.0663 417.305 56.991C415.845 57.9157 414.166 58.597 412.268 59.035C410.37 59.473 408.375 59.6677 406.282 59.619L402.559 59.546C402.851 61.736 403.654 63.5853 404.968 65.094C406.282 66.6027 408.423 67.357 411.392 67.357C413.631 67.357 415.431 66.9433 416.794 66.116C418.157 65.24 419.276 64.3883 420.152 63.561L421.831 69.912C421.393 70.496 420.614 71.1287 419.495 71.81C418.376 72.4913 416.989 73.0753 415.334 73.562C413.728 74.0487 411.927 74.292 409.932 74.292ZM402.632 53.414L405.041 53.487C405.966 53.5357 406.89 53.487 407.815 53.341C408.788 53.1463 409.664 52.8543 410.443 52.465C411.27 52.0757 411.927 51.5647 412.414 50.932C412.901 50.2507 413.144 49.4233 413.144 48.45C413.144 47.3307 412.828 46.5033 412.195 45.968C411.562 45.384 410.759 45.092 409.786 45.092C408.618 45.092 407.499 45.4813 406.428 46.26C405.406 46.99 404.554 47.9877 403.873 49.253C403.192 50.5183 402.778 51.9053 402.632 53.414ZM427.459 74L426.656 69.328L430.744 68.379V44.946H427.021L426.218 39.982L437.022 38.084L439.577 40.785C440.502 40.1037 441.743 39.4953 443.3 38.96C444.858 38.4247 446.439 38.157 448.045 38.157C450.089 38.157 451.963 38.4977 453.666 39.179C455.37 39.8603 456.732 40.9067 457.754 42.318C458.776 43.7293 459.287 45.5543 459.287 47.793V68.671L463.302 69.328L463.229 74H446.804V69.328L450.454 68.525V49.837C450.454 48.2797 450.041 47.136 449.213 46.406C448.435 45.676 447.34 45.311 445.928 45.311C444.517 45.311 443.179 45.676 441.913 46.406C440.697 47.0873 439.918 47.6227 439.577 48.012V68.525L443.738 69.401L443.665 74H427.459ZM477.515 74.292C475.276 74.292 473.354 73.8783 471.748 73.051C470.19 72.175 468.998 71.007 468.171 69.547C467.343 68.0383 466.93 66.3837 466.93 64.583C466.93 62.4417 467.465 60.641 468.536 59.181C469.655 57.721 471.091 56.553 472.843 55.677C474.643 54.7523 476.59 54.0953 478.683 53.706C480.775 53.268 482.819 53.0247 484.815 52.976V47.209C484.815 46.6737 484.425 46.187 483.647 45.749C482.917 45.2623 481.724 45.019 480.07 45.019C479.68 45.019 479.291 45.0433 478.902 45.092C478.512 45.092 478.196 45.1407 477.953 45.238L476.055 50.64L467.003 46.698C468.025 44.4107 469.777 42.4153 472.259 40.712C474.741 39.0087 477.685 38.157 481.092 38.157C483.184 38.157 485.18 38.522 487.078 39.252C488.976 39.982 490.533 41.1987 491.75 42.902C493.015 44.6053 493.648 46.9413 493.648 49.91V66.335C493.648 66.9677 493.769 67.4057 494.013 67.649C494.305 67.8437 494.621 67.941 494.962 67.941C495.205 67.941 495.424 67.9167 495.619 67.868C495.862 67.8193 496.008 67.795 496.057 67.795L497.371 71.883C497.03 72.175 496.349 72.6617 495.327 73.343C494.305 73.9757 493.039 74.292 491.531 74.292C490.071 74.292 488.854 73.9757 487.881 73.343C486.956 72.7103 486.226 71.8587 485.691 70.788C484.717 71.7613 483.525 72.5887 482.114 73.27C480.751 73.9513 479.218 74.292 477.515 74.292ZM479.267 67.284C480.629 67.284 481.797 66.919 482.771 66.189C483.793 65.4103 484.474 64.6317 484.815 63.853V59.108C483.89 59.1567 482.917 59.254 481.895 59.4C480.873 59.546 479.899 59.7893 478.975 60.13C478.099 60.4707 477.369 60.9573 476.785 61.59C476.249 62.174 475.982 62.9527 475.982 63.926C475.982 64.7533 476.249 65.532 476.785 66.262C477.32 66.9433 478.147 67.284 479.267 67.284Z" fill="#5B8C00"/>
<path d="M1.584 71L0.635 65.306L4.65 63.992L19.104 20.557H28.156L42.829 63.992L46.187 65.306L45.457 71H26.477V65.525L32.317 63.992L29.689 55.086H15.381L12.607 64.284L19.031 65.452V71H1.584ZM17.644 47.421H26.477L22.608 30.923L17.644 47.421ZM49.4788 71L48.6758 66.328L52.7638 65.379V41.946H49.0408L48.2378 36.982L59.0418 35.084L61.5968 37.785C62.5215 37.1037 63.7625 36.4953 65.3198 35.96C66.8772 35.4247 68.4588 35.157 70.0648 35.157C72.1088 35.157 73.9825 35.4977 75.6858 36.179C77.3892 36.8603 78.7518 37.9067 79.7738 39.318C80.7958 40.7293 81.3068 42.5543 81.3068 44.793V65.671L85.3218 66.328L85.2488 71H68.8238V66.328L72.4738 65.525V46.837C72.4738 45.2797 72.0602 44.136 71.2328 43.406C70.4542 42.676 69.3592 42.311 67.9478 42.311C66.5365 42.311 65.1982 42.676 63.9328 43.406C62.7162 44.0873 61.9375 44.6227 61.5968 45.012V65.525L65.7578 66.401L65.6848 71H49.4788ZM102.031 71.292C100.425 71.292 98.9168 71 97.5054 70.416C96.1428 69.832 95.0234 68.7857 94.1474 67.277C93.2714 65.7683 92.8334 63.6513 92.8334 60.926L92.9794 41.8H87.4314L86.3364 35.887L86.8474 35.157H93.0524L93.1984 22.893L101.009 21.214L101.666 22.382V35.157H109.039C109.283 35.157 109.404 35.303 109.404 35.595V41.8H101.666V60.853C101.666 62.3617 101.861 63.3107 102.25 63.7C102.64 64.0407 103.199 64.211 103.929 64.211C104.757 64.211 105.657 63.9433 106.63 63.408C107.604 62.8727 108.309 62.4347 108.747 62.094L110.572 68.007C109.94 68.737 108.82 69.467 107.214 70.197C105.608 70.927 103.881 71.292 102.031 71.292ZM129.532 71.292C126.856 71.292 124.276 70.6107 121.794 69.248C119.361 67.8367 117.366 65.7683 115.808 63.043C114.251 60.3177 113.472 56.984 113.472 53.042C113.472 49.1 114.251 45.815 115.808 43.187C117.366 40.5103 119.361 38.515 121.794 37.201C124.276 35.8383 126.856 35.157 129.532 35.157C132.209 35.157 134.764 35.8383 137.197 37.201C139.679 38.515 141.699 40.5103 143.256 43.187C144.862 45.815 145.665 49.1 145.665 53.042C145.665 56.984 144.862 60.3177 143.256 63.043C141.699 65.7683 139.679 67.8367 137.197 69.248C134.764 70.6107 132.209 71.292 129.532 71.292ZM129.532 64.43C130.846 64.43 132.039 64.0893 133.109 63.408C134.18 62.7267 135.032 61.583 135.664 59.977C136.297 58.371 136.613 56.2053 136.613 53.48C136.613 50.706 136.297 48.4917 135.664 46.837C135.032 45.1337 134.18 43.917 133.109 43.187C132.039 42.4083 130.846 42.019 129.532 42.019C128.608 42.019 127.707 42.238 126.831 42.676C126.004 43.0653 125.25 43.7223 124.568 44.647C123.936 45.5717 123.425 46.764 123.035 48.224C122.695 49.684 122.524 51.436 122.524 53.48C122.524 56.2053 122.841 58.371 123.473 59.977C124.106 61.583 124.958 62.7267 126.028 63.408C127.099 64.0893 128.267 64.43 129.532 64.43ZM150.567 71L149.764 66.328L153.852 65.379V41.946H150.129L149.326 36.982L160.13 35.084L162.685 37.785C163.609 37.1037 164.85 36.4953 166.408 35.96C167.965 35.4247 169.547 35.157 171.153 35.157C173.197 35.157 175.07 35.4977 176.774 36.179C178.477 36.8603 179.84 37.9067 180.862 39.318C181.884 40.7293 182.395 42.5543 182.395 44.793V65.671L186.41 66.328L186.337 71H169.912V66.328L173.562 65.525V46.837C173.562 45.2797 173.148 44.136 172.321 43.406C171.542 42.676 170.447 42.311 169.036 42.311C167.624 42.311 166.286 42.676 165.021 43.406C163.804 44.0873 163.025 44.6227 162.685 45.012V65.525L166.846 66.401L166.773 71H150.567ZM191.059 71L190.256 66.328L194.344 65.379V41.946H190.621L189.818 36.982L200.695 35.084L203.177 37.712V65.525L207.192 66.328V71H191.059ZM198.578 32.164C197.313 32.164 196.242 31.726 195.366 30.85C194.49 29.9253 194.052 28.8547 194.052 27.638C194.052 26.3727 194.49 25.302 195.366 24.426C196.242 23.55 197.313 23.112 198.578 23.112C199.843 23.112 200.914 23.55 201.79 24.426C202.666 25.302 203.104 26.3727 203.104 27.638C203.104 28.8547 202.666 29.9253 201.79 30.85C200.914 31.726 199.843 32.164 198.578 32.164ZM226.699 71.292C224.023 71.292 221.443 70.6107 218.961 69.248C216.528 67.8367 214.533 65.7683 212.975 63.043C211.418 60.3177 210.639 56.984 210.639 53.042C210.639 49.1 211.418 45.815 212.975 43.187C214.533 40.5103 216.528 38.515 218.961 37.201C221.443 35.8383 224.023 35.157 226.699 35.157C229.376 35.157 231.931 35.8383 234.364 37.201C236.846 38.515 238.866 40.5103 240.423 43.187C242.029 45.815 242.832 49.1 242.832 53.042C242.832 56.984 242.029 60.3177 240.423 63.043C238.866 65.7683 236.846 67.8367 234.364 69.248C231.931 70.6107 229.376 71.292 226.699 71.292ZM226.699 64.43C228.013 64.43 229.206 64.0893 230.276 63.408C231.347 62.7267 232.199 61.583 232.831 59.977C233.464 58.371 233.78 56.2053 233.78 53.48C233.78 50.706 233.464 48.4917 232.831 46.837C232.199 45.1337 231.347 43.917 230.276 43.187C229.206 42.4083 228.013 42.019 226.699 42.019C225.775 42.019 224.874 42.238 223.998 42.676C223.171 43.0653 222.417 43.7223 221.735 44.647C221.103 45.5717 220.592 46.764 220.202 48.224C219.862 49.684 219.691 51.436 219.691 53.48C219.691 56.2053 220.008 58.371 220.64 59.977C221.273 61.583 222.125 62.7267 223.195 63.408C224.266 64.0893 225.434 64.43 226.699 64.43ZM263.072 71L262.123 65.306L266.138 63.992L280.592 20.557H289.644L304.317 63.992L307.675 65.306L306.945 71H287.965V65.525L293.805 63.992L291.177 55.086H276.869L274.095 64.284L280.519 65.452V71H263.072ZM279.132 47.421H287.965L284.096 30.923L279.132 47.421ZM310.31 71L309.507 66.401L313.595 65.379V23.696H309.799L308.996 18.732L319.873 17.199L322.428 19.9V65.233L327.173 66.401V71H310.31ZM331.712 71L330.763 66.401L334.997 65.379V41.946H331.274L330.471 36.982L341.275 35.084L343.83 37.785C344.755 37.1037 345.996 36.4953 347.553 35.96C349.111 35.4247 350.692 35.157 352.298 35.157C354.148 35.157 355.851 35.449 357.408 36.033C358.966 36.5683 360.255 37.42 361.277 38.588C362.445 37.712 363.613 37.0307 364.781 36.544C365.998 36.0573 367.215 35.7167 368.431 35.522C369.648 35.2787 370.889 35.157 372.154 35.157C374.15 35.157 375.975 35.4977 377.629 36.179C379.333 36.8603 380.671 37.9067 381.644 39.318C382.666 40.7293 383.177 42.5543 383.177 44.793V65.452L386.9 66.328L386.827 71H370.256V66.401L374.344 65.525V46.837C374.344 45.2797 373.931 44.136 373.103 43.406C372.325 42.676 371.23 42.311 369.818 42.311C368.407 42.311 367.069 42.676 365.803 43.406C364.587 44.0873 363.808 44.6227 363.467 45.012V65.598L367.336 66.328L367.263 71H351.203V66.328L354.707 65.525V46.837C354.707 45.2797 354.294 44.136 353.466 43.406C352.688 42.676 351.593 42.311 350.181 42.311C348.77 42.311 347.432 42.676 346.166 43.406C344.95 44.0873 344.171 44.6227 343.83 45.012V65.525L347.991 66.401L347.918 71H331.712ZM406.932 71.292C404.158 71.292 401.506 70.6593 398.975 69.394C396.444 68.08 394.376 66.109 392.77 63.481C391.164 60.853 390.361 57.5437 390.361 53.553C390.361 49.2703 391.164 45.7907 392.77 43.114C394.425 40.3887 396.493 38.3933 398.975 37.128C401.506 35.814 404.061 35.157 406.64 35.157C408.684 35.157 410.655 35.522 412.553 36.252C414.451 36.9333 416.008 38.0283 417.225 39.537C418.49 40.997 419.123 42.8707 419.123 45.158C419.123 47.202 418.685 48.954 417.809 50.414C416.982 51.874 415.814 53.0663 414.305 53.991C412.845 54.9157 411.166 55.597 409.268 56.035C407.37 56.473 405.375 56.6677 403.282 56.619L399.559 56.546C399.851 58.736 400.654 60.5853 401.968 62.094C403.282 63.6027 405.423 64.357 408.392 64.357C410.631 64.357 412.431 63.9433 413.794 63.116C415.157 62.24 416.276 61.3883 417.152 60.561L418.831 66.912C418.393 67.496 417.614 68.1287 416.495 68.81C415.376 69.4913 413.989 70.0753 412.334 70.562C410.728 71.0487 408.927 71.292 406.932 71.292ZM399.632 50.414L402.041 50.487C402.966 50.5357 403.89 50.487 404.815 50.341C405.788 50.1463 406.664 49.8543 407.443 49.465C408.27 49.0757 408.927 48.5647 409.414 47.932C409.901 47.2507 410.144 46.4233 410.144 45.45C410.144 44.3307 409.828 43.5033 409.195 42.968C408.562 42.384 407.759 42.092 406.786 42.092C405.618 42.092 404.499 42.4813 403.428 43.26C402.406 43.99 401.554 44.9877 400.873 46.253C400.192 47.5183 399.778 48.9053 399.632 50.414ZM424.459 71L423.656 66.328L427.744 65.379V41.946H424.021L423.218 36.982L434.022 35.084L436.577 37.785C437.502 37.1037 438.743 36.4953 440.3 35.96C441.858 35.4247 443.439 35.157 445.045 35.157C447.089 35.157 448.963 35.4977 450.666 36.179C452.37 36.8603 453.732 37.9067 454.754 39.318C455.776 40.7293 456.287 42.5543 456.287 44.793V65.671L460.302 66.328L460.229 71H443.804V66.328L447.454 65.525V46.837C447.454 45.2797 447.041 44.136 446.213 43.406C445.435 42.676 444.34 42.311 442.928 42.311C441.517 42.311 440.179 42.676 438.913 43.406C437.697 44.0873 436.918 44.6227 436.577 45.012V65.525L440.738 66.401L440.665 71H424.459ZM474.515 71.292C472.276 71.292 470.354 70.8783 468.748 70.051C467.19 69.175 465.998 68.007 465.171 66.547C464.343 65.0383 463.93 63.3837 463.93 61.583C463.93 59.4417 464.465 57.641 465.536 56.181C466.655 54.721 468.091 53.553 469.843 52.677C471.643 51.7523 473.59 51.0953 475.683 50.706C477.775 50.268 479.819 50.0247 481.815 49.976V44.209C481.815 43.6737 481.425 43.187 480.647 42.749C479.917 42.2623 478.724 42.019 477.07 42.019C476.68 42.019 476.291 42.0433 475.902 42.092C475.512 42.092 475.196 42.1407 474.953 42.238L473.055 47.64L464.003 43.698C465.025 41.4107 466.777 39.4153 469.259 37.712C471.741 36.0087 474.685 35.157 478.092 35.157C480.184 35.157 482.18 35.522 484.078 36.252C485.976 36.982 487.533 38.1987 488.75 39.902C490.015 41.6053 490.648 43.9413 490.648 46.91V63.335C490.648 63.9677 490.769 64.4057 491.013 64.649C491.305 64.8437 491.621 64.941 491.962 64.941C492.205 64.941 492.424 64.9167 492.619 64.868C492.862 64.8193 493.008 64.795 493.057 64.795L494.371 68.883C494.03 69.175 493.349 69.6617 492.327 70.343C491.305 70.9757 490.039 71.292 488.531 71.292C487.071 71.292 485.854 70.9757 484.881 70.343C483.956 69.7103 483.226 68.8587 482.691 67.788C481.717 68.7613 480.525 69.5887 479.114 70.27C477.751 70.9513 476.218 71.292 474.515 71.292ZM476.267 64.284C477.629 64.284 478.797 63.919 479.771 63.189C480.793 62.4103 481.474 61.6317 481.815 60.853V56.108C480.89 56.1567 479.917 56.254 478.895 56.4C477.873 56.546 476.899 56.7893 475.975 57.13C475.099 57.4707 474.369 57.9573 473.785 58.59C473.249 59.174 472.982 59.9527 472.982 60.926C472.982 61.7533 473.249 62.532 473.785 63.262C474.32 63.9433 475.147 64.284 476.267 64.284Z" fill="#B5F5EC"/>
</svg>
